<svg id="_1545860" data-name="1545860" xmlns="http://www.w3.org/2000/svg" width="44" height="47.63" viewBox="0 0 44 47.63">
  <path id="Контур_6349" data-name="Контур 6349" d="M60.051,20.216H40.031v3.438h7.721V42.312H42.258a1.729,1.729,0,0,1-1.017-.33l-4.221-3.1v4.262l2.186,1.609a5.132,5.132,0,0,0,3.052,1H57.321a5.148,5.148,0,0,0,3.321-1.217l1.128-.949v9.453a1.719,1.719,0,0,1-1.719,1.719H32.379a1.719,1.719,0,0,1-1.719-1.719v-22.6h.77a5.158,5.158,0,0,0,5.156-5.156v-6.7H33.575V14.2H30.137v4.386H27.731V14.2H24.294v4.386H21.2v6.7a5.158,5.158,0,0,0,5.156,5.156h.859V53.051a5.158,5.158,0,0,0,5.156,5.156h3.334v.186a3.438,3.438,0,0,0,6.875,0v-.172H55.472v.172a3.438,3.438,0,0,0,6.875,0v-.729A5.161,5.161,0,0,0,65.2,53.051V25.372A5.148,5.148,0,0,0,60.051,20.216ZM26.363,27a1.719,1.719,0,0,1-1.719-1.719V22.017h8.511v3.266A1.719,1.719,0,0,1,31.437,27Zm32.065,14.9a1.716,1.716,0,0,1-1.107.406H51.189V23.653h8.862a1.719,1.719,0,0,1,1.719,1.719V39.094Z" transform="translate(-21.2 -14.2)" fill="#909ebb"/>
  <circle id="Эллипс_1" data-name="Эллипс 1" cx="1.719" cy="1.719" r="1.719" transform="translate(34.712 34.554)" fill="#909ebb"/>
  <circle id="Эллипс_2" data-name="Эллипс 2" cx="1.719" cy="1.719" r="1.719" transform="translate(18.301 34.554)" fill="#909ebb"/>
</svg>
