<svg xmlns="http://www.w3.org/2000/svg" width="47.2" height="57.314" viewBox="0 0 47.2 57.314">
  <g id="_2979392" data-name="2979392" transform="translate(0 0)">
    <path id="Контур_6428" data-name="Контур 6428" d="M86.516,0H45V57.314H86.516A5.685,5.685,0,0,0,92.2,51.641V5.673A5.685,5.685,0,0,0,86.516,0Z" transform="translate(-45)" fill="#fff"/>
    <path id="Контур_6428-2" data-name="Контур 6428" d="M86.516,0H45V57.314H86.516A5.685,5.685,0,0,0,92.2,51.641V5.673A5.685,5.685,0,0,0,86.516,0ZM48.371,53.943V3.371H79.707a2.344,2.344,0,0,1,2.378,2.3V51.641a2.344,2.344,0,0,1-2.378,2.3H48.371Zm40.457-2.3a2.31,2.31,0,0,1-2.312,2.3H84.96a5.574,5.574,0,0,0,.5-2.3V5.673a5.574,5.574,0,0,0-.5-2.3h1.556a2.31,2.31,0,0,1,2.312,2.3Z" transform="translate(-45 0)" fill="#909ebb"/>
    <path id="Контур_6429" data-name="Контур 6429" d="M118.486,60a13.486,13.486,0,1,0,13.486,13.486A13.5,13.5,0,0,0,118.486,60Zm9.973,11.8h-3.836a24.468,24.468,0,0,0-1.374-7.235A10.143,10.143,0,0,1,128.459,71.8Zm-9.973,11.8c-.187,0-.914-.562-1.6-2.371a21.139,21.139,0,0,1-1.156-6.058h5.519a21.143,21.143,0,0,1-1.156,6.058C119.4,83.038,118.673,83.6,118.486,83.6Zm-2.76-11.8a21.143,21.143,0,0,1,1.156-6.058c.689-1.809,1.416-2.371,1.6-2.371s.914.562,1.6,2.371a21.139,21.139,0,0,1,1.156,6.058Zm-2-7.235a24.468,24.468,0,0,0-1.374,7.235h-3.836A10.143,10.143,0,0,1,113.723,64.565Zm-5.211,10.606h3.836a24.468,24.468,0,0,0,1.374,7.235A10.143,10.143,0,0,1,108.513,75.171Zm14.735,7.235a24.468,24.468,0,0,0,1.374-7.235h3.836A10.143,10.143,0,0,1,123.248,82.406Z" transform="translate(-98.257 -53.257)" fill="#909ebb"/>
    <path id="Контур_6430" data-name="Контур 6430" d="M150,345h16.857v3.371H150Z" transform="translate(-138.2 -306.229)" fill="#909ebb"/>
    <path id="Контур_6431" data-name="Контур 6431" d="M180,405h10.114v3.371H180Z" transform="translate(-164.829 -359.486)" fill="#909ebb"/>
  </g>
</svg>
