<svg xmlns="http://www.w3.org/2000/svg" width="47.2" height="57.314" viewBox="0 0 47.2 57.314">
  <g id="_33243256" data-name="33243256" transform="translate(0 0)">
    <path id="Контур_6428" data-name="Контур 6428" d="M86.516,0H45V57.314H86.516A5.685,5.685,0,0,0,92.2,51.641V5.673A5.685,5.685,0,0,0,86.516,0Z" transform="translate(-45)" fill="#fff"/>
    <path id="Контур_6428-2" data-name="Контур 6428" d="M86.516,0H45V57.314H86.516A5.685,5.685,0,0,0,92.2,51.641V5.673A5.685,5.685,0,0,0,86.516,0ZM48.371,53.943V3.371H79.707a2.344,2.344,0,0,1,2.378,2.3V51.641a2.344,2.344,0,0,1-2.378,2.3H48.371Zm40.457-2.3a2.31,2.31,0,0,1-2.312,2.3H84.96a5.574,5.574,0,0,0,.5-2.3V5.673a5.574,5.574,0,0,0-.5-2.3h1.556a2.31,2.31,0,0,1,2.312,2.3Z" transform="translate(-45 0)" fill="#909ebb"/>
    <path id="Контур_6430" data-name="Контур 6430" d="M150,345h16.857v3.371H150Z" transform="translate(-138.2 -306.229)" fill="#909ebb"/>
    <path id="Контур_6431" data-name="Контур 6431" d="M180,405h10.114v3.371H180Z" transform="translate(-164.829 -359.486)" fill="#909ebb"/>
  </g>
</svg>
