<svg xmlns="http://www.w3.org/2000/svg" width="24.734" height="27.702" viewBox="0 0 24.734 27.702">
  <path id="_79892" data-name="79892" d="M35.592,27.7H18.049a.684.684,0,0,1-.684-.684V5.966a.684.684,0,0,1,.684-.684H35.592a.684.684,0,0,1,.684.684V7.314h1.729a.684.684,0,1,1,0,1.367H36.276v1.762h.855a.684.684,0,1,1,0,1.367h-.855v1.762h1.729a.684.684,0,1,1,0,1.367H36.276V16.7h.855a.684.684,0,0,1,0,1.367h-.855v8.95A.684.684,0,0,1,35.592,27.7Zm-16.86-1.367H34.909V6.65H18.732Zm11.361-1.274a3.189,3.189,0,1,1,3.189-3.189A3.193,3.193,0,0,1,30.093,25.061Zm0-5.01a1.822,1.822,0,1,0,1.821,1.822A1.824,1.824,0,0,0,30.093,20.05Zm11.322,2.37H38.287a.684.684,0,1,1,0-1.367h2.445V1.367H24.556V3.53a.684.684,0,0,1-1.367,0V.684A.684.684,0,0,1,23.872,0H41.415A.684.684,0,0,1,42.1.684V21.736A.684.684,0,0,1,41.415,22.42ZM24.87,20.105H21.54a.684.684,0,0,1,0-1.367h3.33a.684.684,0,0,1,0,1.367ZM32.1,17.079H21.54a.684.684,0,0,1,0-1.367H32.1a.684.684,0,0,1,0,1.367Zm0-3.026H21.54a.684.684,0,0,1,0-1.367H32.1a.684.684,0,0,1,0,1.367ZM24.87,11.026H21.54a.684.684,0,0,1,0-1.367h3.33a.684.684,0,0,1,0,1.367Z" transform="translate(-17.365)" fill="#909ebb"/>
</svg>
