<svg xmlns="http://www.w3.org/2000/svg" width="34.835" height="32.113" viewBox="0 0 34.835 32.113">
  <path id="_80120" data-name="80120" d="M21.725,45.584a36.045,36.045,0,0,1-7.133-.7.808.808,0,0,1-.648-.792V35.958L9.751,34.706a.808.808,0,0,1,0-1.549L21.493,29.65a.808.808,0,0,1,.462,0l11.725,3.5a.809.809,0,0,1,.595.78c0,.007,0,.015,0,.022v4.19l.5,1.2a.808.808,0,0,1-1.306.894.808.808,0,0,1-1.306-.894l.5-1.2V35.017l-10.7,3.2a.808.808,0,0,1-.463,0l-5.933-1.772v6.982a35.177,35.177,0,0,0,12.328,0V38.853a.808.808,0,0,1,1.616,0v5.239a.808.808,0,0,1-.648.792A36.05,36.05,0,0,1,21.725,45.584ZM15,34.588,21.725,36.6l8.919-2.664-8.919-2.664-8.918,2.664,2.158.645ZM11.383,41.08a.809.809,0,0,1-.241-.037L.567,37.739A.808.808,0,0,1,0,36.968V14.279a.808.808,0,0,1,1.049-.771l13.817,4.317,13.59-4.246a.808.808,0,0,1,1.049.771V28.78a.808.808,0,1,1-1.616,0V15.449L15.561,19.3v9.071a.808.808,0,1,1-1.616,0V19.23L1.616,15.378v21L11.624,39.5a.808.808,0,0,1-.241,1.58ZM7.78,30.365a.808.808,0,0,1-.241-.037l-2.213-.691a.808.808,0,1,1,.482-1.543l2.213.691a.808.808,0,0,1-.241,1.58Zm11.731-3.328a.808.808,0,0,1-.241-1.58L23.7,24.074a.808.808,0,0,1,.482,1.543L19.753,27A.8.8,0,0,1,19.512,27.037Zm-9.518,0A.809.809,0,0,1,9.752,27L5.326,25.617a.808.808,0,0,1,.482-1.543l4.426,1.383a.808.808,0,0,1-.241,1.58Zm9.518-3.773a.808.808,0,0,1-.241-1.58L23.7,20.3a.808.808,0,0,1,.482,1.543l-4.426,1.383A.8.8,0,0,1,19.512,23.264Zm-9.518,0a.808.808,0,0,1-.241-.037L5.326,21.844A.808.808,0,0,1,5.808,20.3l4.426,1.383a.808.808,0,0,1-.241,1.58Z" transform="translate(0 -13.471)" fill="#909ebb"/>
</svg>
