<svg xmlns="http://www.w3.org/2000/svg" width="23.977" height="29.1" viewBox="0 0 23.977 29.1">
  <path id="_80128" data-name="80128" d="M53.271,29.1H30.662a.684.684,0,0,1-.684-.684V13.337a.68.68,0,0,1,.029-.2h0v0h0v0h0v0h0a.683.683,0,0,1,.624-.478h3.125l.4-2.627a.684.684,0,0,1,.676-.581H49.1a.684.684,0,0,1,.676.58l.4,2.627H53.3a.685.685,0,0,1,.618.457h0v0h0v0h0v0h0v0h0v0h0v0h0v0h0v0h0v0h0v0h0v0h0v0h0v0h0a.684.684,0,0,1,.027.194v15.08A.684.684,0,0,1,53.271,29.1ZM31.346,27.733H52.588V14.757l-7.466,5.989v.644a.684.684,0,0,1-.684.684H39.5a.684.684,0,0,1-.684-.684v-.767l-7.466-5.882V27.733Zm8.833-7.027h3.575V19.491H40.179ZM39.5,18.123h4.942a.684.684,0,0,1,.684.684v.186l6.2-4.977H32.635l6.177,4.867v-.075A.684.684,0,0,1,39.5,18.123Zm-4.353-5.475H48.792l-.281-1.84H35.423Zm-4.48-1.558a.684.684,0,0,1-.684-.684V.684A.684.684,0,0,1,30.662,0h3.768a.684.684,0,0,1,.684.684V2.252H38.2a.684.684,0,0,1,.684.684V4.188h3.085a.684.684,0,0,1,.684.684V7.506a.684.684,0,1,1-1.367,0V5.556h-2.4v1.95a.684.684,0,0,1-1.367,0V3.62h-2.4V7.506a.684.684,0,1,1-1.367,0V1.367h-2.4v9.039A.684.684,0,0,1,30.662,11.09Z" transform="translate(-29.979)" fill="#909ebb"/>
</svg>
