<svg xmlns="http://www.w3.org/2000/svg" width="79.685" height="68.81" viewBox="0 0 79.685 68.81">
  <g id="certificate" transform="translate(0 -34.936)">
    <path id="Контур_8633" data-name="Контур 8633" d="M76.961,34.936H2.724A2.727,2.727,0,0,0,0,37.66v15.5a1.168,1.168,0,0,0,2.335,0V37.66a.39.39,0,0,1,.389-.389H76.961a.39.39,0,0,1,.389.389V94.581a.39.39,0,0,1-.389.389H62V92.541h11.74a1.167,1.167,0,0,0,1.167-1.167V79.151a1.168,1.168,0,0,0-2.335,0V90.207H62V85.028l.112.01a3.571,3.571,0,0,0,3.009-.645,3.585,3.585,0,0,0,.644-3.012,1.771,1.771,0,0,1,.807-1.99c2.059-1.712,2.1-3.545,0-5.288a1.772,1.772,0,0,1-.807-1.99c.228-2.611-.991-3.891-3.653-3.657a1.761,1.761,0,0,1-1.983-.807c-1.709-2.064-3.544-2.1-5.285,0a1.761,1.761,0,0,1-1.983.807c-2.613-.23-3.886,1-3.653,3.657A1.772,1.772,0,0,1,48.4,74.1c-2.059,1.712-2.1,3.545,0,5.288a1.772,1.772,0,0,1,.807,1.99c-.245,2.8,1.091,3.878,3.765,3.647v5.179H7.109V42.034H72.576V79.151a1.168,1.168,0,0,0,2.335,0V40.866A1.167,1.167,0,0,0,73.743,39.7H5.942a1.167,1.167,0,0,0-1.167,1.167V91.374a1.167,1.167,0,0,0,1.167,1.167H52.976V94.97H2.724a.39.39,0,0,1-.389-.389V53.16A1.168,1.168,0,0,0,0,53.16V94.581A2.727,2.727,0,0,0,2.724,97.3H52.976v5.284a1.167,1.167,0,0,0,1.66,1.058l2.854-1.327,2.854,1.327A1.19,1.19,0,0,0,62,102.588V97.3H76.961a2.727,2.727,0,0,0,2.724-2.724V37.66a2.727,2.727,0,0,0-2.724-2.724ZM52.66,82.712c-1.168.1-1.225.04-1.123-1.128A4.027,4.027,0,0,0,49.9,77.6c-.947-.788-.947-.91,0-1.7a4.027,4.027,0,0,0,1.64-3.989c-.1-1.168-.045-1.23,1.123-1.128a4.016,4.016,0,0,0,3.985-1.644c.785-.947.9-.947,1.689,0a4.017,4.017,0,0,0,3.985,1.644c1.169-.1,1.225-.04,1.123,1.128a4.027,4.027,0,0,0,1.64,3.989c.947.788.948.911,0,1.7a4.026,4.026,0,0,0-1.64,3.989c.1,1.168.046,1.231-1.123,1.128a4.877,4.877,0,0,0-2.3.167,4.657,4.657,0,0,0-1.688,1.477,4.316,4.316,0,0,1-.845.863,4.32,4.32,0,0,1-.844-.863,4.657,4.657,0,0,0-1.688-1.477,5.111,5.111,0,0,0-2.3-.167Zm5.322,17.262a1.167,1.167,0,0,0-.985,0l-1.687.785V86.386a2.609,2.609,0,0,0,4.358,0v14.372Z" fill="#707070"/>
    <path id="Контур_8634" data-name="Контур 8634" d="M91.122,130.656H131.36a1.168,1.168,0,0,0,0-2.335H91.122A1.168,1.168,0,0,0,91.122,130.656Z" transform="translate(-75.984 -78.851)" fill="#707070"/>
    <path id="Контур_8635" data-name="Контур 8635" d="M141.7,175.106a1.167,1.167,0,0,0-1.167-1.167H91.122a1.168,1.168,0,0,0,0,2.335h49.41A1.167,1.167,0,0,0,141.7,175.106Z" transform="translate(-75.985 -117.369)" fill="#707070"/>
    <path id="Контур_8636" data-name="Контур 8636" d="M120.362,220.723a1.167,1.167,0,0,0-1.167-1.167H91.122a1.168,1.168,0,0,0,0,2.335h28.072A1.167,1.167,0,0,0,120.362,220.723Z" transform="translate(-75.985 -155.887)" fill="#707070"/>
    <path id="Контур_8637" data-name="Контур 8637" d="M107.474,276.715l-1.909,0c-1.224,0-1.9-.325-2.149-1.624-.228-1.185-1.938-1.034-2.251,0-.139.458-.839,1.769-1.451,1.662-.324-.057-.466-.557-.586-.816a9.955,9.955,0,0,1-.549-1.574c-.614-2.262-.737-4.624-1.122-6.928-.223-1.336-2.26-.959-2.293.31a35.718,35.718,0,0,1-2.2,11.817c-.534,1.406,1.722,2.014,2.251.621a33.006,33.006,0,0,0,1.337-4.475,11.838,11.838,0,0,0,.669,1.623,2.778,2.778,0,0,0,3.56,1.545,3.984,3.984,0,0,0,1.427-1.043c1.1,1.274,2.747,1.216,4.28,1.214q3.466,0,6.932-.015a1.168,1.168,0,0,0,0-2.335q-2.972.008-5.944.013Z" transform="translate(-78.424 -195.609)" fill="#707070"/>
    <path id="Контур_8638" data-name="Контур 8638" d="M344.653,283.4a4.559,4.559,0,1,0-4.559-4.559A4.564,4.564,0,0,0,344.653,283.4Zm0-6.784a2.225,2.225,0,1,1-2.225,2.225A2.227,2.227,0,0,1,344.653,276.62Z" transform="translate(-287.164 -202.099)" fill="#707070"/>
  </g>
</svg>
