<svg id="instagram_1_" data-name="instagram (1)" xmlns="http://www.w3.org/2000/svg" width="40.992" height="41" viewBox="0 0 40.992 41">
  <path id="Контур_6581" data-name="Контур 6581" d="M41.337,12.054a14.981,14.981,0,0,0-.953-4.974,10.5,10.5,0,0,0-6-6A15.02,15.02,0,0,0,29.411.128C27.216.024,26.519,0,20.953,0S14.689.024,12.5.12a14.986,14.986,0,0,0-4.974.953A10,10,0,0,0,3.893,3.444,10.094,10.094,0,0,0,1.53,7.072a15.022,15.022,0,0,0-.953,4.974C.473,14.241.449,14.938.449,20.5s.024,6.263.12,8.45a14.981,14.981,0,0,0,.953,4.974,10.5,10.5,0,0,0,6,6,15.022,15.022,0,0,0,4.974.953c2.186.1,2.883.12,8.45.12s6.263-.024,8.45-.12a14.978,14.978,0,0,0,4.974-.953,10.487,10.487,0,0,0,6-6,15.032,15.032,0,0,0,.953-4.974c.1-2.187.12-2.883.12-8.45s-.008-6.263-.1-8.45Zm-3.692,16.74a11.238,11.238,0,0,1-.7,3.8,6.8,6.8,0,0,1-3.893,3.893,11.278,11.278,0,0,1-3.8.7c-2.163.1-2.811.12-8.282.12s-6.127-.024-8.282-.12a11.232,11.232,0,0,1-3.8-.7,6.309,6.309,0,0,1-2.355-1.53,6.374,6.374,0,0,1-1.53-2.355,11.279,11.279,0,0,1-.7-3.8c-.1-2.163-.12-2.811-.12-8.282s.024-6.127.12-8.282a11.232,11.232,0,0,1,.7-3.8A6.232,6.232,0,0,1,6.528,6.079a6.365,6.365,0,0,1,2.355-1.53,11.285,11.285,0,0,1,3.8-.7c2.163-.1,2.811-.12,8.282-.12s6.127.024,8.282.12a11.238,11.238,0,0,1,3.8.7,6.3,6.3,0,0,1,2.355,1.53,6.373,6.373,0,0,1,1.53,2.355,11.284,11.284,0,0,1,.7,3.8c.1,2.163.12,2.811.12,8.282s-.024,6.111-.12,8.274Zm0,0" transform="translate(-0.449 0)" fill="#fff"/>
  <path id="Контур_6582" data-name="Контур 6582" d="M135.481,124.5a10.532,10.532,0,1,0,10.532,10.532A10.535,10.535,0,0,0,135.481,124.5Zm0,17.364a6.832,6.832,0,1,1,6.832-6.832,6.833,6.833,0,0,1-6.832,6.832Zm0,0" transform="translate(-114.977 -114.528)" fill="#fff"/>
  <path id="Контур_6583" data-name="Контур 6583" d="M367.368,91.061a2.459,2.459,0,1,1-2.459-2.459A2.459,2.459,0,0,1,367.368,91.061Zm0,0" transform="translate(-333.456 -81.505)" fill="#fff"/>
</svg>
