<svg xmlns="http://www.w3.org/2000/svg" width="78.877" height="80.191" viewBox="0 0 78.877 80.191">
  <g id="meeting" transform="translate(-4)">
    <g id="Сгруппировать_6202" data-name="Сгруппировать 6202" transform="translate(4 11.832)">
      <g id="Сгруппировать_6201" data-name="Сгруппировать 6201">
        <path id="Контур_8686" data-name="Контур 8686" d="M77.357,87.882a9.2,9.2,0,1,0-11.316,1.032,6.571,6.571,0,0,0-2.883,5.435v9.2H57.9V96.978a9.211,9.211,0,0,0-8.111-9.131,9.2,9.2,0,1,0-12.7,0,9.211,9.211,0,0,0-8.111,9.131v6.573H23.719v-9.2a6.571,6.571,0,0,0-2.883-5.435A9.207,9.207,0,1,0,9.52,87.882,6.567,6.567,0,0,0,4,94.348v19.719a6.585,6.585,0,0,0,5.258,6.44V140.36h2.629V120.641H23.719v18.4a1.315,1.315,0,0,0,1.315,1.315h7.888a1.315,1.315,0,0,0,1.315-1.315V118.011h7.888v19.719H36.865v2.629H50.011v-2.629H44.753V118.011h7.888v21.034a1.315,1.315,0,0,0,1.315,1.315h7.888a1.315,1.315,0,0,0,1.315-1.315v-18.4H74.989V140.36h2.629V120.508a6.584,6.584,0,0,0,5.258-6.44V94.348A6.567,6.567,0,0,0,77.357,87.882ZM64.472,81.2a6.573,6.573,0,1,1,6.573,6.573A6.581,6.581,0,0,1,64.472,81.2Zm-27.607,0a6.573,6.573,0,1,1,6.573,6.573A6.581,6.581,0,0,1,36.865,81.2Zm8.62,9.2-2.047,5.458L41.392,90.4ZM31.607,96.978A6.581,6.581,0,0,1,38.18,90.4h.4l3.624,9.664a1.315,1.315,0,0,0,2.462,0L48.293,90.4h.4a6.581,6.581,0,0,1,6.573,6.573v6.573H50.011a1.315,1.315,0,0,0-1.315,1.315v5.258H38.18v-5.258a1.315,1.315,0,0,0-1.315-1.315H31.607ZM9.258,81.2a6.573,6.573,0,1,1,6.573,6.573A6.581,6.581,0,0,1,9.258,81.2Zm22.348,56.528H26.348v-18.4a1.315,1.315,0,0,0-1.315-1.315H10.573a3.949,3.949,0,0,1-3.944-3.944V94.348A3.949,3.949,0,0,1,10.573,90.4h6.573a3.949,3.949,0,0,1,3.944,3.944v10.517A1.315,1.315,0,0,0,22.4,106.18H35.551v3.944h-18.4V98.292H14.517v13.146a1.315,1.315,0,0,0,1.315,1.315H27.663a3.949,3.949,0,0,1,3.944,3.944Zm21.181-22.348h-18.7a6.564,6.564,0,0,0-1.17-2.629H53.958A6.564,6.564,0,0,0,52.788,115.382Zm27.46-1.315a3.949,3.949,0,0,1-3.944,3.944H61.843a1.315,1.315,0,0,0-1.315,1.315v18.4H55.27V116.7a3.949,3.949,0,0,1,3.944-3.944H71.045a1.315,1.315,0,0,0,1.315-1.315V98.292H69.731v11.832h-18.4V106.18H64.472a1.315,1.315,0,0,0,1.315-1.315V94.348A3.949,3.949,0,0,1,69.731,90.4H76.3a3.949,3.949,0,0,1,3.944,3.944Z" transform="translate(-4 -72)" fill="#707070"/>
      </g>
    </g>
    <g id="Сгруппировать_6204" data-name="Сгруппировать 6204" transform="translate(42.669 44.065)">
      <g id="Сгруппировать_6203" data-name="Сгруппировать 6203" transform="translate(0 0)">
        <rect id="Прямоугольник_741" data-name="Прямоугольник 741" width="2.698" height="2.698" transform="translate(0 0)" fill="#707070"/>
      </g>
    </g>
    <g id="Сгруппировать_6206" data-name="Сгруппировать 6206" transform="translate(17.146)">
      <g id="Сгруппировать_6205" data-name="Сгруппировать 6205">
        <path id="Контур_8687" data-name="Контур 8687" d="M103.719,0h-18.4A1.315,1.315,0,0,0,84,1.315V7.888A1.315,1.315,0,0,0,85.315,9.2h5.258v2.629a1.315,1.315,0,0,0,2.1,1.052L97.584,9.2h6.135a1.315,1.315,0,0,0,1.315-1.315V1.315A1.315,1.315,0,0,0,103.719,0ZM102.4,6.573H97.146a1.314,1.314,0,0,0-.789.263L93.2,9.2V7.888a1.315,1.315,0,0,0-1.315-1.315H86.629V2.629H102.4Z" transform="translate(-84)" fill="#707070"/>
      </g>
    </g>
    <g id="Сгруппировать_6208" data-name="Сгруппировать 6208" transform="translate(50.762 4.496)">
      <g id="Сгруппировать_6207" data-name="Сгруппировать 6207" transform="translate(0 0)">
        <rect id="Прямоугольник_742" data-name="Прямоугольник 742" width="2.698" height="2.698" fill="#707070"/>
      </g>
    </g>
    <g id="Сгруппировать_6210" data-name="Сгруппировать 6210" transform="translate(55.259 4.496)">
      <g id="Сгруппировать_6209" data-name="Сгруппировать 6209" transform="translate(0 0)">
        <rect id="Прямоугольник_743" data-name="Прямоугольник 743" width="2.698" height="2.698" transform="translate(0)" fill="#707070"/>
      </g>
    </g>
    <g id="Сгруппировать_6212" data-name="Сгруппировать 6212" transform="translate(60.654 4.496)">
      <g id="Сгруппировать_6211" data-name="Сгруппировать 6211" transform="translate(0 0)">
        <rect id="Прямоугольник_744" data-name="Прямоугольник 744" width="2.698" height="2.698" fill="#707070"/>
      </g>
    </g>
  </g>
</svg>
