<svg xmlns="http://www.w3.org/2000/svg" width="79.111" height="79.113" viewBox="0 0 79.111 79.113">
  <g id="money" transform="translate(-0.007)">
    <g id="Сгруппировать_6191" data-name="Сгруппировать 6191" transform="translate(10.514 69.842)">
      <g id="Сгруппировать_6190" data-name="Сгруппировать 6190">
        <path id="Контур_8674" data-name="Контур 8674" d="M70.64,452.454a1.544,1.544,0,1,0,.453,1.092A1.556,1.556,0,0,0,70.64,452.454Z" transform="translate(-68.003 -452.001)"/>
      </g>
    </g>
    <g id="Сгруппировать_6193" data-name="Сгруппировать 6193" transform="translate(69.918 27.814)">
      <g id="Сгруппировать_6192" data-name="Сгруппировать 6192">
        <path id="Контур_8675" data-name="Контур 8675" d="M455.092,180.461a1.541,1.541,0,1,0,.454,1.092A1.553,1.553,0,0,0,455.092,180.461Z" transform="translate(-452.454 -180.008)"/>
      </g>
    </g>
    <g id="Сгруппировать_6195" data-name="Сгруппировать 6195" transform="translate(0.007)">
      <g id="Сгруппировать_6194" data-name="Сгруппировать 6194">
        <path id="Контур_8676" data-name="Контур 8676" d="M78.666.453A1.546,1.546,0,0,0,77.573,0L39.562,0a1.545,1.545,0,0,0-1.545,1.545V5.966L23.371,9.891a1.545,1.545,0,0,0-1.093,1.892l7.591,28.33L23.3,46.679a4.634,4.634,0,0,0-3.826-2.023H4.642A4.641,4.641,0,0,0,.007,49.292V74.478a4.641,4.641,0,0,0,4.635,4.636H19.476a4.643,4.643,0,0,0,4.5-3.52l1.837,1.6a7.785,7.785,0,0,0,5.117,1.918H77.573a1.545,1.545,0,0,0,1.545-1.545V1.545A1.547,1.547,0,0,0,78.666.453ZM21.021,74.478a1.547,1.547,0,0,1-1.545,1.545H4.642A1.547,1.547,0,0,1,3.1,74.478V49.292a1.547,1.547,0,0,1,1.545-1.545h5.872v17.8a1.545,1.545,0,0,0,3.09,0v-17.8h5.872a1.547,1.547,0,0,1,1.545,1.545V74.478Zm4.642-62,12.354-3.31v5.726l-1.036.278a1.545,1.545,0,0,0-1.093,1.892,4.165,4.165,0,0,1-2.942,5.1,1.545,1.545,0,0,0-1.092,1.9l6.023,22.3h-3.1l-1.6-6.252a1.543,1.543,0,0,0-.259-.542Zm12.354,9.5V35.015L35.2,24.58A7.239,7.239,0,0,0,38.017,21.977Zm22.2,54.046H30.929a4.7,4.7,0,0,1-3.086-1.157l-3.731-3.254V50.241L30.857,43.5l1.223,4.787a1.545,1.545,0,0,0,1.5,1.162l30.379,0a2.163,2.163,0,0,1,0,4.326H48.39a1.545,1.545,0,0,0,0,3.09h20.4a2.163,2.163,0,1,1,0,4.326H48.39a1.545,1.545,0,0,0,0,3.09h17.1a2.163,2.163,0,1,1,0,4.326H48.39a1.545,1.545,0,1,0,0,3.09H60.216a2.163,2.163,0,1,1,0,4.326Zm15.812,0H65A5.235,5.235,0,0,0,65,71.7h.485a5.25,5.25,0,0,0,4.7-7.6,5.249,5.249,0,0,0,2.827-8.2V36.313a1.545,1.545,0,1,0-3.09,0V53.9a5.255,5.255,0,0,0-1.126-.123h-.051a5.25,5.25,0,0,0-4.786-7.417H61.472a7.395,7.395,0,1,0-5.81,0H47.216V16.976a7.274,7.274,0,0,0,5.54-5.54H64.379a7.274,7.274,0,0,0,5.54,5.54v4.8a1.545,1.545,0,1,0,3.09,0V15.6a1.545,1.545,0,0,0-1.545-1.545,4.165,4.165,0,0,1-4.16-4.16,1.545,1.545,0,0,0-1.545-1.545H51.376a1.545,1.545,0,0,0-1.545,1.545,4.165,4.165,0,0,1-4.16,4.16A1.545,1.545,0,0,0,44.126,15.6v30.76H41.108V3.092l34.92,0ZM58.568,43.861a4.3,4.3,0,1,1,4.3-4.3A4.309,4.309,0,0,1,58.568,43.861Z" transform="translate(-0.007)" fill="#707070"/>
      </g>
    </g>
  </g>
</svg>
