<svg xmlns="http://www.w3.org/2000/svg" width="79.991" height="79.991" viewBox="0 0 79.991 79.991">
  <g id="Outline" transform="translate(-10.684 -16)">
    <path id="Контур_8685" data-name="Контур 8685" d="M93.324,70.66H48v-7.6l.777,1.165a8.452,8.452,0,0,0,14.421-.583l4.632-8.337c.006-.01.01-.021.016-.032s.008-.012.011-.019l.928-1.855A4.91,4.91,0,1,0,60,49.011l-1.171,2.342L56,56.071l-1.3-2.172a6.7,6.7,0,0,0-5.716-3.236h-4.6a10.641,10.641,0,0,0,3.622-8V34.593a4.663,4.663,0,0,0-3.333-7.927H33.331a6.673,6.673,0,0,0-6.666,6.666v9.332a10.641,10.641,0,0,0,3.623,8H28a6.659,6.659,0,0,0-4.41,1.666l1.765,2a3.993,3.993,0,0,1,2.645-1h5.7l.939,2.817-1.3,13.048a1.333,1.333,0,0,0,.383,1.075l.391.39H30.665v-12H28v12H24V57.329a3.978,3.978,0,0,1,.27-1.45l-2.485-.967a6.635,6.635,0,0,0-.452,2.416V70.66H18.666V33.331H16V74.66a8.008,8.008,0,0,0,8,8H47.538l-3.2,10.665H40v2.666h32V93.324H67.653l-2.716-9.054-2.554.767,2.487,8.287H47.121l3.2-10.665H87.992a8.008,8.008,0,0,0,8-8V63.994H93.324ZM62.382,50.2h0A2.244,2.244,0,1,1,66.4,52.211l-.379.758-3.345-1.338-.836-.334ZM48.977,53.329a4.019,4.019,0,0,1,3.429,1.942l2.446,4.077a1.333,1.333,0,0,0,2.286,0l3.415-5.692,4.207,1.683-3.9,7.014a5.786,5.786,0,0,1-9.872.4l-3.219-4.829a1.333,1.333,0,0,0-2.442.739v12h-4.78l.39-.39a1.333,1.333,0,0,0,.383-1.075l-1.3-13.048.94-2.817Zm-19.645-20a4,4,0,0,1,4-4H44.663a2,2,0,1,1,0,4H32a1.333,1.333,0,0,0-.943.39l-1.724,1.724Zm0,9.332V39.216L32.55,36s12.562-.017,12.78-.048v6.714a8,8,0,0,1-16,0Zm7.931,12.91-.748-2.245h1.633L37.4,55.574a1.336,1.336,0,0,0-.062.554l1.27,12.7-1.277,1.277-1.277-1.277,1.27-12.7A1.336,1.336,0,0,0,37.263,55.574ZM93.324,74.66a5.339,5.339,0,0,1-5.333,5.333H24a5.339,5.339,0,0,1-5.333-5.333V73.327H93.324ZM95.991,24v40H93.324V24a5.339,5.339,0,0,0-5.333-5.333H24A5.339,5.339,0,0,0,18.666,24v9.332H16V24a8.008,8.008,0,0,1,8-8H87.992a8.008,8.008,0,0,1,8,8Zm-33,6.423-1.535-2.18a16.029,16.029,0,0,0-6.8,13.089A15.82,15.82,0,0,0,56.408,48.6l2.374-1.215A13.127,13.127,0,0,1,57.4,42.664h10.96a2.66,2.66,0,0,0,4.611,0H83.925a13.35,13.35,0,0,1-13.265,12c-.4,0-.813-.018-1.214-.054l-.239,2.656c.48.043.969.065,1.453.065a16,16,0,1,0-7.273-30.251L64.6,29.452a13.367,13.367,0,0,1,10.8-.585l-4.9,9.805A2.666,2.666,0,0,0,68.355,40H57.4a13.365,13.365,0,0,1,5.6-9.575Zm14.791-.361A13.24,13.24,0,0,1,83.925,40H72.966c-.026-.045-.052-.09-.081-.133ZM75.993,45.33V48H73.327V45.33Zm10.665-20H83.992V22.666h2.666Zm-1.333,36H79.993V58.662h5.333Zm-8-2.666v2.666H74.66V58.662ZM74.66,63.994H85.325v2.666H74.66ZM25.332,24H22.666V21.333h2.666Zm5.333,0H28V21.333h2.666ZM36,21.333V24H33.331V21.333ZM34,42.664a2,2,0,1,1,2-2,2,2,0,0,1-2,2Zm4.666-2a2,2,0,1,1,2,2,2,2,0,0,1-2-2Zm-1.333,7.211A5,5,0,0,1,33.7,46.318l1.921-1.849a2.338,2.338,0,0,0,3.411,0l1.921,1.849a5,5,0,0,1-3.627,1.556Z" transform="translate(-5.316)" fill="#707070"/>
  </g>
</svg>
