<svg xmlns="http://www.w3.org/2000/svg" width="80.018" height="80.018" viewBox="0 0 80.018 80.018">
  <g id="team" transform="translate(-5)">
    <path id="Контур_8684" data-name="Контур 8684" d="M78.846,65.835c.647,0,1.172,1.819,1.172,1.172V59.736a7.476,7.476,0,0,0-5.146-7.113l-7.326-2.411V47.675a8.753,8.753,0,0,0,4.263-7.508V35.115a8.746,8.746,0,0,0-15.72-5.282,7.446,7.446,0,0,0-4.266-3.575L44.5,23.847V21.31A8.753,8.753,0,0,0,48.759,13.8V8.75a8.75,8.75,0,1,0-17.5,0V13.8a8.753,8.753,0,0,0,4.263,7.508v2.537L28.2,26.258a7.447,7.447,0,0,0-4.267,3.575A8.746,8.746,0,0,0,8.21,35.115v5.052a8.753,8.753,0,0,0,4.263,7.508v2.537L5.145,52.623A7.475,7.475,0,0,0,0,59.736v7.272c0,.647.525-1.172,1.172-1.172s1.172,1.819,1.172,1.172V59.736a5.136,5.136,0,0,1,3.534-4.886l6.863-2.258a4.488,4.488,0,0,0,8.437,0l6.862,2.258a5.128,5.128,0,0,1,3.209,3.085l-3.052,1a7.473,7.473,0,0,0-5.147,7.112v1.362H8.975V64.479a1.172,1.172,0,0,0-2.344,0v2.933H2.344v-.4a1.172,1.172,0,0,0-2.344,0v1.577a1.172,1.172,0,0,0,1.172,1.172H23.049v9.09a1.172,1.172,0,0,0,1.172,1.172H55.8a1.172,1.172,0,0,0,1.172-1.172V77.28a1.172,1.172,0,1,0-2.344,0v.394H50.338V70.795a1.172,1.172,0,0,0-2.344,0v6.879H32.025V70.795a1.172,1.172,0,0,0-2.344,0v6.879H25.394V66.05a5.133,5.133,0,0,1,3.535-4.885l6.862-2.258a4.488,4.488,0,0,0,8.437,0l6.862,2.258a5.133,5.133,0,0,1,3.535,4.885V77.28c0,.647.524-1.172,1.172-1.172s1.172,1.819,1.172,1.172V69.757H78.846a1.172,1.172,0,0,0,1.172-1.172V67.008a1.172,1.172,0,1,0-2.344,0v.4H73.388V64.48a1.172,1.172,0,1,0-2.344,0v2.933H56.969V66.05a7.473,7.473,0,0,0-5.147-7.112l-3.052-1a5.129,5.129,0,0,1,3.208-3.084l6.862-2.258a4.488,4.488,0,0,0,8.437,0l6.862,2.258a5.135,5.135,0,0,1,3.535,4.886v7.272c0,.647.525-1.172,1.172-1.172ZM63.059,28.709a6.413,6.413,0,0,1,6.406,6.406v5.052a6.406,6.406,0,1,1-12.812,0V35.115a6.413,6.413,0,0,1,6.406-6.406ZM33.6,13.8V8.75a6.406,6.406,0,1,1,12.812,0V13.8a6.406,6.406,0,0,1-12.812,0Zm6.406,8.75a8.734,8.734,0,0,0,2.143-.266v2.378c0,.011,0,.022,0,.033a2.143,2.143,0,0,1-4.286,0c0-.011,0-.022,0-.033V22.286A8.738,8.738,0,0,0,40.009,22.552Zm-11.08,5.933,6.861-2.259a4.488,4.488,0,0,0,8.437,0l6.862,2.259a5.1,5.1,0,0,1,3.508,4.4,8.728,8.728,0,0,0-.289,2.23v5.052a8.8,8.8,0,0,0,.044.88h-5.6a8.749,8.749,0,0,0-17.481,0h-5.6a8.8,8.8,0,0,0,.044-.88V35.115a8.729,8.729,0,0,0-.289-2.23A5.106,5.106,0,0,1,28.929,28.485Zm11.08,24.4A6.413,6.413,0,0,1,33.6,46.482V41.43a6.406,6.406,0,1,1,12.812,0v5.052A6.413,6.413,0,0,1,40.009,52.888ZM10.554,40.167V35.115a6.406,6.406,0,1,1,12.812,0v5.052a6.406,6.406,0,1,1-12.812,0ZM19.1,51.06a2.143,2.143,0,0,1-4.286,0v-2.41a8.752,8.752,0,0,0,4.286,0Zm9.67,1.562-7.326-2.411V47.675a8.8,8.8,0,0,0,3.644-4.284h6.168v3.091a8.753,8.753,0,0,0,4.263,7.508v2.537l-2.047.674a7.465,7.465,0,0,0-4.7-4.578Zm11.236,6.9a2.146,2.146,0,0,1-2.143-2.143v-2.41a8.753,8.753,0,0,0,4.287,0v2.41A2.146,2.146,0,0,1,40.009,59.519Zm11.236-6.9a7.464,7.464,0,0,0-4.7,4.578L44.5,56.527V53.99a8.753,8.753,0,0,0,4.263-7.508V43.391h6.168a8.8,8.8,0,0,0,3.644,4.284v2.537Zm11.814.581a2.146,2.146,0,0,1-2.143-2.143v-2.41a8.752,8.752,0,0,0,4.286,0v2.41A2.146,2.146,0,0,1,63.059,53.2Z" transform="translate(5)" fill="#707070"/>
  </g>
</svg>
