<svg xmlns="http://www.w3.org/2000/svg" width="41.197" height="34.855" viewBox="0 0 41.197 34.855">
  <path id="telegram" d="M40.561.954A2.675,2.675,0,0,0,38.438,0a4.163,4.163,0,0,0-1.481.295L2.084,13.607C.234,14.313-.015,15.373,0,15.942s.325,1.613,2.213,2.214l.034.01,7.234,2.07,3.912,11.186a3.377,3.377,0,0,0,3.125,2.472,3.7,3.7,0,0,0,2.5-1.065l4.474-4.12,6.49,5.225,0,0,.062.05.017.014a3.746,3.746,0,0,0,2.278.855h0a3.2,3.2,0,0,0,3.048-2.834L41.1,3.808A3.37,3.37,0,0,0,40.561.954ZM11.9,19.842l13.956-7.13-8.69,9.234a1.2,1.2,0,0,0-.293.538L15.2,29.271Zm5.482,11.211c-.058.053-.116.1-.174.144l1.555-6.3,2.828,2.277ZM38.737,3.329,33.023,31.543c-.055.27-.231.9-.682.9a1.407,1.407,0,0,1-.79-.343L24.2,26.177l0,0-4.376-3.523L32.384,9.3a1.207,1.207,0,0,0-1.428-1.9L10.288,17.956l-7.332-2.1L37.818,2.55a1.77,1.77,0,0,1,.62-.136c.074,0,.205.009.254.069a1.151,1.151,0,0,1,.045.846Zm0,0" transform="translate(0)" fill="#fff"/>
</svg>
