<svg xmlns="http://www.w3.org/2000/svg" width="41.181" height="33.808" viewBox="0 0 41.181 33.808">
  <path id="twitter" d="M.729,32.323A24.149,24.149,0,0,0,13.695,36.06,23.867,23.867,0,0,0,31.19,28.727,23.794,23.794,0,0,0,37.751,11.95c1.633-1.4,3.554-4.066,3.554-6.667a1.3,1.3,0,0,0-1.959-1.122,5.378,5.378,0,0,1-4.373.733,9.287,9.287,0,0,0-11-1.481,8.935,8.935,0,0,0-4.851,8.375A21.548,21.548,0,0,1,5.145,4.154a1.3,1.3,0,0,0-2.126.173,9.063,9.063,0,0,0-.2,8.95,1.353,1.353,0,0,0-1.13,1.347,9.172,9.172,0,0,0,3.2,6.927A1.3,1.3,0,0,0,4.549,22.9a9.335,9.335,0,0,0,5.283,5.659,15.14,15.14,0,0,1-8.246,1.377,1.3,1.3,0,0,0-.857,2.388ZM14.05,29a1.3,1.3,0,0,0-.765-2.33A6.783,6.783,0,0,1,7.959,23.9a9.172,9.172,0,0,0,1.776-.284,1.3,1.3,0,0,0-.083-2.53,6.675,6.675,0,0,1-5.058-4.543,8.974,8.974,0,0,0,1.984.264,1.3,1.3,0,0,0,.74-2.386A6.461,6.461,0,0,1,4.55,7.371,24.176,24.176,0,0,0,20.566,14.52a1.3,1.3,0,0,0,1.33-1.59A6.345,6.345,0,0,1,25.208,5.7a6.649,6.649,0,0,1,8.128,1.235c.775.817,3.39.848,4.72.538a8.381,8.381,0,0,1-2.372,2.79,1.3,1.3,0,0,0-.553,1.129,21.144,21.144,0,0,1-5.822,15.536A21.3,21.3,0,0,1,13.7,33.457,21.837,21.837,0,0,1,6.69,32.309,17.56,17.56,0,0,0,14.05,29Z" transform="translate(-0.124 -2.251)" fill="#fff"/>
</svg>
