<svg xmlns="http://www.w3.org/2000/svg" width="44" height="96.212" viewBox="0 0 44 96.212">
  <g id="Сгруппировать_6161" data-name="Сгруппировать 6161" transform="translate(-1210 -850.788)">
    <text id="Метро" transform="translate(1232 943)" fill="#334059" font-size="14" font-family="RobotoCondensed-Bold, Roboto" font-weight="700"><tspan x="-18.785" y="0">Метро</tspan></text>
    <path id="_1545965" data-name="1545965" d="M34.977,28.875v-.081L33.632,14.559A6.875,6.875,0,0,0,26.781,8.25H17.288a6.875,6.875,0,0,0-6.852,6.309L9.092,28.794v.081a5.163,5.163,0,0,0,4.891,5.15L4.972,44H9.6l2.95-3.266H31.407L34.357,44h4.628l-9.008-9.973A5.162,5.162,0,0,0,34.977,28.875ZM13.861,14.848a3.456,3.456,0,0,1,3.426-3.161H18.2v2.664h7.663V11.688h.915a3.456,3.456,0,0,1,3.426,3.161l.5,5.347H13.357l.5-5.323Zm-1.33,14.094.5-5.309h18l.5,5.309a1.721,1.721,0,0,1-1.717,1.652H14.248A1.721,1.721,0,0,1,12.531,28.942ZM15.655,37.3l2.95-3.265h6.747L28.3,37.3ZM14.25,27.156a1.719,1.719,0,1,1,1.719,1.719A1.719,1.719,0,0,1,14.25,27.156Zm12.046,0a1.719,1.719,0,1,1,1.719,1.719A1.719,1.719,0,0,1,26.3,27.156ZM44,22a21.915,21.915,0,0,1-6.317,15.423l-2.3-2.55A18.566,18.566,0,1,0,3.438,22,18.446,18.446,0,0,0,8.593,34.85l-2.3,2.55A21.919,21.919,0,0,1,0,22,22,22,0,0,1,37.556,6.444,21.856,21.856,0,0,1,44,22Zm0,0" transform="translate(1210 850.788)" fill="#909ebb"/>
  </g>
</svg>
