<svg xmlns="http://www.w3.org/2000/svg" width="104" height="96.212" viewBox="0 0 104 96.212">
  <g id="Сгруппировать_6162" data-name="Сгруппировать 6162" transform="translate(-1361 -850.788)">
    <text id="Канатные_дороги" data-name="Канатные дороги" transform="translate(1413 943)" fill="#334059" font-size="14" font-family="RobotoCondensed-Bold, Roboto" font-weight="700"><tspan x="-51.27" y="0">Канатные дороги</tspan></text>
    <path id="_1545866" data-name="1545866" d="M44,0H0V3.438H20.637L13.124,9.281l7.623,5.93H7.91a5.126,5.126,0,0,0-5.032,4.032L0,32.123v6.721A5.162,5.162,0,0,0,5.156,44H38.844A5.162,5.162,0,0,0,44,38.844V32.3L41.118,19.255a5.157,5.157,0,0,0-5.035-4.044H23.253l7.623-5.93L23.363,3.438H44ZM23.719,29.906V18.648h6.016V29.906Zm-3.437,0H14.266V18.648h6.016ZM6.233,19.992A1.709,1.709,0,0,1,7.91,18.648h2.918V29.906H4.018Zm32.611,20.57H5.156a1.721,1.721,0,0,1-1.719-1.719v-5.5H40.563v5.5A1.721,1.721,0,0,1,38.844,40.563ZM37.761,20l2.19,9.91H33.172V18.648h2.911A1.708,1.708,0,0,1,37.761,20ZM22,11.83,18.723,9.281,22,6.732l3.277,2.549Zm0,0" transform="translate(1391 850.788)" fill="#909ebb"/>
  </g>
</svg>
