<svg xmlns="http://www.w3.org/2000/svg" width="52" height="96.212" viewBox="0 0 52 96.212">
  <g id="Сгруппировать_6157" data-name="Сгруппировать 6157" transform="translate(-482 -850.788)">
    <text id="Трамвай" transform="translate(508 943)" fill="#334059" font-size="14" font-family="RobotoCondensed-Bold, Roboto" font-weight="700"><tspan x="-25.484" y="0">Трамвай</tspan></text>
    <path id="_1545933" data-name="1545933" d="M20.426,8.508H13.98V3.438h6.445a1.721,1.721,0,0,1,1.719,1.719h3.438A5.162,5.162,0,0,0,20.426,0H3.926A5.162,5.162,0,0,0-1.23,5.156H2.207A1.721,1.721,0,0,1,3.926,3.438h6.617v5.07H3.926A8.6,8.6,0,0,0-4.668,17.1V36.266A5.162,5.162,0,0,0,.488,41.422H.931L-1.393,44H3.235L5.56,41.422H18.792L21.117,44h4.628l-2.324-2.578h.443a5.162,5.162,0,0,0,5.156-5.156V17.1A8.6,8.6,0,0,0,20.426,8.508ZM25.582,17.1v7.047H20.77V11.958A5.162,5.162,0,0,1,25.582,17.1ZM7.02,11.945H17.332v12.2H7.02Zm-3.437.013v12.19H-1.23V17.1A5.162,5.162,0,0,1,3.582,11.958ZM23.863,37.984H.488A1.721,1.721,0,0,1-1.23,36.266v-8.68H25.582v8.68A1.721,1.721,0,0,1,23.863,37.984Zm-19.078-4.3a1.719,1.719,0,1,1-1.719-1.719A1.719,1.719,0,0,1,4.785,33.688Zm18.133,0A1.719,1.719,0,1,1,21.2,31.969,1.719,1.719,0,0,1,22.918,33.688Zm0,0" transform="translate(495.668 850.788)" fill="#909ebb"/>
  </g>
</svg>
