<svg xmlns="http://www.w3.org/2000/svg" width="139.283" height="30.373" viewBox="0 0 139.283 30.373">
  <g id="Сгруппировать_1515" data-name="Сгруппировать 1515" transform="translate(0 0)" style="isolation: isolate">
    <path id="Контур_2798" data-name="Контур 2798" d="M69,178.4V156.158H208.283V178.4Z" transform="translate(-69 -156.158)" fill="#6c2866" fill-rule="evenodd"/>
    <path id="Контур_2799" data-name="Контур 2799" d="M90.933,183.432a.1.1,0,0,1-.036.078.247.247,0,0,1-.11.04,1.444,1.444,0,0,1-.224.013,1.463,1.463,0,0,1-.23-.013.212.212,0,0,1-.1-.04.106.106,0,0,1-.03-.078v-.25a1.42,1.42,0,0,1-.44.324,1.29,1.29,0,0,1-.551.116,1.515,1.515,0,0,1-.459-.065,1.022,1.022,0,0,1-.362-.193.85.85,0,0,1-.238-.318,1.073,1.073,0,0,1-.084-.443,1.013,1.013,0,0,1,.106-.477.885.885,0,0,1,.32-.334,1.605,1.605,0,0,1,.529-.2,3.822,3.822,0,0,1,.735-.063h.306v-.19a.977.977,0,0,0-.03-.258.424.424,0,0,0-.1-.184.411.411,0,0,0-.183-.109.933.933,0,0,0-.283-.035,1.45,1.45,0,0,0-.4.049,2.065,2.065,0,0,0-.306.109c-.089.04-.164.076-.224.108a.322.322,0,0,1-.146.049.1.1,0,0,1-.069-.025.18.18,0,0,1-.049-.071.486.486,0,0,1-.03-.111.915.915,0,0,1-.01-.149.672.672,0,0,1,.016-.171.282.282,0,0,1,.068-.114.608.608,0,0,1,.171-.114,2.032,2.032,0,0,1,.289-.114,2.666,2.666,0,0,1,.361-.087,2.339,2.339,0,0,1,.4-.033,2.4,2.4,0,0,1,.631.072,1.067,1.067,0,0,1,.431.222.86.86,0,0,1,.246.386,1.794,1.794,0,0,1,.078.558v2.11Zm-.869-1.344h-.338a1.866,1.866,0,0,0-.366.032.711.711,0,0,0-.245.094.407.407,0,0,0-.14.154.478.478,0,0,0-.043.2.389.389,0,0,0,.125.31A.489.489,0,0,0,89.4,183a.652.652,0,0,0,.344-.094,1.466,1.466,0,0,0,.318-.279v-.535Zm5.092,2.48a.086.086,0,0,1-.018.055.122.122,0,0,1-.062.039.628.628,0,0,1-.119.026c-.048,0-.108.009-.18.009s-.138,0-.188-.009a.592.592,0,0,1-.119-.026.126.126,0,0,1-.063-.039.086.086,0,0,1-.018-.055V183a.205.205,0,0,1,.036-.143.189.189,0,0,1,.136-.038h.173a2.343,2.343,0,0,0,.211-.333,2.811,2.811,0,0,0,.184-.462,5.87,5.87,0,0,0,.159-.661c.048-.257.092-.565.136-.924a.5.5,0,0,1,.023-.114.252.252,0,0,1,.043-.087.187.187,0,0,1,.072-.053.3.3,0,0,1,.108-.018h1.937a.231.231,0,0,1,.186.073.327.327,0,0,1,.06.212v2.366h.359a.205.205,0,0,1,.135.038.194.194,0,0,1,.04.143v1.572a.092.092,0,0,1-.016.055.14.14,0,0,1-.064.039.605.605,0,0,1-.12.026c-.049,0-.11.009-.185.009s-.134,0-.183-.009a.536.536,0,0,1-.117-.026.135.135,0,0,1-.064-.039.081.081,0,0,1-.019-.055v-1.027H95.156v1.027Zm1.808-3.7h-.749c-.04.295-.085.55-.131.762a5.443,5.443,0,0,1-.148.547,2.14,2.14,0,0,1-.163.377,2.84,2.84,0,0,1-.17.258h1.361v-1.944Zm7.784,1.629a1.049,1.049,0,0,1-.1.474.845.845,0,0,1-.3.34,1.556,1.556,0,0,1-.51.206,3.225,3.225,0,0,1-.721.071h-.255c-.079,0-.154,0-.229-.006s-.147-.005-.221-.011-.153-.011-.237-.02a.327.327,0,0,1-.236-.1.385.385,0,0,1-.071-.253v-2.7a.384.384,0,0,1,.066-.244.3.3,0,0,1,.2-.1c.059-.005.126-.01.2-.015s.16-.009.249-.012.181-.008.278-.01l.291,0a3.465,3.465,0,0,1,.649.051,1.406,1.406,0,0,1,.45.161.7.7,0,0,1,.264.265.747.747,0,0,1,.086.367.733.733,0,0,1-.152.475.765.765,0,0,1-.438.257.929.929,0,0,1,.545.272.772.772,0,0,1,.189.54Zm-.97-1.386a.4.4,0,0,0-.033-.169.29.29,0,0,0-.107-.124.557.557,0,0,0-.2-.078,1.436,1.436,0,0,0-.295-.027c-.089,0-.173,0-.251.008s-.148.011-.2.018v.791h.474a.816.816,0,0,0,.457-.107.356.356,0,0,0,.155-.311Zm.091,1.381a.481.481,0,0,0-.036-.2.314.314,0,0,0-.122-.14.608.608,0,0,0-.226-.084,1.844,1.844,0,0,0-.332-.026h-.46v.9l.117.012.125.009.124.006h.111a1.283,1.283,0,0,0,.32-.034.594.594,0,0,0,.216-.1.382.382,0,0,0,.124-.154.51.51,0,0,0,.038-.2Zm7.661-.675a2.424,2.424,0,0,1-.106.732,1.538,1.538,0,0,1-.32.569,1.412,1.412,0,0,1-.538.37,2.013,2.013,0,0,1-.755.13,2.078,2.078,0,0,1-.728-.116,1.306,1.306,0,0,1-.513-.338,1.394,1.394,0,0,1-.3-.545,2.5,2.5,0,0,1-.1-.738,2.4,2.4,0,0,1,.107-.733,1.562,1.562,0,0,1,.321-.569,1.45,1.45,0,0,1,.537-.368,1.98,1.98,0,0,1,.755-.131,2.141,2.141,0,0,1,.731.114,1.292,1.292,0,0,1,.511.336,1.413,1.413,0,0,1,.3.545,2.557,2.557,0,0,1,.1.742Zm-.911.036a2.2,2.2,0,0,0-.037-.428.981.981,0,0,0-.124-.34.622.622,0,0,0-.235-.225.755.755,0,0,0-.368-.081.774.774,0,0,0-.344.072.632.632,0,0,0-.243.211,1.033,1.033,0,0,0-.143.334,1.929,1.929,0,0,0-.046.445,2.211,2.211,0,0,0,.038.428,1.064,1.064,0,0,0,.125.34.591.591,0,0,0,.234.223.756.756,0,0,0,.365.079.792.792,0,0,0,.349-.073.624.624,0,0,0,.242-.209.99.99,0,0,0,.14-.332,1.98,1.98,0,0,0,.046-.444Zm7.487,1.6a.065.065,0,0,1-.019.047.141.141,0,0,1-.069.032.909.909,0,0,1-.136.019c-.057.005-.13.008-.215.008s-.179,0-.243-.008a1.18,1.18,0,0,1-.151-.019.161.161,0,0,1-.08-.036.2.2,0,0,1-.04-.06l-.291-.749a1.357,1.357,0,0,0-.114-.254.635.635,0,0,0-.136-.163.448.448,0,0,0-.169-.088.781.781,0,0,0-.218-.026h-.18v1.28a.065.065,0,0,1-.024.048.239.239,0,0,1-.078.04.614.614,0,0,1-.137.026,1.81,1.81,0,0,1-.2.01,1.893,1.893,0,0,1-.208-.01.652.652,0,0,1-.137-.026.228.228,0,0,1-.075-.04.067.067,0,0,1-.023-.048v-3.175a.065.065,0,0,1,.023-.048.2.2,0,0,1,.075-.039.739.739,0,0,1,.137-.025,1.919,1.919,0,0,1,.208-.009,1.836,1.836,0,0,1,.2.009.691.691,0,0,1,.137.025.2.2,0,0,1,.078.039.063.063,0,0,1,.024.048v1.22h.18a.669.669,0,0,0,.2-.027.416.416,0,0,0,.16-.087.684.684,0,0,0,.134-.164,1.528,1.528,0,0,0,.118-.253l.264-.676a.148.148,0,0,1,.035-.061.16.16,0,0,1,.076-.042.628.628,0,0,1,.14-.022c.06-.005.139-.008.238-.008s.156,0,.212.008a.7.7,0,0,1,.13.02.136.136,0,0,1,.064.033.065.065,0,0,1,.018.048.3.3,0,0,1-.014.084,1.124,1.124,0,0,1-.049.134l-.25.6a1.7,1.7,0,0,1-.156.3,1.172,1.172,0,0,1-.169.206.946.946,0,0,1-.174.131,1.141,1.141,0,0,1-.168.076v.008c.072.03.14.064.2.1a.811.811,0,0,1,.18.137,1.12,1.12,0,0,1,.165.21,2.322,2.322,0,0,1,.158.3l.3.7a.843.843,0,0,1,.034.079c.007.021.015.042.019.06a.364.364,0,0,1,.01.043c0,.012,0,.024,0,.032Zm6.127-.025a.1.1,0,0,1-.036.078.246.246,0,0,1-.11.04,2,2,0,0,1-.453,0,.212.212,0,0,1-.1-.04.11.11,0,0,1-.03-.078v-.25a1.419,1.419,0,0,1-.44.324,1.287,1.287,0,0,1-.551.116,1.52,1.52,0,0,1-.459-.065,1.022,1.022,0,0,1-.362-.193.873.873,0,0,1-.238-.318,1.091,1.091,0,0,1-.084-.443,1,1,0,0,1,.107-.477.876.876,0,0,1,.32-.334,1.6,1.6,0,0,1,.528-.2,3.83,3.83,0,0,1,.735-.063h.306v-.19a.977.977,0,0,0-.03-.258.424.424,0,0,0-.1-.184.413.413,0,0,0-.182-.109.941.941,0,0,0-.284-.035,1.45,1.45,0,0,0-.4.049,2.109,2.109,0,0,0-.306.109c-.089.04-.164.076-.223.108a.326.326,0,0,1-.147.049.1.1,0,0,1-.069-.025.18.18,0,0,1-.049-.071.551.551,0,0,1-.03-.111.917.917,0,0,1-.01-.149.664.664,0,0,1,.017-.171.259.259,0,0,1,.068-.114.592.592,0,0,1,.171-.114,1.936,1.936,0,0,1,.289-.114,2.65,2.65,0,0,1,.36-.087,2.348,2.348,0,0,1,.4-.033,2.4,2.4,0,0,1,.631.072,1.059,1.059,0,0,1,.431.222.851.851,0,0,1,.246.386,1.8,1.8,0,0,1,.078.558v2.11Zm-.869-1.344h-.338a1.874,1.874,0,0,0-.366.032.71.71,0,0,0-.245.094.4.4,0,0,0-.139.154.463.463,0,0,0-.044.2.389.389,0,0,0,.125.31.49.49,0,0,0,.345.113.649.649,0,0,0,.344-.094,1.466,1.466,0,0,0,.318-.279v-.535Zm6.984-1.532a1.586,1.586,0,0,1-.01.193.48.48,0,0,1-.026.123.128.128,0,0,1-.043.063.106.106,0,0,1-.059.018h-.792v2.468a.1.1,0,0,1-.02.062.164.164,0,0,1-.071.044.558.558,0,0,1-.135.026,2.008,2.008,0,0,1-.216.01,1.929,1.929,0,0,1-.211-.01.616.616,0,0,1-.136-.026.154.154,0,0,1-.07-.044.1.1,0,0,1-.019-.062v-2.468h-.791a.112.112,0,0,1-.062-.019.139.139,0,0,1-.043-.065.5.5,0,0,1-.027-.126c-.005-.055-.01-.12-.01-.2a1.355,1.355,0,0,1,.011-.178.563.563,0,0,1,.029-.117.123.123,0,0,1,.042-.065.094.094,0,0,1,.06-.02h2.461a.1.1,0,0,1,.059.02.131.131,0,0,1,.043.065.472.472,0,0,1,.026.121,1.482,1.482,0,0,1,.01.184Zm5.733,2.366a1.517,1.517,0,0,1-.006.153c0,.041-.009.076-.013.1a.4.4,0,0,1-.021.069.256.256,0,0,1-.055.066.832.832,0,0,1-.145.1,1.4,1.4,0,0,1-.231.1,1.767,1.767,0,0,1-.284.075,1.687,1.687,0,0,1-.314.028,1.717,1.717,0,0,1-.643-.113,1.215,1.215,0,0,1-.469-.332,1.446,1.446,0,0,1-.285-.537,2.447,2.447,0,0,1-.1-.723,2.533,2.533,0,0,1,.118-.815,1.578,1.578,0,0,1,.329-.567,1.307,1.307,0,0,1,.5-.334,1.768,1.768,0,0,1,.632-.109,1.476,1.476,0,0,1,.276.026,1.56,1.56,0,0,1,.253.065,1.381,1.381,0,0,1,.211.1.752.752,0,0,1,.132.091.347.347,0,0,1,.055.066.191.191,0,0,1,.025.067.934.934,0,0,1,.015.1c0,.041,0,.091,0,.15a.845.845,0,0,1-.034.287c-.025.054-.055.081-.091.081a.213.213,0,0,1-.128-.049c-.045-.032-.1-.069-.159-.108a1.084,1.084,0,0,0-.218-.109.827.827,0,0,0-.3-.049.6.6,0,0,0-.528.266,1.376,1.376,0,0,0-.182.779,1.927,1.927,0,0,0,.045.446.942.942,0,0,0,.136.324.558.558,0,0,0,.224.2.713.713,0,0,0,.315.065.831.831,0,0,0,.316-.055,1.169,1.169,0,0,0,.228-.121,1.943,1.943,0,0,0,.166-.121.191.191,0,0,1,.112-.055.082.082,0,0,1,.054.017.138.138,0,0,1,.033.065.823.823,0,0,1,.019.121,1.842,1.842,0,0,1,.007.19Zm6.516.535a.065.065,0,0,1-.019.047.141.141,0,0,1-.069.032.931.931,0,0,1-.136.019c-.058.005-.13.008-.215.008s-.179,0-.243-.008a1.18,1.18,0,0,1-.151-.019.161.161,0,0,1-.08-.036.178.178,0,0,1-.04-.06l-.291-.749a1.353,1.353,0,0,0-.115-.254.632.632,0,0,0-.135-.163.448.448,0,0,0-.169-.088.786.786,0,0,0-.218-.026h-.18v1.28a.064.064,0,0,1-.024.048.238.238,0,0,1-.078.04.614.614,0,0,1-.137.026,1.81,1.81,0,0,1-.2.01,1.893,1.893,0,0,1-.208-.01.653.653,0,0,1-.137-.026.229.229,0,0,1-.075-.04.067.067,0,0,1-.022-.048v-3.175a.065.065,0,0,1,.022-.048.2.2,0,0,1,.075-.039.739.739,0,0,1,.137-.025,1.92,1.92,0,0,1,.208-.009,1.836,1.836,0,0,1,.2.009.691.691,0,0,1,.137.025.2.2,0,0,1,.078.039.063.063,0,0,1,.024.048v1.22h.18a.668.668,0,0,0,.2-.027.416.416,0,0,0,.16-.087.683.683,0,0,0,.134-.164,1.524,1.524,0,0,0,.118-.253l.263-.676a.164.164,0,0,1,.036-.061.16.16,0,0,1,.076-.042.627.627,0,0,1,.14-.022c.06-.005.139-.008.237-.008s.158,0,.213.008a.717.717,0,0,1,.13.02.136.136,0,0,1,.064.033.065.065,0,0,1,.018.048.3.3,0,0,1-.014.084,1.127,1.127,0,0,1-.049.134l-.25.6a1.705,1.705,0,0,1-.156.3,1.222,1.222,0,0,1-.169.206.943.943,0,0,1-.174.131,1.143,1.143,0,0,1-.168.076v.008a2.246,2.246,0,0,1,.2.1.791.791,0,0,1,.181.137,1.115,1.115,0,0,1,.165.21,2.321,2.321,0,0,1,.158.3l.3.7c.014.03.026.057.034.079a1.1,1.1,0,0,1,.029.1c0,.012,0,.024,0,.032Zm6.593-1.635a2.425,2.425,0,0,1-.1.732,1.554,1.554,0,0,1-.32.569,1.421,1.421,0,0,1-.538.37,2.023,2.023,0,0,1-.757.13,2.078,2.078,0,0,1-.728-.116,1.314,1.314,0,0,1-.513-.338,1.38,1.38,0,0,1-.3-.545,2.5,2.5,0,0,1-.1-.738,2.365,2.365,0,0,1,.107-.733,1.546,1.546,0,0,1,.321-.569,1.437,1.437,0,0,1,.536-.368,1.988,1.988,0,0,1,.755-.131,2.141,2.141,0,0,1,.731.114,1.277,1.277,0,0,1,.511.336,1.386,1.386,0,0,1,.3.545,2.558,2.558,0,0,1,.1.742Zm-.911.036a2.2,2.2,0,0,0-.038-.428.96.96,0,0,0-.124-.34.622.622,0,0,0-.235-.225.751.751,0,0,0-.366-.081.779.779,0,0,0-.345.072.621.621,0,0,0-.242.211,1.033,1.033,0,0,0-.143.334,1.871,1.871,0,0,0-.047.445,2.128,2.128,0,0,0,.039.428,1.064,1.064,0,0,0,.124.34.594.594,0,0,0,.235.223.751.751,0,0,0,.364.079.789.789,0,0,0,.349-.073.635.635,0,0,0,.243-.209.989.989,0,0,0,.139-.332,1.92,1.92,0,0,0,.046-.444Zm7.438-.1a.341.341,0,0,1-.072.239.259.259,0,0,1-.2.077h-1.91a1.358,1.358,0,0,0,.046.363.732.732,0,0,0,.152.279.671.671,0,0,0,.268.174,1.149,1.149,0,0,0,.392.06,2.251,2.251,0,0,0,.406-.033,2.545,2.545,0,0,0,.305-.075c.086-.026.156-.051.212-.073a.391.391,0,0,1,.137-.033.1.1,0,0,1,.053.012.09.09,0,0,1,.036.044.3.3,0,0,1,.019.09c0,.039,0,.087,0,.146s0,.1,0,.132a.875.875,0,0,1-.011.093.214.214,0,0,1-.02.065.206.206,0,0,1-.038.05.383.383,0,0,1-.125.068,2.157,2.157,0,0,1-.259.082,3.468,3.468,0,0,1-.362.07,2.95,2.95,0,0,1-.436.03,2.3,2.3,0,0,1-.734-.106,1.3,1.3,0,0,1-.525-.318,1.338,1.338,0,0,1-.315-.542,2.565,2.565,0,0,1-.1-.766,2.4,2.4,0,0,1,.109-.754,1.574,1.574,0,0,1,.315-.57,1.358,1.358,0,0,1,.506-.357,1.938,1.938,0,0,1,1.343-.006,1.2,1.2,0,0,1,.459.321,1.288,1.288,0,0,1,.265.488,2.131,2.131,0,0,1,.084.611v.141Zm-.858-.253a.9.9,0,0,0-.149-.586.579.579,0,0,0-.494-.212.636.636,0,0,0-.293.062.589.589,0,0,0-.208.17.791.791,0,0,0-.128.253,1.261,1.261,0,0,0-.05.313Z" transform="translate(-67.635 -154.445)" fill="#4c1862"/>
    <path id="Контур_2800" data-name="Контур 2800" d="M159.883,181.921a2.145,2.145,0,0,1-.122.739,1.621,1.621,0,0,1-.345.569,1.519,1.519,0,0,1-.534.363,1.777,1.777,0,0,1-.691.129,1.816,1.816,0,0,1-.723-.13,1.208,1.208,0,0,1-.5-.392,1.742,1.742,0,0,1-.285-.66,4.307,4.307,0,0,1-.09-.938,6.382,6.382,0,0,1,.041-.736,4.368,4.368,0,0,1,.119-.63,2.458,2.458,0,0,1,.2-.5,1.668,1.668,0,0,1,.239-.347,1.433,1.433,0,0,1,.5-.349,2.191,2.191,0,0,1,.314-.108,3.571,3.571,0,0,1,.376-.076l1.118-.163a.6.6,0,0,1,.105,0,.077.077,0,0,1,.061.041.308.308,0,0,1,.028.116c0,.053.006.125.006.221,0,.064,0,.122-.006.17a.485.485,0,0,1-.028.124.2.2,0,0,1-.058.081.178.178,0,0,1-.093.037l-1.034.155c-.1.014-.181.03-.253.047a1.275,1.275,0,0,0-.192.06.756.756,0,0,0-.145.075.936.936,0,0,0-.121.1.669.669,0,0,0-.109.151,1.209,1.209,0,0,0-.084.2,1.784,1.784,0,0,0-.06.24c-.017.087-.031.177-.046.27a1.677,1.677,0,0,1,.213-.181,1.369,1.369,0,0,1,.252-.14,1.578,1.578,0,0,1,.282-.091,1.427,1.427,0,0,1,.315-.033,1.494,1.494,0,0,1,.6.109,1.086,1.086,0,0,1,.423.314,1.4,1.4,0,0,1,.25.5,2.484,2.484,0,0,1,.083.667Zm-.9.049a1.781,1.781,0,0,0-.034-.365.859.859,0,0,0-.114-.291.557.557,0,0,0-.2-.2.619.619,0,0,0-.308-.073.77.77,0,0,0-.222.03.762.762,0,0,0-.2.089,1.376,1.376,0,0,0-.192.146,2.429,2.429,0,0,0-.2.2c0,.028,0,.058,0,.091v.1a3.882,3.882,0,0,0,.039.574,1.306,1.306,0,0,0,.125.406.572.572,0,0,0,.225.239.687.687,0,0,0,.339.078.73.73,0,0,0,.32-.069.634.634,0,0,0,.236-.2.952.952,0,0,0,.144-.325,1.674,1.674,0,0,0,.049-.434Zm9.253-.056a2.307,2.307,0,0,1-.113.731,1.651,1.651,0,0,1-.326.573,1.46,1.46,0,0,1-.522.372,1.8,1.8,0,0,1-.71.131,2.156,2.156,0,0,1-.674-.094,1.28,1.28,0,0,1-.483-.282,1.259,1.259,0,0,1-.3-.461,2.2,2.2,0,0,1-.135-.625H164.4v1.261a.093.093,0,0,1-.02.062.156.156,0,0,1-.072.044.6.6,0,0,1-.135.026,1.951,1.951,0,0,1-.215.01,1.909,1.909,0,0,1-.213-.01.6.6,0,0,1-.136-.026.15.15,0,0,1-.072-.044.1.1,0,0,1-.021-.062v-3.137a.1.1,0,0,1,.021-.061.151.151,0,0,1,.072-.045.6.6,0,0,1,.136-.026,1.942,1.942,0,0,1,.213-.009,1.984,1.984,0,0,1,.215.009.6.6,0,0,1,.135.026.156.156,0,0,1,.072.045.09.09,0,0,1,.02.061v1.207h.585a1.9,1.9,0,0,1,.16-.58,1.368,1.368,0,0,1,.324-.445,1.415,1.415,0,0,1,.493-.282,2.009,2.009,0,0,1,.665-.1,1.958,1.958,0,0,1,.711.118,1.308,1.308,0,0,1,.5.341,1.467,1.467,0,0,1,.3.547,2.4,2.4,0,0,1,.1.725Zm-.914.035a2.45,2.45,0,0,0-.034-.419,1,1,0,0,0-.117-.338.589.589,0,0,0-.223-.227.781.781,0,0,0-.69,0,.661.661,0,0,0-.237.215,1,1,0,0,0-.136.333,1.969,1.969,0,0,0-.044.432,2.673,2.673,0,0,0,.032.432,1,1,0,0,0,.117.34.588.588,0,0,0,.222.222.71.71,0,0,0,.357.079.764.764,0,0,0,.32-.065.605.605,0,0,0,.237-.2.94.94,0,0,0,.147-.332,2.019,2.019,0,0,0,.049-.47Zm7.7-.042a2.911,2.911,0,0,1-.09.753,1.691,1.691,0,0,1-.263.571,1.144,1.144,0,0,1-.429.362,1.307,1.307,0,0,1-.587.126,1.086,1.086,0,0,1-.252-.027.9.9,0,0,1-.222-.08,1.369,1.369,0,0,1-.212-.135,2.709,2.709,0,0,1-.219-.19v1.477a.1.1,0,0,1-.02.063.165.165,0,0,1-.072.048.639.639,0,0,1-.136.03,2.379,2.379,0,0,1-.429,0,.627.627,0,0,1-.135-.03.148.148,0,0,1-.072-.048.1.1,0,0,1-.022-.063v-4.382a.108.108,0,0,1,.018-.061.147.147,0,0,1,.061-.045.453.453,0,0,1,.117-.026,1.421,1.421,0,0,1,.181-.009,1.4,1.4,0,0,1,.178.009.424.424,0,0,1,.115.026.13.13,0,0,1,.063.045.115.115,0,0,1,.016.061v.37a3.484,3.484,0,0,1,.269-.249,1.745,1.745,0,0,1,.269-.179,1.314,1.314,0,0,1,.284-.108,1.381,1.381,0,0,1,.312-.034,1.184,1.184,0,0,1,.587.136,1.1,1.1,0,0,1,.394.371,1.673,1.673,0,0,1,.224.549,3.084,3.084,0,0,1,.071.669Zm-.923.062a2.367,2.367,0,0,0-.029-.385,1.15,1.15,0,0,0-.1-.329.631.631,0,0,0-.191-.23.487.487,0,0,0-.293-.086.574.574,0,0,0-.175.026.72.72,0,0,0-.176.087,1.264,1.264,0,0,0-.185.154,2.467,2.467,0,0,0-.2.236v1.033a2.142,2.142,0,0,0,.356.364.568.568,0,0,0,.351.129.484.484,0,0,0,.294-.088.693.693,0,0,0,.2-.23,1.2,1.2,0,0,0,.116-.321,1.846,1.846,0,0,0,.035-.359Zm7.73-.049a2.425,2.425,0,0,1-.1.732,1.553,1.553,0,0,1-.32.569,1.412,1.412,0,0,1-.538.37,2.02,2.02,0,0,1-.757.13,2.073,2.073,0,0,1-.727-.116,1.318,1.318,0,0,1-.514-.338,1.393,1.393,0,0,1-.3-.545,2.5,2.5,0,0,1-.1-.738,2.4,2.4,0,0,1,.107-.733,1.562,1.562,0,0,1,.321-.569,1.432,1.432,0,0,1,.537-.368,1.978,1.978,0,0,1,.754-.131,2.137,2.137,0,0,1,.731.114,1.289,1.289,0,0,1,.512.337,1.412,1.412,0,0,1,.3.545,2.6,2.6,0,0,1,.1.742Zm-.911.036a2.293,2.293,0,0,0-.036-.428.981.981,0,0,0-.125-.34.627.627,0,0,0-.234-.225.755.755,0,0,0-.368-.081.771.771,0,0,0-.344.072.632.632,0,0,0-.243.211,1.033,1.033,0,0,0-.143.334,1.924,1.924,0,0,0-.047.445,2.208,2.208,0,0,0,.039.428,1.064,1.064,0,0,0,.125.34.585.585,0,0,0,.234.223.754.754,0,0,0,.364.079.789.789,0,0,0,.349-.073.636.636,0,0,0,.243-.209.988.988,0,0,0,.14-.332,1.983,1.983,0,0,0,.045-.444Z" transform="translate(-62.729 -154.545)" fill="#4c1862"/>
    <path id="Контур_2801" data-name="Контур 2801" d="M84.076,166.814l-1.26,1.066v2.563H81.362V163.1h1.454v3.034l3.532-3.034h1.926l-3.116,2.743,3.31,4.6H86.694l-2.618-3.63Zm7.4,1.191h1.247l-.624-1.3-.624,1.3Zm1.842,1.178H90.878l-.637,1.261H88.676l2.978-5.819h.886l2.993,5.819h-1.58l-.638-1.261Zm6.013-.886H97.9c-.2,0-.414-.005-.63-.014a4.806,4.806,0,0,1-.638-.07,2.438,2.438,0,0,1-.588-.18,1.491,1.491,0,0,1-.484-.346,1.476,1.476,0,0,1-.4-.734,3.525,3.525,0,0,1-.084-.706v-1.621H96.5v1.22a2.32,2.32,0,0,0,.055.5.723.723,0,0,0,.305.43,1.477,1.477,0,0,0,.353.138,3.146,3.146,0,0,0,.783.07h1.33v-2.355h1.426v5.819H99.328V168.3Zm5.264-.526-.762.65v2.023H102.4v-5.8h1.426v2.147l2.548-2.147h1.94l-2.686,2.258,2.659,3.547h-1.676l-2.022-2.674Zm4.211,2.674v-5.819h1.385v3.449l2.965-3.449h1v5.819h-1.386v-3.449l-2.964,3.449Zm11.455-2.425h-3.034v2.425H115.8v-5.819h1.426v2.009h3.034v-2.009h1.427v5.819h-1.427v-2.425Zm7.689,2.425v-5.819h1.385v3.449l2.965-3.449h1v5.819h-1.385v-3.449l-2.965,3.449Zm16.567-5.943h-3.352v5.943h-1.468V163.1h6.275v7.343h-1.455V164.5Zm4.835,3.5H150.6l-.624-1.3-.623,1.3Zm1.842,1.178h-2.438l-.638,1.261H146.55l2.979-5.819h.886l2.992,5.819h-1.578l-.638-1.261Zm6.649-2.188a1.266,1.266,0,0,0,.256-.028.479.479,0,0,0,.214-.1.452.452,0,0,0,.146-.208.673.673,0,0,0,.034-.207.959.959,0,0,0-.027-.215.338.338,0,0,0-.153-.2.651.651,0,0,0-.256-.09,1.764,1.764,0,0,0-.242-.021h-2.521v1.067Zm.11-2.369a2.547,2.547,0,0,1,.6.063,2.5,2.5,0,0,1,.444.145,1.544,1.544,0,0,1,.305.174c.078.06.14.108.186.146a1.3,1.3,0,0,1,.388.637,2.687,2.687,0,0,1,.084.624,1.886,1.886,0,0,1-.166.852,2.029,2.029,0,0,1-.347.506,1.5,1.5,0,0,1-.81.456,4.871,4.871,0,0,1-.782.07h-2.563v2.147h-1.44v-5.819Zm6.387,5.819H162.91v-4.475h-2.2v-1.344h5.832v1.344h-2.2v4.475Zm7.383-2.425h-3.034v2.425H167.26v-5.819h1.427v2.009h3.034v-2.009h1.426v5.819h-1.426v-2.425Zm3.06-3.394h5.5v1.3h-4.072v.873h2.673v1.246h-2.673v1.081H180.5v1.316h-5.721v-5.819Zm10.681,2.369a1.266,1.266,0,0,0,.256-.028.479.479,0,0,0,.214-.1.453.453,0,0,0,.146-.208.674.674,0,0,0,.034-.207.959.959,0,0,0-.027-.215.338.338,0,0,0-.153-.2.651.651,0,0,0-.256-.09,1.764,1.764,0,0,0-.242-.021h-2.521v1.067Zm.11-2.369a2.563,2.563,0,0,1,.6.063,2.519,2.519,0,0,1,.443.145,1.514,1.514,0,0,1,.305.174c.078.06.14.108.186.146a1.3,1.3,0,0,1,.388.637,2.687,2.687,0,0,1,.084.624,1.886,1.886,0,0,1-.166.852,2.03,2.03,0,0,1-.347.506,1.5,1.5,0,0,1-.81.456,4.872,4.872,0,0,1-.782.07h-2.563v2.147h-1.44v-5.819Zm4.419,4.5h2.134a1.68,1.68,0,0,0,.249-.021.411.411,0,0,0,.25-.146.584.584,0,0,0,.138-.429.576.576,0,0,0-.055-.278.549.549,0,0,0-.125-.152.483.483,0,0,0-.242-.1c-.088-.009-.168-.014-.242-.014h-2.106v1.137Zm2.272-2.452c.084,0,.182,0,.3.014a2.421,2.421,0,0,1,.381.062,2.12,2.12,0,0,1,.415.145,1.372,1.372,0,0,1,.388.278,1.344,1.344,0,0,1,.4.664,2.984,2.984,0,0,1,.09.693,2.8,2.8,0,0,1-.09.678,1.433,1.433,0,0,1-.423.679,1.7,1.7,0,0,1-.817.456,3.751,3.751,0,0,1-.8.1h-3.546v-5.819h1.44v2.051Zm2.618-2.065h1.441v5.847h-1.441v-5.847Z" transform="translate(-68.115 -155.66)" fill="#fff"/>
  </g>
</svg>
