<svg xmlns="http://www.w3.org/2000/svg" width="70" height="96.212" viewBox="0 0 70 96.212">
  <g id="Сгруппировать_6158" data-name="Сгруппировать 6158" transform="translate(-654 -850.788)">
    <text id="Троллейбус" transform="translate(689 943)" fill="#334059" font-size="14" font-family="RobotoCondensed-Bold, Roboto" font-weight="700"><tspan x="-34.45" y="0">Троллейбус</tspan></text>
    <path id="_1545780" data-name="1545780" d="M20.426,5.586H18.363V0H14.926V5.586H9.684V0H6.246V5.586H3.926A8.6,8.6,0,0,0-4.668,14.18V35.234A5.16,5.16,0,0,0-2.09,39.7v.865a3.438,3.438,0,0,0,6.875,0v-.172H19.395v.172a3.438,3.438,0,0,0,6.875,0v-.77a5.161,5.161,0,0,0,2.75-4.558V14.18A8.6,8.6,0,0,0,20.426,5.586Zm3.438,31.367H.488A1.721,1.721,0,0,1-1.23,35.234V25.357l2.336,1.638a5.129,5.129,0,0,0,2.961.935H20.9a5.166,5.166,0,0,0,3.3-1.2l1.379-1.152v9.654A1.721,1.721,0,0,1,23.863,36.953ZM4.957,9.023H19.395v1.719a1.721,1.721,0,0,1-1.719,1.719h-11a1.721,1.721,0,0,1-1.719-1.719Zm-3.437.6v1.121A5.162,5.162,0,0,0,6.676,15.9h11a5.162,5.162,0,0,0,5.156-5.156V9.621a5.161,5.161,0,0,1,2.75,4.558V21.1L22,24.093a1.723,1.723,0,0,1-1.1.4H4.066a1.709,1.709,0,0,1-.987-.312L-1.23,21.157V14.18A5.161,5.161,0,0,1,1.52,9.621ZM4.785,32.656a1.719,1.719,0,1,1-1.719-1.719A1.719,1.719,0,0,1,4.785,32.656Zm18.133,0A1.719,1.719,0,1,1,21.2,30.938,1.719,1.719,0,0,1,22.918,32.656Zm0,0" transform="translate(676.668 850.788)" fill="#909ebb"/>
  </g>
</svg>
