<svg xmlns="http://www.w3.org/2000/svg" width="50" height="96.212" viewBox="0 0 50 96.212">
  <g id="Сгруппировать_6159" data-name="Сгруппировать 6159" transform="translate(-845 -850.788)">
    <text id="Автобус" transform="translate(870 943)" fill="#334059" font-size="14" font-family="RobotoCondensed-Bold, Roboto" font-weight="700"><tspan x="-24.138" y="0">Автобус</tspan></text>
    <path id="_1545813" data-name="1545813" d="M40.563,6.875H37.984A6.883,6.883,0,0,0,31.109,0H12.891A6.883,6.883,0,0,0,6.016,6.875H3.438A3.441,3.441,0,0,0,0,10.313V16.07H3.438V10.313H6.016V35.234A5.16,5.16,0,0,0,8.594,39.7v.865a3.438,3.438,0,0,0,6.875,0v-.172H28.359v.172a3.438,3.438,0,0,0,6.875,0v-.77a5.161,5.161,0,0,0,2.75-4.558V10.313h2.578V16.07H44V10.313A3.441,3.441,0,0,0,40.563,6.875ZM32.828,36.953H11.172a1.721,1.721,0,0,1-1.719-1.719V25.253l2.286,1.678a5.122,5.122,0,0,0,3.05,1H29.854a5.163,5.163,0,0,0,3.323-1.214l1.37-1.155v9.673A1.721,1.721,0,0,1,32.828,36.953Zm1.719-26.641V21.065l-3.585,3.022a1.719,1.719,0,0,1-1.108.4H23.719V10.313ZM20.281,24.492H14.79a1.708,1.708,0,0,1-1.017-.333l-4.32-3.17V10.313H20.281ZM12.891,3.438H31.109a3.441,3.441,0,0,1,3.438,3.438H9.453A3.441,3.441,0,0,1,12.891,3.438Zm2.578,29.219a1.719,1.719,0,1,1-1.719-1.719A1.719,1.719,0,0,1,15.469,32.656Zm16.414,0a1.719,1.719,0,1,1-1.719-1.719A1.719,1.719,0,0,1,31.883,32.656Zm0,0" transform="translate(848 850.788)" fill="#909ebb"/>
  </g>
</svg>
