<svg xmlns="http://www.w3.org/2000/svg" width="111.343" height="32.776" viewBox="0 0 111.343 32.776">
  <g id="Сгруппировать_1509" data-name="Сгруппировать 1509" style="isolation: isolate">
    <path id="Контур_1981" data-name="Контур 1981" d="M1012.812,60.491h-5.092V54.446h-1.387V68.813h1.387V62.747h5.092v6.065h1.449V54.446h-1.449Z" transform="translate(-965.723 -44.507)" fill="#334059"/>
    <path id="Контур_1982" data-name="Контур 1982" d="M1024.638,60.49h-4.368q-.725,0-.724-.579V54.446H1018.1V60.3q0,2.4,1.987,2.4h4.554v3.044q-.022.828-.724.828h-5.755v2.236h5.942q1.925,0,1.925-2.443V54.446h-1.387Z" transform="translate(-967.571 -44.507)" fill="#334059"/>
    <path id="Контур_1983" data-name="Контур 1983" d="M1035.8,54.446h-5.941v2.235h5.733q.745,0,.745.684v2.546q0,.579-.745.579h-5.733v8.323h1.387V62.727h4.615q1.946-.02,1.946-2.36v-3.5Q1037.788,54.446,1035.8,54.446Z" transform="translate(-969.419 -44.507)" fill="#334059"/>
    <path id="Контур_1984" data-name="Контур 1984" d="M1041.623,56.889v9.523q0,2.4,1.988,2.4h5.942V66.577h-5.817q-.726,0-.725-.663V62.727h6.542V60.49h-6.542V57.365q0-.683.725-.684h5.817V54.446h-5.942Q1041.623,54.446,1041.623,56.889Z" transform="translate(-971.267 -44.507)" fill="#334059"/>
    <path id="Контур_1985" data-name="Контур 1985" d="M1059.329,54.446h-5.941v2.235h5.733q.745,0,.745.684v2.546q0,.579-.745.579h-5.733v8.323h1.387V62.727h2.545v3.685q0,2.4,1.967,2.4h2.049V66.536h-1.988a.549.549,0,0,1-.62-.621V62.727h.662q1.946-.02,1.946-2.36v-3.5Q1061.336,54.446,1059.329,54.446Z" transform="translate(-973.115 -44.507)" fill="#334059"/>
    <path id="Контур_1986" data-name="Контур 1986" d="M1065.15,68.813h1.387V54.446h-1.387Z" transform="translate(-974.963 -44.507)" fill="#334059"/>
    <path id="Контур_1987" data-name="Контур 1987" d="M1075.021,54.446h-3.954q-1.988,0-1.987,2.443v9.523q0,2.4,1.987,2.4h3.954q1.988,0,1.987-2.4V56.889Q1077.007,54.447,1075.021,54.446Zm.579,11.468q0,.663-.744.663h-3.623q-.726,0-.725-.663V57.365q0-.683.725-.684h3.623q.744,0,.744.684Z" transform="translate(-975.581 -44.507)" fill="#334059"/>
    <path id="Контур_1988" data-name="Контур 1988" d="M1086.785,54.446h-3.954q-1.988,0-1.987,2.443V68.813h1.428V57.365q0-.683.725-.684h3.623q.745,0,.744.684V68.813h1.408V56.889Q1088.772,54.447,1086.785,54.446Z" transform="translate(-977.429 -44.507)" fill="#334059"/>
    <path id="Контур_1989" data-name="Контур 1989" d="M974.54,42.654a16.388,16.388,0,1,0,16.388,16.388A16.406,16.406,0,0,0,974.54,42.654Zm0,31.051A14.663,14.663,0,1,1,989.2,59.042,14.68,14.68,0,0,1,974.54,73.705Z" transform="translate(-958.153 -42.654)" fill="#334059"/>
    <path id="Контур_1990" data-name="Контур 1990" d="M975.264,47.259a12.507,12.507,0,1,0,12.507,12.507A12.522,12.522,0,0,0,975.264,47.259Zm0,23.288a10.781,10.781,0,1,1,10.781-10.781A10.794,10.794,0,0,1,975.264,70.547Z" transform="translate(-958.876 -43.377)" fill="#334059"/>
    <path id="Контур_1991" data-name="Контур 1991" d="M975.831,56.469a4.746,4.746,0,0,0-4.656,3.881H969.5a1.68,1.68,0,0,0-1.435-.842,1.7,1.7,0,0,0,0,3.408,1.679,1.679,0,0,0,1.435-.841h1.67a4.741,4.741,0,1,0,4.657-5.605Zm0,7.763a3.013,3.013,0,0,1-2.878-2.157h1.47l1.408,1.408,2.2-2.2-2.2-2.2L974.56,60.35h-1.607a3.013,3.013,0,1,1,2.878,3.882Z" transform="translate(-959.443 -44.824)" fill="#334059"/>
  </g>
</svg>
