<svg id="Сгруппировать_6027" data-name="Сгруппировать 6027" xmlns="http://www.w3.org/2000/svg" width="146" height="31.508" viewBox="0 0 146 31.508">
  <path id="Контур_6490" data-name="Контур 6490" d="M28.762,28.52h9.029c-4.434,1.23-5.9,4.689-2.378,7.5,4.6,3.669,17.832,3.408,22.832,9.954-1.618-3.672-4.644-5.588-9.491-7.495-1.829-.72-11.227-3.62-8.6-5.982,1.05-.944,3.385-1.233,6.067-1.092a26.871,26.871,0,0,1,13.93,4.405v24.1H52.478a14.5,14.5,0,0,0,1.5-.693c4.005-2.14,3.823-6.356.833-9.5-3.132-3.3-8.746-4.469-13.935-6.589-4.579-1.87-8.828-4.615-10.752-8.292A21.044,21.044,0,0,0,36.143,42.7c3.82,3.024,8.584,4.366,12.517,7.586,2.412,1.974,1.328,4.154-1.431,4.673C42.183,55.9,33.152,51,28.762,48.016Zm22.263,0h9.126v3.14A35.084,35.084,0,0,0,53.3,29.022q-1.119-.283-2.278-.5M39.077,59.91H28.762V56.082A77.187,77.187,0,0,0,39.077,59.91" transform="translate(-28.762 -28.402)" fill="#f04c23"/>
  <path id="Контур_6491" data-name="Контур 6491" d="M157.045,73.7c0-.8.415-.978.914-.978H160.7v1.945h-2.742c-.5,0-.914-.181-.914-.968m.149,5.081,1.573-2.456H160.7v2.456h2.084v-7.77h-4.763c-1.573,0-3.019.467-3.019,2.689a2.225,2.225,0,0,0,1.573,2.456l-1.7,2.626Zm-9.408-7.77h-1.935v7.77h2.094l3.859-5.347v5.347h1.924v-7.77h-2.094l-3.848,5.5Zm-5.464,0v3.029h-3.71V71.016h-2.083v7.77h2.083V75.757h3.71v3.029h2.084v-7.77Zm-7.133,3.136h-5.071V72.7h5.092V71.016h-7.175v7.77h7.2V77.107h-5.113V75.65h5.071ZM116.5,78.786H126.59v-7.77h-2.073v6.091h-1.988V71.016h-1.956v6.091h-2V71.016H116.5Zm-1.34-4.634h-5.07V72.7h5.092V71.016h-7.175v7.77h7.2V77.107h-5.113V75.65h5.07Zm-10.247-.415c0,.808-.415,1-.914,1h-2.743V72.727H104c.5,0,.914.191.914,1.01m-.978,2.647c1.541,0,3.03-.383,3.03-2.647s-1.456-2.721-3.03-2.721H99.175v7.77h2.083v-2.4Z" transform="translate(-60.039 -47.278)" fill="#55565a"/>
  <path id="Контур_6492" data-name="Контур 6492" d="M205.563,52.812h-5.071V51.356h5.092v-1.68h-7.175v7.771h7.2v-1.68h-5.113V54.311h5.071ZM194.88,57.447h2.084V49.676H194.88Zm-3.1-2.721c0,.829-.436,1.01-.914,1.01h-2.742V53.726h2.742c.489,0,.914.17.914,1m-3.657-5.05h-2.084v7.771H190.8c1.573,0,3.029-.468,3.029-2.721s-1.488-2.658-3.029-2.658h-2.679Zm-5.613,0v3.03H178.8v-3.03h-2.084v7.771H178.8v-3.03h3.71v3.03h2.083V49.676Zm-11.523,7.771h2.083V51.356h2.753v-1.68h-7.59v1.68h2.753Zm-5.2-5.05c0,.808-.415,1-.914,1h-2.742V51.387h2.742c.5,0,.914.192.914,1.01m-.978,2.647c1.541,0,3.029-.383,3.029-2.647s-1.456-2.721-3.029-2.721h-4.763v7.771h2.084v-2.4Zm-10.024,2.562c3.433,0,4.135-1.106,4.135-4.04s-.7-4.04-4.135-4.04-4.135,1.106-4.135,4.04.7,4.04,4.135,4.04m0-6.357c1.8,0,2.083.585,2.083,2.317s-.287,2.318-2.083,2.318S152.7,55.3,152.7,53.567s.287-2.317,2.084-2.317m-13.139-1.573v7.771h2.084V51.356h3.71v6.091h2.083V49.676Zm-1.2,6.059h-3.614c-1.031,0-1.4-.4-1.4-2.169s.361-2.179,1.4-2.179h3.614V49.676h-3.624c-2.3,0-3.444.67-3.444,3.891s1.148,3.88,3.444,3.88h3.624Zm-10.279-6.059v3.03h-3.71v-3.03h-2.083v7.771h2.083v-3.03h3.71v3.03h2.084V49.676Zm-11.523,1.85,1.339,2.827h-2.668Zm-4.954,5.921h2.169l.712-1.51h4.167l.712,1.51h2.1l-3.806-7.771h-2.254Zm-1.265-5.05c0,.808-.414,1-.914,1h-2.743V51.387h2.743c.5,0,.914.192.914,1.01m-.978,2.647c1.541,0,3.03-.383,3.03-2.647s-1.457-2.721-3.03-2.721h-4.762v7.771h2.083v-2.4Zm-10.492,2.4h2.084V51.356h2.753v-1.68H98.2v1.68h2.753Z" transform="translate(-59.605 -37.733)" fill="#f04c23"/>
  <path id="Контур_6493" data-name="Контур 6493" d="M177.051,31.592h-5.07V30.136h5.092v-1.68H169.9v7.771h7.2v-1.68h-5.113V33.091h5.07Zm-14.542-3.136h-1.935v7.771h2.094l3.858-5.347v5.347h1.924V28.456h-2.094l-3.848,5.5Zm-2.891,0h-2.2L155.2,31.6h-1.34V28.456h-2.084v7.771h2.084V33.059h1.34l2.189,3.168H159.7L157,32.2Zm-9.046,6.059h-3.614c-1.032,0-1.4-.4-1.4-2.169s.361-2.179,1.4-2.179h3.614V28.456h-3.625c-2.3,0-3.444.67-3.444,3.891s1.148,3.88,3.444,3.88h3.625ZM137,32.931l.276-2.8h2.275v4.411h-2.881a7.169,7.169,0,0,0,.33-1.616m4.262,5.538h1.8V34.547h-1.424V28.456H135.6l-.425,4.231c-.148,1.51-.51,1.839-1.158,1.86h-1.01v3.922h1.8V36.227h6.452Zm-12.745-2.083c3.433,0,4.135-1.106,4.135-4.04s-.7-4.04-4.135-4.04-4.135,1.106-4.135,4.04.7,4.04,4.135,4.04m0-6.357c1.8,0,2.083.585,2.083,2.317s-.287,2.317-2.083,2.317-2.084-.584-2.084-2.317.287-2.317,2.084-2.317m-6.9,1.148c0,.808-.415,1-.914,1h-2.742V30.167H120.7c.5,0,.914.192.914,1.01m-.978,2.647c1.541,0,3.029-.383,3.029-2.647s-1.456-2.721-3.029-2.721h-4.763v7.771h2.084v-2.4Zm-10.025,2.562c3.434,0,4.135-1.106,4.135-4.04s-.7-4.04-4.135-4.04-4.135,1.106-4.135,4.04.7,4.04,4.135,4.04m0-6.357c1.8,0,2.084.585,2.084,2.317s-.287,2.317-2.084,2.317-2.083-.584-2.083-2.317.287-2.317,2.083-2.317m-9.354.106h4.8v-1.68H99.175v7.771h2.084Z" transform="translate(-60.039 -28.307)" fill="#55565a"/>
</svg>
