<svg xmlns="http://www.w3.org/2000/svg" width="19.471" height="19.47" viewBox="0 0 19.471 19.47">
  <g id="Компонент_1_1" data-name="Компонент 1 – 1" transform="translate(0.5 0.5)">
    <path id="Контур_6497" data-name="Контур 6497" d="M11.27,9.251l6.906,6.906a1.012,1.012,0,0,1,0,1.429l-.605.605a1.013,1.013,0,0,1-1.429,0L9.236,11.285,2.329,18.191a1.012,1.012,0,0,1-1.428,0L.3,17.586a1.011,1.011,0,0,1,0-1.429L7.2,9.251.3,2.345A1.013,1.013,0,0,1,.3.916L.9.311a1.012,1.012,0,0,1,1.428,0L9.236,7.217,16.142.311a1,1,0,0,1,.714-.295h0a1,1,0,0,1,.714.295l.605.605a1.013,1.013,0,0,1,0,1.429Z" transform="translate(0 -0.016)" fill="#707070" stroke="#707070" stroke-width="1"/>
  </g>
</svg>
