<svg xmlns="http://www.w3.org/2000/svg" width="22.71" height="40.013" viewBox="0 0 22.71 40.013">
  <path id="facebook" d="M14.528,40.012H8.12a1.943,1.943,0,0,1-1.941-1.941V23.618H2.441A1.943,1.943,0,0,1,.5,21.678V15.484a1.943,1.943,0,0,1,1.941-1.941H6.179v-3.1A10.559,10.559,0,0,1,8.971,2.877,10.057,10.057,0,0,1,16.386,0l4.887.008A1.944,1.944,0,0,1,23.21,1.948V7.7a1.943,1.943,0,0,1-1.94,1.941H17.98c-1,0-1.259.2-1.314.263-.09.1-.2.391-.2,1.19v2.45h4.554a1.973,1.973,0,0,1,.96.244,1.948,1.948,0,0,1,1,1.7l0,6.193a1.943,1.943,0,0,1-1.941,1.94H16.469V38.071a1.943,1.943,0,0,1-1.941,1.941Zm-6-2.346h5.6v-15.1a1.3,1.3,0,0,1,1.3-1.3h5.215l0-5.383H15.419a1.3,1.3,0,0,1-1.3-1.3v-3.5a4,4,0,0,1,.785-2.742A3.976,3.976,0,0,1,17.979,7.3h2.885V2.353l-4.48-.007c-4.847,0-7.859,3.1-7.859,8.1v4.151a1.3,1.3,0,0,1-1.3,1.3H2.846v5.383H7.23a1.3,1.3,0,0,1,1.3,1.3ZM21.268,2.353h0Zm0,0" transform="translate(-0.5 0)" fill="#fff"/>
</svg>
