<?xml version="1.0" encoding="iso-8859-1"?>
<!-- Generator: Adobe Illustrator 16.0.0, SVG Export Plug-In . SVG Version: 6.00 Build 0)  -->
<!DOCTYPE svg PUBLIC "-//W3C//DTD SVG 1.1//EN" "http://www.w3.org/Graphics/SVG/1.1/DTD/svg11.dtd">
<svg version="1.1" id="Capa_1" xmlns="http://www.w3.org/2000/svg" xmlns:xlink="http://www.w3.org/1999/xlink" x="0px" y="0px"
	 width="792px" height="792px" viewBox="0 0 792 792" style="enable-background:new 0 0 792 792;" xml:space="preserve">
<g>
	<g>
		<path d="M109.548,0c0,0-18.468,0-18.468,17.604V774.36c0,17.64,18.468,17.64,18.468,17.64h572.903c0,0,18.469,0,18.469-17.604V180
			H548.461c0,0-38.125,0-38.125-36V0H109.548z M205.452,108H434.16v36H205.452V108z M205.452,216H434.16v36H205.452V216z
			 M586.619,684H205.452v-36h381.167V684z M586.619,576H205.452v-36h381.167V576z M586.619,468H205.452v-36h381.167V468z
			 M586.619,324v36H205.452v-36H586.619z"/>
		<polygon points="548.496,144 685.836,144 548.496,13.212 		"/>
	</g>
</g>
<g>
</g>
<g>
</g>
<g>
</g>
<g>
</g>
<g>
</g>
<g>
</g>
<g>
</g>
<g>
</g>
<g>
</g>
<g>
</g>
<g>
</g>
<g>
</g>
<g>
</g>
<g>
</g>
<g>
</g>
</svg>
