<?xml version="1.0" standalone="no"?>
<!DOCTYPE svg PUBLIC "-//W3C//DTD SVG 20010904//EN"
 "http://www.w3.org/TR/2001/REC-SVG-20010904/DTD/svg10.dtd">
<svg version="1.0" xmlns="http://www.w3.org/2000/svg"
 width="620.000000pt" height="421.000000pt" viewBox="0 0 620.000000 421.000000"
 preserveAspectRatio="xMidYMid meet">
<metadata>
Created by potrace 1.15, written by Peter Selinger 2001-2017
</metadata>
<g transform="translate(0.000000,421.000000) scale(0.100000,-0.100000)"
fill="#000000" stroke="none">
<path d="M3835 4194 c-440 -67 -831 -263 -1145 -574 -311 -308 -500 -659 -596
-1107 l-4 -23 -354 0 -353 0 -10 23 c-6 13 -34 52 -63 86 -297 356 -844 355
-1141 -3 -63 -76 -132 -218 -153 -313 -23 -104 -21 -270 4 -369 95 -369 434
-606 806 -563 220 25 418 146 531 324 l28 44 352 1 353 0 4 -22 c80 -377 230
-689 465 -969 191 -229 417 -402 702 -538 283 -135 537 -191 869 -191 251 0
435 28 649 100 747 251 1295 916 1405 1708 21 149 21 445 0 594 -119 857 -757
1567 -1579 1758 -218 51 -562 66 -770 34z m540 -779 c395 -81 729 -335 913
-692 98 -190 141 -356 149 -568 20 -527 -268 -1014 -739 -1251 -85 -43 -216
-87 -328 -111 -135 -28 -373 -24 -516 9 -433 101 -799 428 -948 846 l-26 72
314 0 314 0 311 -316 311 -317 367 374 c202 206 420 428 485 494 l117 120
-127 130 c-70 71 -288 294 -485 494 l-357 363 -281 -286 -281 -286 -344 0
-344 0 26 73 c14 39 48 115 75 167 197 379 568 640 993 700 88 13 308 4 401
-15z"/>
</g>
</svg>
