<?xml version="1.0" encoding="utf-8"?>
<!-- Generator: Adobe Illustrator 23.1.0, SVG Export Plug-In . SVG Version: 6.00 Build 0)  -->
<svg version="1.1" id="Layer_1" xmlns="http://www.w3.org/2000/svg" xmlns:xlink="http://www.w3.org/1999/xlink" x="0px" y="0px"
	 viewBox="0 0 19.4 19.4" style="enable-background:new 0 0 19.4 19.4;" xml:space="preserve">
<style type="text/css">
	.st0{fill:#FFFFFF;}
</style>
<path id="Контур_6584" class="st0" d="M16.5,12.5c-1-1-2.3-1.8-3.7-2.3C15.4,8.5,16,5,14.3,2.4S9.1-0.8,6.5,1S3.3,6.2,5.1,8.8
	c0.4,0.6,0.9,1.1,1.4,1.4c-3.9,1.4-6.5,5-6.5,9.2h1.5c0-4.5,3.7-8.2,8.2-8.2s8.2,3.7,8.2,8.2c0,0,0,0,0,0h1.5
	C19.4,16.8,18.3,14.3,16.5,12.5z M9.7,9.7c-2.3,0-4.1-1.8-4.1-4.1s1.8-4.1,4.1-4.1s4.1,1.8,4.1,4.1C13.8,7.8,11.9,9.7,9.7,9.7z"/>
</svg>
