<svg id="elearning" xmlns="http://www.w3.org/2000/svg" width="79.361" height="79.361" viewBox="0 0 79.361 79.361">
  <path id="Контур_8663" data-name="Контур 8663" d="M42.08,33.16A14.08,14.08,0,1,0,28,19.08,14.1,14.1,0,0,0,42.08,33.16Zm0-25.6A11.52,11.52,0,1,1,30.56,19.08,11.533,11.533,0,0,1,42.08,7.56Z" transform="translate(6.56 0.12)" fill="#707070"/>
  <path id="Контур_8664" data-name="Контур 8664" d="M34,10.382V24.764l14.382-7.191Zm2.56,4.142,6.1,3.049-6.1,3.049Z" transform="translate(8.24 1.627)" fill="#707070"/>
  <path id="Контур_8665" data-name="Контур 8665" d="M73.961,1H25.32a6.407,6.407,0,0,0-6.4,6.4V32.372L4.946,39.992a2.556,2.556,0,0,0-1.107,3.432l.621,1.219a3.8,3.8,0,0,0-.9,2.438v6.765A5.882,5.882,0,0,0,1,58.6a3.84,3.84,0,1,0,7.68,0,5.882,5.882,0,0,0-2.56-4.755V47.08a1.318,1.318,0,0,1,.033-.266,2.583,2.583,0,0,0,.328.142,2.5,2.5,0,0,0,.778.124,2.615,2.615,0,0,0,1.194-.3l.739-.4,2.36,4.74.989-.237.321-.079a8.925,8.925,0,0,0,3.524,4.923A14.092,14.092,0,0,0,7.4,68.841v11.52H31.72V73.535l.128.17a10.24,10.24,0,0,0,16.384,0l4.294-5.727a4.8,4.8,0,0,0,.954-2.86v-.471a4.753,4.753,0,0,0-2.56-4.2V54.761h23.04a6.407,6.407,0,0,0,6.4-6.4V7.4A6.407,6.407,0,0,0,73.961,1ZM21.48,7.4a3.845,3.845,0,0,1,3.84-3.84H73.961A3.845,3.845,0,0,1,77.8,7.4V36.84H27.025l-.072-.145.82-.447a2.556,2.556,0,0,0,1.107-3.432l-1.155-2.266a2.529,2.529,0,0,0-1.487-1.268,2.557,2.557,0,0,0-1.973.173L21.48,30.975ZM4.84,59.881A1.281,1.281,0,0,1,3.56,58.6c0-1.05.87-2.5,1.276-2.56.413.056,1.284,1.51,1.284,2.56A1.281,1.281,0,0,1,4.84,59.881ZM7.275,44.526l-1.13-2.271,19.3-10.538L26.6,33.981Zm4.166.63L24.7,37.923l1.587,3.186a39.657,39.657,0,0,1-6.253,4.438,38.89,38.89,0,0,1-7.11,2.595Zm3.893,4.959a35.847,35.847,0,0,0,5.894-2.3,36.183,36.183,0,0,0,5.193-3.506,6.393,6.393,0,1,1-11.087,5.806Zm35.587,15a2.229,2.229,0,0,1-.442,1.325L46.184,72.17a7.682,7.682,0,0,1-12.288,0L28.9,65.514l-2.048,1.535,2.3,3.072V77.8H9.96v-8.96a11.533,11.533,0,0,1,11.52-11.52h1.509a13.036,13.036,0,0,1,10.674,5.558l5.07,7.242h2.546l5.738-6.885a2.207,2.207,0,0,1,3.9,1.412Zm-2.56-5.2A4.732,4.732,0,0,0,45.052,61.6l-4.97,5.965-4.32-6.15c-.063-.09-.137-.166-.2-.253V44.52h12.8Zm25.6-7.718H50.921V47.08h24.32V44.52H50.921V41.96H33V58.421a15.612,15.612,0,0,0-5.9-3.09,8.924,8.924,0,0,0,1.3-12.65l.342-.3.726-.65L28.3,39.4H77.8v8.96A3.845,3.845,0,0,1,73.961,52.2Z" transform="translate(-1 -1)" fill="#707070"/>
  <path id="Контур_8666" data-name="Контур 8666" d="M30,41h7.68v2.56H30Z" transform="translate(7.12 10.201)" fill="#707070"/>
  <path id="Контур_8667" data-name="Контур 8667" d="M30,45h5.12v2.56H30Z" transform="translate(7.12 11.321)" fill="#707070"/>
  <path id="Контур_8668" data-name="Контур 8668" d="M30,37h7.68v2.56H30Z" transform="translate(7.12 9.08)" fill="#707070"/>
  <path id="Контур_8669" data-name="Контур 8669" d="M19,13h2.56v2.56H19Z" transform="translate(4.04 2.36)" fill="#707070"/>
  <path id="Контур_8670" data-name="Контур 8670" d="M57,25h2.56v2.56H57Z" transform="translate(14.681 5.72)" fill="#707070"/>
  <path id="Контур_8671" data-name="Контур 8671" d="M57,21h2.56v2.56H57Z" transform="translate(14.681 4.6)" fill="#707070"/>
  <path id="Контур_8672" data-name="Контур 8672" d="M57,17h2.56v2.56H57Z" transform="translate(14.681 3.48)" fill="#707070"/>
  <path id="Контур_8673" data-name="Контур 8673" d="M21.56,7.56H31.8V5H21.56A2.563,2.563,0,0,0,19,7.56v5.12h2.56Z" transform="translate(4.04 0.12)" fill="#707070"/>
</svg>
