<svg xmlns="http://www.w3.org/2000/svg" width="79.996" height="80.018" viewBox="0 0 79.996 80.018">
  <g id="online_learnning" data-name="online learnning" transform="translate(-2 -1.983)">
    <path id="Контур_8659" data-name="Контур 8659" d="M6.773,71.335H75.89a2.724,2.724,0,0,0,2.773-2.667V26a2.724,2.724,0,0,0-2.773-2.667H37.046A14.631,14.631,0,0,0,38.1,20.671H52a4,4,0,0,0,4-4V14H74.663a4,4,0,0,0,4-4V9.76A4,4,0,1,0,76,9.76v.245a1.333,1.333,0,0,1-1.333,1.333H56V9.76a4,4,0,1,0-2.667,0v1.579H37.646a14.654,14.654,0,1,0-26.695,12H6.773A2.724,2.724,0,0,0,4,26V68.669a2.724,2.724,0,0,0,2.773,2.667ZM77.33,4.672A1.333,1.333,0,1,1,76,6.005,1.333,1.333,0,0,1,77.33,4.672Zm-22.665,0a1.333,1.333,0,1,1-1.333,1.333A1.333,1.333,0,0,1,54.664,4.672Zm-40,48H13.333V51.336h1.333ZM15.4,44.8a1.333,1.333,0,0,0-.737,1.2v.781l-1.333-1.333V44.67A6.674,6.674,0,0,1,20,38h8a6.674,6.674,0,0,1,6.666,6.666v.781l-1.333,1.333V46a1.333,1.333,0,0,0-1.009-1.293L21.656,42.044a1.323,1.323,0,0,0-.92.1Zm17.928,6.533h1.333V52.67H33.332Zm-16-4.509,4.154-2.077,9.178,2.295V54a6.666,6.666,0,0,1-13.333,0Zm2.891,17.842h7.554l-.616,4H20.847Zm10.243.055a14.532,14.532,0,0,1,8.924,3.945H29.865Zm-12.933.011.615,3.934H8.625A14.487,14.487,0,0,1,17.534,64.734ZM53.331,14v2.667A1.333,1.333,0,0,1,52,18H38.6c.04-.44.068-.883.068-1.333A14.651,14.651,0,0,0,38.41,14ZM24,4.672a12,12,0,1,1-12,12,12,12,0,0,1,12-12ZM12.694,26A14.649,14.649,0,0,0,35.3,26H76L75.89,68.669H42.982A17.01,17.01,0,0,0,29.332,62h-.551a9.333,9.333,0,0,0,4.444-6.666h1.44a2.667,2.667,0,0,0,2.667-2.667V51.336a2.667,2.667,0,0,0-2.165-2.616l1.775-1.775A1.333,1.333,0,0,0,37.332,46V44.67A9.344,9.344,0,0,0,28,35.337H20a9.344,9.344,0,0,0-9.333,9.333V46a1.333,1.333,0,0,0,.39.942l1.775,1.775a2.667,2.667,0,0,0-2.165,2.616V52.67a2.667,2.667,0,0,0,2.667,2.667h1.44A9.333,9.333,0,0,0,19.217,62h-.551a17.174,17.174,0,0,0-12,4.848L6.773,26Z" transform="translate(0.666)" fill="#707070"/>
    <path id="Контур_8660" data-name="Контур 8660" d="M38,59.331H59.332a4,4,0,0,0,4-4V26a4,4,0,0,0-4-4H38a4,4,0,0,0-4,4V55.332a4,4,0,0,0,4,4ZM36.667,26A1.333,1.333,0,0,1,38,24.667H59.332A1.333,1.333,0,0,1,60.665,26V55.332a1.333,1.333,0,0,1-1.333,1.333H38a1.333,1.333,0,0,1-1.333-1.333Z" transform="translate(10.664 6.671)" fill="#707070"/>
    <rect id="Прямоугольник_738" data-name="Прямоугольник 738" width="18.666" height="2.667" transform="translate(49.997 36.67)" fill="#707070"/>
    <rect id="Прямоугольник_739" data-name="Прямоугольник 739" width="18.666" height="2.667" transform="translate(49.997 46.003)" fill="#707070"/>
    <rect id="Прямоугольник_740" data-name="Прямоугольник 740" width="18.666" height="2.667" transform="translate(49.997 55.336)" fill="#707070"/>
    <path id="Контур_8661" data-name="Контур 8661" d="M80.663,56H47.331A1.333,1.333,0,0,0,46,57.333v1.333H38V57.333A1.333,1.333,0,0,0,36.665,56H3.333A1.333,1.333,0,0,0,2.04,57.656l.828,3.316A4,4,0,0,0,6.749,64h70.5a4,4,0,0,0,3.881-3.03l.828-3.314A1.333,1.333,0,0,0,80.663,56ZM6.749,61.333a1.333,1.333,0,0,1-1.295-1.009l-.413-1.657h30.29V60a1.333,1.333,0,0,0,1.333,1.333Zm71.792-1.011a1.333,1.333,0,0,1-1.295,1.011H47.331A1.333,1.333,0,0,0,48.664,60V58.667h30.29Z" transform="translate(0 18.002)" fill="#707070"/>
    <path id="Контур_8662" data-name="Контур 8662" d="M14.632,22.8a1.333,1.333,0,0,0,1.3.059l13.333-6.666a1.333,1.333,0,0,0,0-2.387L15.929,7.14A1.333,1.333,0,0,0,14,8.333V21.666A1.333,1.333,0,0,0,14.632,22.8Zm2.035-12.31L25.685,15l-9.018,4.509Z" transform="translate(3.999 1.672)" fill="#707070"/>
  </g>
</svg>
