<svg xmlns="http://www.w3.org/2000/svg" width="106.651" height="33.344" viewBox="0 0 106.651 33.344">
  <g id="Сгруппировать_1516" data-name="Сгруппировать 1516" style="isolation: isolate">
    <path id="Контур_2802" data-name="Контур 2802" d="M63.674,104.344l1.622.76a2.65,2.65,0,0,0,.274.191c1.546.82,3.1,1.633,4.642,2.455,1.944,1.035,3.877,2.09,5.831,3.1a.624.624,0,0,1,.409.654c-.014,1.617-.009,3.235-.006,4.852q.006,3.1.018,6.2v2.588a5.212,5.212,0,0,1-.563-.291c-1.565-1.1-3.121-2.209-4.689-3.3q-3.092-2.157-6.2-4.295c-.442-.306-.893-.6-1.339-.9Z" transform="translate(-63.674 -91.801)" fill="#a39f9e"/>
    <path id="Контур_2803" data-name="Контур 2803" d="M89.616,84.38c1.411.627,3.1,1.379,5.234,2.356l.224.1c-.094.06-.219.14-.369.23,0,0-.147.089-.3.174-.513.292-.951.471-1.566.83-.078.046-.2.118-.351.214a2.9,2.9,0,0,1-.368.187c-.074.031-.13.05-.14.054-.684.341-1.36.7-2.035,1.061-2.306,1.23-4.607,2.468-6.92,3.684a.78.78,0,0,1-.613,0c-.8-.389-1.582-.815-2.367-1.235q-3.353-1.792-6.706-3.586l-.337-.18c-1.229-.646-1.885-1-2.126-1.15h0c-.214-.125-.386-.225-.478-.277.557-.259,1.033-.485,1.513-.7q3.676-1.645,7.354-3.284c.368-.163,1.479-.6,2.93-1.279.24-.112.433-.2.546-.257" transform="translate(-66.735 -81.326)" fill="#a39f9e"/>
    <path id="Контур_2804" data-name="Контур 2804" d="M110.1,104.282c.4-.175.809-.35,1.212-.527.11-.048.215-.107.412-.2v.635c0,4.13-.007,8.261.011,12.391a.877.877,0,0,1-.5.87q-3.842,2.24-7.665,4.513c-1.411.841-2.8,1.725-4.194,2.588-.105.065-.218.119-.433.235v-2.347c0-.208.013-.416.013-.624q0-5.5-.005-11a.66.66,0,0,1,.415-.705c.988-.486,1.951-1.023,2.924-1.54q3.542-1.886,7.083-3.777A7.63,7.63,0,0,0,110.1,104.282Z" transform="translate(-79.722 -91.44)" fill="#a39f9e"/>
    <path id="Контур_2805" data-name="Контур 2805" d="M252.9,110.536a8.18,8.18,0,0,1,.255,1.33c.039,1.312.028,2.625.028,3.937a1.4,1.4,0,0,1-1.452,1.449q-2.714,0-5.427,0c-.125,0-.249-.012-.408-.02V103.99h1.529c1.313,0,2.625,0,3.938,0a1.588,1.588,0,0,1,1.817,1.692c.056,1.324.082,2.651.063,3.976A2.586,2.586,0,0,1,252.9,110.536Zm-5.679-.972c1.331,0,2.622.006,3.912,0a.679.679,0,0,0,.677-.669c.021-.638.027-1.278,0-1.916a.751.751,0,0,0-.863-.777h-3.729Zm0,5.573h3.733c.621,0,.858-.232.865-.859.005-.512-.036-1.027.011-1.535.054-.58-.282-.935-.972-.961-.83-.033-1.663-.008-2.495-.008h-1.143Z" transform="translate(-146.603 -91.64)" fill="#c01"/>
    <path id="Контур_2806" data-name="Контур 2806" d="M72.948,94.089c.031.023.071.052.118.083.08.052.143.084.159.092,6.423,3.341,6.706,3.586,6.706,3.586.785.42,1.567.846,2.367,1.235a.78.78,0,0,0,.613,0c2.313-1.216,4.614-2.454,6.92-3.684.266-.142,1.009-.563,2.035-1.061.214-.1.39-.186.508-.241l2.732,1.271c-.559.31-1.011.57-1.471.814q-4.018,2.136-8.039,4.266c-.887.471-1.774.942-2.651,1.43a.618.618,0,0,1-.665.006q-4.769-2.553-9.544-5.093-1.036-.553-2.068-1.109c-.15-.081-.292-.175-.526-.317Z" transform="translate(-66.618 -87.134)" fill="#c01"/>
    <path id="Контур_2807" data-name="Контур 2807" d="M77.818,120.924q-.01-3.1-.018-6.2c0-1.618-.008-3.235.006-4.852a.624.624,0,0,0-.409-.654c-1.954-1.015-3.887-2.07-5.831-3.1-1.545-.822-3.1-1.635-4.642-2.455a2.65,2.65,0,0,1-.274-.191v-2.716c.6.311,1.137.581,1.667.863q4.073,2.163,8.143,4.332c.957.51,1.913,1.022,2.86,1.552.11.062.166.235.223.368a.639.639,0,0,1,.005.238v14.136Z" transform="translate(-65.029 -90.167)" fill="#c01"/>
    <path id="Контур_2808" data-name="Контур 2808" d="M188.231,111.592h-4.588v5.524h-1.481v-.525c0-3.393-.01-6.787.011-10.18a5.432,5.432,0,0,1,.257-1.493,1.353,1.353,0,0,1,1.374-.985c1.345-.007,2.691.037,4.033-.015a1.608,1.608,0,0,1,1.728,1.652c.042,3.809.014,7.618.01,11.428a.484.484,0,0,1-.045.119h-1.3Zm-.026-2.189c0-.934.008-1.812,0-2.69-.007-.477-.165-.623-.643-.625q-1.63-.007-3.26,0c-.487,0-.66.166-.667.659-.011.767,0,1.534,0,2.3,0,.12.023.241.035.355Z" transform="translate(-117.595 -91.607)" fill="#a39f9e"/>
    <path id="Контур_2809" data-name="Контур 2809" d="M108.641,103.01a7.627,7.627,0,0,1-.729.505q-3.537,1.9-7.083,3.777c-.973.518-1.936,1.054-2.924,1.54a.66.66,0,0,0-.415.705q.015,5.5.005,11c0,.208-.008.416-.013.624l-1.7.986a3.24,3.24,0,0,1-.04-.334q0-6.911-.007-13.821a.532.532,0,0,1,.332-.551c3.168-1.684,6.325-3.386,9.489-5.078.994-.532,2-1.046,3.079-1.611Z" transform="translate(-78.267 -90.167)" fill="#c01"/>
    <path id="Контур_2810" data-name="Контур 2810" d="M172.683,117.115h-1.436v-1.792q0-1.465,0-2.929c0-.509-.149-.711-.662-.72-1.278-.023-2.558-.008-3.892-.008v5.446H165.4c-.008-.136-.023-.288-.023-.44q0-3.361,0-6.723c0-.529.016-.547.532-.547q2.353,0,4.706,0c.609,0,.631-.021.633-.614q0-1.057,0-2.113c0-.507-.075-.584-.587-.585-1.585,0-3.169,0-4.754,0-.529,0-.536-.013-.533-.537s0-1.022,0-1.591c.175-.011.328-.029.48-.029,1.713,0,3.426.035,5.137-.011a1.732,1.732,0,0,1,1.731,1.738c.039,1.343.016,2.689-.008,4.033a2.4,2.4,0,0,1-.189.665,9.022,9.022,0,0,1,.186,1.237c.018,1.793,0,3.586,0,5.378A.841.841,0,0,1,172.683,117.115Z" transform="translate(-109.957 -91.609)" fill="#a39f9e"/>
    <path id="Контур_2811" data-name="Контур 2811" d="M235.4,104.03h1.434v.534c0,3.506.011,7.012,0,10.518a2.43,2.43,0,0,1-.48,1.714,1.29,1.29,0,0,1-1.005.474c-1.489,0-2.978.01-4.467,0a1.529,1.529,0,0,1-1.435-1.7c-.007-1.585,0-3.17,0-4.755v-6.78h1.433v9.98c0,.16,0,.321.006.48a.608.608,0,0,0,.689.663c1.024,0,2.049,0,3.073,0,.457,0,.633-.136.727-.581a2.553,2.553,0,0,0,.029-.525q0-4.731,0-9.462Z" transform="translate(-139.11 -91.658)" fill="#c01"/>
    <path id="Контур_2812" data-name="Контур 2812" d="M140.308,117.058v-.578q0-4.873,0-9.746c0-.658-.123-.786-.779-.791q-1.488-.012-2.976-.011c-.665,0-.808.145-.808.828q0,4.8,0,9.6c0,.7.008.7-.669.7-.1,0-.192-.008-.288,0-.319.031-.458-.078-.457-.43.011-3.649,0-7.3.016-10.946a1.761,1.761,0,0,1,1.16-1.838,2.764,2.764,0,0,1,.568-.062q1.944-.008,3.889,0a1.487,1.487,0,0,1,1.607,1.15,4.038,4.038,0,0,1,.2,1.169c.015,3.473.009,6.945.008,10.418,0,.535,0,.536-.524.539C140.97,117.06,140.684,117.058,140.308,117.058Z" transform="translate(-95.831 -91.544)" fill="#a39f9e"/>
    <path id="Контур_2813" data-name="Контур 2813" d="M205.425,103.978v2.092c-.153.008-.291.02-.429.02-1.6,0-3.2,0-4.8,0-.549,0-.711.161-.712.714q0,3.722,0,7.442c0,.645.151.783.793.784h5.141v2.18c-.174.01-.327.026-.48.026q-2.449,0-4.9,0a1.734,1.734,0,0,1-1.993-1.952c-.013-3.169-.024-6.337-.008-9.506a1.6,1.6,0,0,1,1.83-1.817C201.7,104.021,203.545,103.978,205.425,103.978Z" transform="translate(-124.818 -91.627)" fill="#c01"/>
    <path id="Контур_2814" data-name="Контур 2814" d="M157.733,106.09l-5.5-.038q0,.6,0,1.208,0,.941.014,1.868h5.493v1.939h-5.515v6.061h-1.3c-.008-.153-.026-.321-.025-.489,0-3.7.02-7.4.01-11.094a1.611,1.611,0,0,1,1.594-1.622c1.727.04,3.456.011,5.228.011Z" transform="translate(-103.37 -91.609)" fill="#a39f9e"/>
    <path id="Контур_2815" data-name="Контур 2815" d="M221.3,115.167v2.09c-.145.008-.283.023-.421.023q-2.642,0-5.283,0a1.589,1.589,0,0,1-1.674-1.622c-.011-.288,0-.576,0-.864V104.054h1.343v.495q0,4.731,0,9.462a1.029,1.029,0,0,0,1.142,1.154C218.023,115.171,219.639,115.167,221.3,115.167Z" transform="translate(-132.049 -91.669)" fill="#c01"/>
    <path id="Контур_2816" data-name="Контур 2816" d="M128.579,103.819H129.9V117.07h-1.318Z" transform="translate(-93.211 -91.562)" fill="#a39f9e"/>
  </g>
</svg>
