<svg xmlns="http://www.w3.org/2000/svg" width="79.125" height="79.113" viewBox="0 0 79.125 79.113">
  <g id="documentation" transform="translate(-1 -1)">
    <path id="Контур_8639" data-name="Контур 8639" d="M80.125,1h-48.5V6.1h-5.1v5.1h-5.1V21.416H18.308L17.526,24.4a19.243,19.243,0,0,0-4.4,1.826l-2.667-1.557-6.206,6.2L5.81,33.539a19.246,19.246,0,0,0-1.826,4.4L1,38.722V47.5l2.984.782a19.246,19.246,0,0,0,1.826,4.4L4.252,55.344l6.2,6.2,2.667-1.558a19.252,19.252,0,0,0,4.4,1.826l.784,2.985h3.111V80.113h48.5v-5.1h5.1v-5.1h5.1ZM20.276,62.249,19.607,59.7l-.749-.175a16.743,16.743,0,0,1-5.054-2.1l-.653-.407L10.87,58.352,7.449,54.931l1.332-2.28L8.374,52a16.77,16.77,0,0,1-2.1-5.053L6.1,46.2l-2.55-.669V40.691l2.55-.67.175-.748a16.717,16.717,0,0,1,2.1-5.052l.407-.653L7.45,31.286l3.422-3.42L13.152,29.2l.653-.406a16.735,16.735,0,0,1,5.053-2.1l.75-.175.667-2.552h1.143v5.169a14.028,14.028,0,0,0,0,27.942v5.169Zm1.143-11.6v3.868a11.479,11.479,0,0,1,0-22.818v3.868S21.475,35.785,21.419,50.65Zm2.552,26.911V13.76H57.153V23.968h10.21V77.561Zm35.734-62,5.853,5.852H59.706ZM72.468,72.457H69.916V22.164L58.958,11.208H29.077V8.656H72.468Zm5.1-5.1H75.02V6.1H34.182V3.552H77.573Z" fill="#707070"/>
    <path id="Контур_8640" data-name="Контур 8640" d="M21,46.964H38.964V29H21Zm2.566-15.4H36.4V44.4H23.566Z" transform="translate(5.484 7.67)" fill="#707070"/>
    <path id="Контур_8641" data-name="Контур 8641" d="M37,33H54.964v2.566H37Z" transform="translate(9.871 8.825)" fill="#707070"/>
    <path id="Контур_8642" data-name="Контур 8642" d="M37,29H54.964v2.566H37Z" transform="translate(9.871 7.722)" fill="#707070"/>
    <path id="Контур_8647" data-name="Контур 8647" d="M37,13h7.7v2.566H37Z" transform="translate(9.917 3.309)" fill="#707070"/>
    <path id="Контур_8648" data-name="Контур 8648" d="M41,25H53.832v2.566H41Z" transform="translate(10.995 6.619)" fill="#707070"/>
    <path id="Контур_8649" data-name="Контур 8649" d="M37,25h2.566v2.566H37Z" transform="translate(9.935 6.619)" fill="#707070"/>
    <path id="Контур_8650" data-name="Контур 8650" d="M37,41H54.964v2.566H37Z" transform="translate(9.871 11.031)" fill="#707070"/>
    <path id="Контур_8651" data-name="Контур 8651" d="M37,62.964H54.964V45H37Zm2.566-15.4H52.4V60.4H39.566Z" transform="translate(9.871 12.016)" fill="#707070"/>
    <path id="Контур_8652" data-name="Контур 8652" d="M21,49h2.566v2.566H21Z" transform="translate(5.52 13.238)" fill="#707070"/>
    <path id="Контур_8653" data-name="Контур 8653" d="M25,49H37.832v2.566H25Z" transform="translate(6.597 13.238)" fill="#707070"/>
    <path id="Контур_8654" data-name="Контур 8654" d="M21,45H38.964v2.566H21Z" transform="translate(5.484 12.134)" fill="#707070"/>
    <path id="Контур_8656" data-name="Контур 8656" d="M21,57H33.832v2.566H21Z" transform="translate(5.498 15.414)" fill="#707070"/>
    <path id="Контур_8657" data-name="Контур 8657" d="M33,57h2.566v2.566H33Z" transform="translate(8.831 15.414)" fill="#707070"/>
    <path id="Контур_8658" data-name="Контур 8658" d="M29.982,13a8.982,8.982,0,1,0,8.982,8.982A8.993,8.993,0,0,0,29.982,13Zm0,15.4A6.416,6.416,0,1,1,36.4,21.982,6.423,6.423,0,0,1,29.982,28.4Z" transform="translate(5.484 3.287)" fill="#707070"/>
  </g>
</svg>
