<svg xmlns="http://www.w3.org/2000/svg" width="20" height="20" viewBox="0 0 20 20"><defs><style>.ame{fill:#fff;}</style></defs><path class="ame" d="M20,10a.781.781,0,0,1-1.562,0A8.437,8.437,0,1,0,10,18.437a8.344,8.344,0,0,0,3.861-.933.781.781,0,1,1,.716,1.389A10,10,0,1,1,20,10Zm-.943,2.843a.781.781,0,0,1,.022,1.1,3.3,3.3,0,0,1-5.3-.743A4.958,4.958,0,1,1,14.961,10v1.66a1.738,1.738,0,0,0,2.992,1.2A.781.781,0,0,1,19.057,12.843ZM13.4,10A3.4,3.4,0,1,0,10,13.4,3.4,3.4,0,0,0,13.4,10Z" transform="translate(0 0)"/></svg>