<svg xmlns="http://www.w3.org/2000/svg" width="32.114" height="32.115" viewBox="0 0 32.114 32.115"><defs><style>.a{fill:#909ebb;}</style></defs><path class="a" d="M16.058,32.115A2.514,2.514,0,1,1,18.572,29.6,2.516,2.516,0,0,1,16.058,32.115Zm0-3.66A1.146,1.146,0,1,0,17.2,29.6,1.147,1.147,0,0,0,16.058,28.455Zm4.868.83a.684.684,0,0,1-.247-1.321,12.871,12.871,0,0,0,7.41-7.517.684.684,0,1,1,1.282.476,14.239,14.239,0,0,1-8.2,8.316A.683.683,0,0,1,20.926,29.285Zm-9.758,0a.681.681,0,0,1-.247-.046,14.239,14.239,0,0,1-8.2-8.316.684.684,0,0,1,1.282-.476,12.871,12.871,0,0,0,7.41,7.517.684.684,0,0,1-.247,1.321ZM16.8,26.124H15.315c-2.147,0-3.093-1.719-3.618-3.012l-.195-.48a.684.684,0,0,1,1.267-.514l.195.48a4.718,4.718,0,0,0,.954,1.595l1.588-2.176a.684.684,0,0,1,1.1,0L18.2,24.193a4.718,4.718,0,0,0,.954-1.595l.195-.48a.684.684,0,1,1,1.267.514l-.195.48C19.895,24.405,18.949,26.124,16.8,26.124Zm-1.6-1.37.114,0H16.8l.114,0-.857-1.175ZM9.739,20.663a.681.681,0,0,1-.257-.05L9,20.419C7.71,19.894,5.991,18.948,5.991,16.8V15.314C5.991,13.167,7.71,12.221,9,11.7l.48-.195A.684.684,0,0,1,10,12.769l-.48.195a4.717,4.717,0,0,0-1.595.954L10.1,15.505a.684.684,0,0,1,0,1.1L7.922,18.2a4.717,4.717,0,0,0,1.595.954l.48.195a.684.684,0,0,1-.257,1.317ZM7.361,15.2q0,.056,0,.114V16.8q0,.058,0,.114l1.175-.857Zm15.016,5.464a.684.684,0,0,1-.257-1.317l.48-.195a4.718,4.718,0,0,0,1.595-.954L22.017,16.61a.684.684,0,0,1,0-1.1l2.176-1.588a4.718,4.718,0,0,0-1.595-.954l-.48-.195a.684.684,0,0,1,.514-1.267l.48.195c1.293.525,3.012,1.471,3.012,3.618V16.8c0,2.147-1.719,3.093-3.012,3.618l-.48.195A.681.681,0,0,1,22.377,20.663Zm1.2-4.606,1.175.857q0-.056,0-.114V15.314c0-.038,0-.076,0-.114ZM29.6,18.571a2.514,2.514,0,1,1,2.514-2.513A2.516,2.516,0,0,1,29.6,18.571Zm0-3.66a1.146,1.146,0,1,0,1.146,1.146A1.147,1.147,0,0,0,29.6,14.911ZM2.514,18.571a2.514,2.514,0,1,1,2.514-2.513A2.516,2.516,0,0,1,2.514,18.571Zm0-3.66a1.146,1.146,0,1,0,1.146,1.146A1.147,1.147,0,0,0,2.514,14.911ZM28.73,12.03a.684.684,0,0,1-.641-.446,12.871,12.871,0,0,0-7.41-7.517.684.684,0,1,1,.494-1.275,14.239,14.239,0,0,1,8.2,8.316.684.684,0,0,1-.641.922Zm-25.366,0a.684.684,0,0,1-.641-.922,14.239,14.239,0,0,1,8.2-8.316.684.684,0,1,1,.494,1.275,12.872,12.872,0,0,0-7.41,7.517A.684.684,0,0,1,3.364,12.03Zm8.771-1.608a.684.684,0,0,1-.633-.941L11.7,9c.525-1.293,1.471-3.012,3.618-3.012H16.8c2.147,0,3.093,1.719,3.618,3.012l.195.48A.684.684,0,1,1,19.347,10l-.195-.48A4.718,4.718,0,0,0,18.2,7.921L16.61,10.1a.684.684,0,0,1-.552.281h0a.684.684,0,0,1-.552-.281L13.918,7.921a4.719,4.719,0,0,0-.954,1.595L12.769,10A.684.684,0,0,1,12.136,10.423ZM15.2,7.36l.857,1.175.857-1.175-.114,0H15.315Zm.857-2.333a2.514,2.514,0,1,1,2.514-2.514A2.516,2.516,0,0,1,16.058,5.027Zm0-3.66A1.146,1.146,0,1,0,17.2,2.514,1.147,1.147,0,0,0,16.058,1.367Z" transform="translate(-0.001)"/></svg>