<svg xmlns="http://www.w3.org/2000/svg" width="22.246" height="29.848" viewBox="0 0 22.246 29.848"><defs><style>.a{fill:#909ebb;}</style></defs><path class="a" d="M64.479,29.848h-.042L45.12,28.669A.684.684,0,0,1,45.2,27.3L63.8,28.438v-.469a.684.684,0,0,1,1.367,0v1.2a.684.684,0,0,1-.684.684Zm1.561-3.427H45.162a.684.684,0,0,1-.684-.684V.684A.684.684,0,0,1,45.162,0H66.04a.684.684,0,0,1,.684.684V25.738A.684.684,0,0,1,66.04,26.421ZM45.845,25.054H65.356V1.367H45.845Zm10.789-2.695H54.567a.684.684,0,0,1,0-1.367h2.067a.684.684,0,0,1,0,1.367ZM53.272,16.6a.684.684,0,0,1-.684-.684v-4.8a4.073,4.073,0,1,1,1.367.984v2.735l1.284-.6a.684.684,0,0,1,.567-.007l1.44.637V13.383a.684.684,0,0,1,1.367,0V15.92a.684.684,0,0,1-.96.625l-2.115-.935-1.976.928A.684.684,0,0,1,53.272,16.6ZM55.6,5.655a2.716,2.716,0,1,0,2.716,2.716A2.719,2.719,0,0,0,55.6,5.655Z" transform="translate(-44.478)"/></svg>