<svg xmlns="http://www.w3.org/2000/svg" width="30.376" height="27.705" viewBox="0 0 30.376 27.705"><defs><style>.a{fill:#909ebb;}</style></defs><path class="a" d="M.684,43.336a.684.684,0,0,1-.633-.941l1.886-4.648c.812-2,2.251-4.643,5.413-4.771a.673.673,0,0,1,.081,0h2.821a.673.673,0,0,1,.081,0c3.162.128,4.6,2.771,5.413,4.771l.243.6,5.069-4.684a.684.684,0,0,1,.928,1L16.19,40.021a.684.684,0,0,1-1.1-.245l-.615-1.515c-.977-2.407-2.1-3.605-3.683-3.867l-.4,1.919.538,4.839a.684.684,0,0,1-.251.608l-1.2.962a.683.683,0,0,1-.428.151H8.628a.684.684,0,0,1-.428-.151L7,41.76a.684.684,0,0,1-.251-.609l.538-4.839-.4-1.919c-1.579.262-2.706,1.46-3.683,3.867L1.317,42.909A.684.684,0,0,1,.684,43.336ZM8.151,40.93l.689.554.689-.554-.441-3.966h-.5ZM8.536,35.6h.61l.263-1.258H8.272Zm21.157,5.558H19.3a.684.684,0,0,1,0-1.367h9.709V20.1H1.909V34.488a.684.684,0,1,1-1.367,0V19.418a.684.684,0,0,1,.684-.684H29.693a.684.684,0,0,1,.684.684V40.47A.684.684,0,0,1,29.693,41.154ZM12.225,37.918a.684.684,0,0,1-.684-.684v-.093a.684.684,0,1,1,1.367,0v.093A.684.684,0,0,1,12.225,37.918Zm-3.385-6.2a3.762,3.762,0,1,1,.728-7.453l.041.008a3.762,3.762,0,0,1-.769,7.445ZM7.62,25.9a2.394,2.394,0,1,0,2.128-.156,3.767,3.767,0,0,1-1.161,1.012A.684.684,0,0,1,7.62,25.9Zm18.366,1.251H22.477a.684.684,0,1,1,0-1.367h3.509a.684.684,0,1,1,0,1.367Zm-6.686,0H18a.684.684,0,0,1,0-1.367h1.3a.684.684,0,1,1,0,1.367ZM25.985,24.3H18.968a.684.684,0,1,1,0-1.367h7.018a.684.684,0,1,1,0,1.367ZM18.968,17H11.95a.684.684,0,0,1,0-1.367h7.018a.684.684,0,0,1,0,1.367Z" transform="translate(0 -15.631)"/></svg>