<svg xmlns="http://www.w3.org/2000/svg" width="56" height="60" viewBox="0 0 56 60"><g transform="translate(-32 -16)"><path d="M222.546,25.2l.361,1.967A10.1,10.1,0,0,1,224.726,27a9.891,9.891,0,0,1,4.545,1.09l.91-1.781a11.847,11.847,0,0,0-3.455-1.144V23h2a1,1,0,0,0,1-1V17a1,1,0,0,0-1-1h-5a1,1,0,0,0-1,1v5a1,1,0,0,0,1,1h1v2a12.1,12.1,0,0,0-2.182.2Zm2.181-7.2h3v3h-3Z" transform="translate(-166.726)" fill="#b23634"/><path d="M70,32H65a1,1,0,0,0-1,1v5a1,1,0,0,0,1,1h5a1,1,0,0,0,1-1V36h3.043c-.027.331-.043.664-.043,1,0,.364.016.73.049,1.09l1.992-.18C76.014,37.61,76,37.3,76,37a9.966,9.966,0,0,1,5.455-8.91l-.91-1.781a12.119,12.119,0,0,0-2.3,1.526L75,24.586V17a1,1,0,0,0-1-1H66a1,1,0,0,0-1,1v8a1,1,0,0,0,1,1h7.586l3.247,3.247A11.919,11.919,0,0,0,74.378,34H71V33a1,1,0,0,0-1-1Zm-1,5H66V34h3Zm4-13H67V18h6Z" transform="translate(-28)" fill="#b23634"/><path d="M76,53H87a1,1,0,0,0,1-1V41a1,1,0,0,0-1-1H76a1,1,0,0,0-1,1v6.446L68.21,51.69a12.037,12.037,0,0,0-2.573-2.946l-1.274,1.542a10,10,0,0,1,1.861,13.4l-2-.666A8,8,0,1,0,50,58a8.092,8.092,0,0,0,.081,1.141l1.98-.283A6.085,6.085,0,0,1,52,58a6,6,0,1,1,10.152,4.33l-.335-.112-1.5-5.253A2.71,2.71,0,0,0,55,57.71V63.2a6.009,6.009,0,0,1-2.144-2.107l-1.713,1.032A7.992,7.992,0,0,0,55,65.418v1.167l-.7.7a9.969,9.969,0,0,1-5.614-5.654l-1.863.728q.129.329.275.648L40.713,67H33a1,1,0,0,0-1,1v8a1,1,0,0,0,1,1h8a1,1,0,0,0,1-1V68.554l6.077-3.8a11.942,11.942,0,0,0,4.7,4.052l-1.485,1.485A1,1,0,0,0,51,71v6a1,1,0,0,0,.232.64L56,83.362V96a1,1,0,0,0,1,1H70a1,1,0,0,0,1-1V83.236l2.894-5.789A1,1,0,0,0,74,77V69.072A3.87,3.87,0,0,0,71.35,65.4l-3.165-1.055a12.056,12.056,0,0,0,1.6-4.114L76,61.781V65a1,1,0,0,0,1,1h6a1,1,0,0,0,1-1V59a1,1,0,0,0-1-1H77a1,1,0,0,0-1,1v.719l-6-1.5c0-.073,0-.145,0-.218a12,12,0,0,0-.88-4.52L75,49.8V52a1,1,0,0,0,1,1ZM40,75H34V69h6Zm32-5.928v7.692l-2.894,5.789A1,1,0,0,0,69,83V95H58V83a1,1,0,0,0-.232-.64L53,76.638V71.414l2-2V75h2V57.71a.71.71,0,0,1,1.393-.2L60,63.14V70h2V64.387l2,.667V70h2V65.721l2,.667V70h2V67.054l.718.239A1.873,1.873,0,0,1,72,69.072ZM78,60h4v4H78ZM77,42h9v9H77Z" transform="translate(0 -21)" fill="#b23634"/></g></svg>