<svg xmlns="http://www.w3.org/2000/svg" width="60" height="60.004" viewBox="0 0 60 60.004"><g transform="translate(-2 -2)"><path d="M46,44H58v2H46Z" fill="#b23634"/><path d="M42,44h2v2H42Z" fill="#b23634"/><path d="M37,8H53v2H37Z" fill="#b23634"/><path d="M37,14H53v2H37Z" fill="#b23634"/><path d="M37,20H53v2H37Z" fill="#b23634"/><path d="M37,26H53v2H37Z" fill="#b23634"/><path d="M37,32H53v2H37Z" fill="#b23634"/><path d="M11,8H27v2H11Z" fill="#b23634"/><path d="M11,14H27v2H11Z" fill="#b23634"/><path d="M11,20H27v2H11Z" fill="#b23634"/><path d="M27,26H11v2H27Z" fill="#b23634"/><path d="M61,6H59V3a1,1,0,0,0-1-1H36a4.982,4.982,0,0,0-4,2.031A4.982,4.982,0,0,0,28,2H6A1,1,0,0,0,5,3V6H3A1,1,0,0,0,2,7V45a16.992,16.992,0,0,0,33.719,3H38v1a1,1,0,0,0,1,1H57a5.006,5.006,0,0,0,5-5V7A1,1,0,0,0,61,6ZM60,8V41.026a4.967,4.967,0,0,0-1-.6V8ZM28,4a3,3,0,0,1,3,3V32.971a16.97,16.97,0,0,0-24,0V4ZM4,8H5V35.378a16.945,16.945,0,0,0-1,1.639ZM19,60A15,15,0,1,1,34,45,15,15,0,0,1,19,60ZM35.949,46c.02-.333.051-.662.051-1s-.031-.667-.051-1H38v2ZM38,41v1H35.719A16.9,16.9,0,0,0,33,35.378V7a3,3,0,0,1,3-3H57V40H39A1,1,0,0,0,38,41Zm19,7H40V42H57a3,3,0,1,1,0,6Z" fill="#b23634"/><path d="M19,32A13,13,0,1,0,32,45,13,13,0,0,0,19,32Zm0,24A11,11,0,1,1,30,45,11,11,0,0,1,19,56Z" fill="#b23634"/><path d="M10,45h2a7.008,7.008,0,0,1,7-7V36A9.01,9.01,0,0,0,10,45Z" fill="#b23634"/><path d="M38,56h4v2H38Z" fill="#b23634"/><path d="M44,56H62v2H44Z" fill="#b23634"/><path d="M38,52h4v2H38Z" fill="#b23634"/><path d="M44,52H62v2H44Z" fill="#b23634"/><path d="M38,60h4v2H38Z" fill="#b23634"/><path d="M44,60H62v2H44Z" fill="#b23634"/></g></svg>