<svg xmlns="http://www.w3.org/2000/svg" width="62" height="62" viewBox="0 0 62 62"><g transform="translate(-1 -1)"><path d="M62,31H61V24.828A7.829,7.829,0,0,0,53.171,17H52V15.918a8,8,0,1,0-8,0V17H42.829A7.829,7.829,0,0,0,35,24.828V31H33V28a1,1,0,0,0-1-1H29v-.343a12.559,12.559,0,0,1,2.787-7.918,3.06,3.06,0,1,0-1.452-1.39A14.547,14.547,0,0,0,27,26.657V27H24a1,1,0,0,0-1,1v3H22a1,1,0,0,0-1,1v4a1,1,0,0,0,1,1h1v6a4.98,4.98,0,0,0-3.305,8.723A8.04,8.04,0,0,0,16,55.136a8.05,8.05,0,0,0-3.695-3.413,5,5,0,1,0-6.61,0A8.005,8.005,0,0,0,1,59v3a1,1,0,0,0,1,1H44a1,1,0,0,0,1-1V61H60a1,1,0,0,0,1-1V37h1a1,1,0,0,0,1-1V32A1,1,0,0,0,62,31ZM33,15a1,1,0,1,1-1,1A1,1,0,0,1,33,15Zm26,9.828V31H57V27H55v4H49V23.618l2.553,1.276a1,1,0,0,0,.83.03,1,1,0,0,0,.566-.607l1.707-5.12A5.814,5.814,0,0,1,59,24.828ZM44.5,19l1.981,2.641-1.9.949L43.388,19Zm7,0h1.113l-1.2,3.59-1.9-.949ZM48,3a6.006,6.006,0,0,1,5.9,4.922A8.586,8.586,0,0,1,48.88,5.465l-.171-.172a1.028,1.028,0,0,0-1.416,0l-.17.171A8.58,8.58,0,0,1,42.1,7.921,6,6,0,0,1,48,3ZM42.075,9.947A10.555,10.555,0,0,0,48,7.38a10.558,10.558,0,0,0,5.925,2.567,6,6,0,0,1-11.85,0ZM48,17a7.953,7.953,0,0,0,2-.263v.93l-2,2.666-2-2.666v-.93A7.953,7.953,0,0,0,48,17ZM37,24.828A5.816,5.816,0,0,1,41.345,19.2l1.707,5.12a1,1,0,0,0,.566.607A.973.973,0,0,0,44,25a1,1,0,0,0,.447-.1L47,23.618V31H41V27H39v4H37ZM25,29h6v2H25ZM20,48a3,3,0,1,1,3,3A3,3,0,0,1,20,48ZM6,48a3,3,0,1,1,3,3A3,3,0,0,1,6,48ZM3,59a6,6,0,0,1,12,0v2H3Zm14,0a6,6,0,0,1,12,0v2H17Zm26,2H31V59a6,6,0,0,1,12,0ZM34,48a3,3,0,1,1,3,3A3,3,0,0,1,34,48ZM59,59H45a8.005,8.005,0,0,0-4.695-7.277,5,5,0,1,0-6.61,0A8.04,8.04,0,0,0,30,55.136a8.05,8.05,0,0,0-3.695-3.413A4.968,4.968,0,0,0,25,43.424V37H59Zm2-24H23V33H61Z" fill="#b23634"/><path d="M4,21H20a3,3,0,0,0,3-3V16.414l3.707-3.707a1,1,0,0,0,0-1.414L23,7.586V6a3,3,0,0,0-3-3H4A3,3,0,0,0,1,6V18A3,3,0,0,0,4,21ZM3,6A1,1,0,0,1,4,5H20a1,1,0,0,1,1,1V8a1,1,0,0,0,.293.707L24.586,12l-3.293,3.293A1,1,0,0,0,21,16v2a1,1,0,0,1-1,1H4a1,1,0,0,1-1-1Z" fill="#b23634"/><path d="M5,7H19V9H5Z" fill="#b23634"/><path d="M5,15H19v2H5Z" fill="#b23634"/><path d="M7,11H17v2H7Z" fill="#b23634"/></g></svg>