<svg xmlns="http://www.w3.org/2000/svg" xmlns:xlink="http://www.w3.org/1999/xlink" width="1920" height="746" viewBox="0 0 1920 746"><defs><style>.a{fill:#d8dde7;}.b{clip-path:url(#a);}.c{opacity:0.748;}.d,.e{fill:#fff;}.d{opacity:0.2;mix-blend-mode:lighten;isolation:isolate;}</style><clipPath id="a"><rect class="a" width="1920" height="746" transform="translate(0 915)"/></clipPath></defs><g transform="translate(0 -4104)"><rect class="a" width="1920" height="746" transform="translate(0 4104)"/><g class="b" transform="translate(0 3189)"><g transform="translate(-147.245 -53.245)"><g class="c"><path class="d" d="M2214.489,471.253v-3.583l-15.624,9.02L2147.1,446.8l51.765-29.891,15.624,9.02v-3.583l-12.519-7.229,12.519-7.229v-3.583l-15.624,9.02L2147.1,383.436l51.765-29.891,15.624,9.02v-3.583l-12.519-7.224,12.519-7.229v-3.583l-15.624,9.015L2147.1,320.077l51.765-29.891,15.624,9.02v-3.583L2201.97,288.4l12.519-7.229v-3.583l-15.624,9.02L2147.1,256.713l51.765-29.891,15.624,9.02v-3.583l-12.519-7.229,12.519-7.229V214.22l-15.624,9.02L2147.1,193.354l51.765-29.9,15.624,9.02V168.9l-12.519-7.229,12.519-7.224v-3.587l-15.624,9.02L2147.1,129.991l51.765-29.891,15.624,9.02v-3.583l-12.519-7.229,12.519-7.229V87.5l-15.624,9.02L2147.1,66.627l51.765-29.891,15.624,9.02V42.174l-12.519-7.229,12.519-7.229V24.133l-15.624,9.02L2147.1,3.263,2152.749,0h-6.206l-2.549,1.471L2141.441,0h-6.206l5.659,3.263L2089.12,33.153,2037.355,3.263,2043,0h-6.2l-2.554,1.471L2031.7,0h-6.205l5.654,3.263-51.77,29.891L1927.61,3.263,1933.264,0h-6.205L1924.5,1.471,1921.96,0h-6.21l5.654,3.263-51.77,29.891-51.77-29.891L1823.524,0h-6.211l-2.554,1.471L1812.215,0H1806l5.659,3.263-51.77,29.891L1708.119,3.263,1713.779,0h-6.211l-2.544,1.471L1702.47,0h-6.206l5.654,3.263-51.77,29.891-51.77-29.891L1604.033,0h-6.21l-2.544,1.471L1592.725,0h-6.2l5.649,3.263L1540.4,33.153l-51.77-29.891L1494.288,0h-6.205l-2.549,1.471L1482.979,0h-6.2l5.649,3.263-51.765,29.891L1373.239,0h-6.329L1315.2,29.851,1263.494,0h-6.329l-51.711,29.851L1153.749,0h-6.328l-51.706,29.851L1044,0h-6.328L985.969,29.851,934.263,0H927.93L870.511,33.153,818.741,3.263,824.4,0H818.19l-2.549,1.471L813.087,0h-6.206l5.654,3.263-51.77,29.891L709,3.263,714.65,0h-6.206L705.9,1.471,703.341,0h-6.2l5.649,3.263-51.77,29.891L599.251,3.263,604.9,0H598.7L596.15,1.471,593.6,0H587.4l5.654,3.263L541.28,33.153,489.51,3.263,495.165,0h-6.206l-2.554,1.471L483.856,0h-6.206L483.3,3.263l-51.77,29.891L379.765,3.263,385.42,0h-6.206l-2.549,1.471L374.116,0h-6.21l5.654,3.263L321.79,33.153,270.025,3.263,275.679,0h-6.21L266.92,1.471,264.371,0h-6.21l5.654,3.263L212.05,33.153,160.28,3.263,165.934,0h-6.205L157.18,1.471,154.625,0H148.42l5.654,3.263L102.3,33.153,50.535,3.263,56.189,0H49.983L47.434,1.471,44.88,0H38.675l5.654,3.263L0,28.857V32.44L47.434,5.054,99.2,34.945,47.434,64.835,0,37.449v3.583L44.329,66.627,0,92.221V95.8L47.434,68.418,99.2,98.309,47.434,128.194,0,100.813V104.4l44.329,25.595L0,155.585v3.583l47.434-27.386L99.2,161.668,47.434,191.558,0,164.172v3.583l44.329,25.6L0,218.944v3.583l47.434-27.386L99.2,225.031,47.434,254.922,0,227.536v3.583l44.329,25.595L0,282.308v3.583L47.434,258.5,99.2,288.4,47.434,318.286,0,290.9v3.583l44.329,25.595L0,345.672v3.583l47.434-27.386L99.2,351.759,47.434,381.645,0,354.259v3.583l44.329,25.595L0,409.031v3.583l47.434-27.386L99.2,415.118,47.434,445.009,0,417.623v3.583L44.329,446.8,0,472.395v3.583l47.434-27.386L99.2,478.482,47.434,508.373,0,480.987v3.583l44.329,25.59L0,535.759v3.583l47.434-27.386L99.2,541.841l-55.579,32.09L0,548.746v3.583l40.52,23.395L0,599.118V602.7l43.621-25.186L95.39,607.4,43.621,637.3,0,612.109v3.583l40.52,23.395L0,662.482v3.583l43.621-25.186,51.77,29.891-51.77,29.886L0,675.468v3.583l40.52,23.4L0,725.846v3.583l43.621-25.191,51.77,29.891-51.77,29.891L0,738.832v3.583L40.52,765.81,0,789.2v3.583L43.621,767.6l57.488,33.193L49.339,830.68,0,802.2v3.583l46.239,26.7L0,859.168v3.583l49.339-28.488,51.77,29.891-51.77,29.891L0,865.555v3.588l46.239,26.692L0,922.532v3.583l49.339-28.488,51.77,29.891-51.77,29.891L0,928.919V932.5l46.239,26.7L0,985.891v3.583L49.339,960.99l51.77,29.891-51.77,29.886L0,992.283v3.583l46.239,26.7L0,1049.255v3.583l49.339-28.488,51.77,29.891-51.77,29.891L0,1055.642v3.583l46.239,26.7L0,1112.618v3.578l49.339-28.483,51.77,29.886-51.77,29.9L0,1119.006v3.583l46.239,26.7L0,1175.982v3.578l49.339-28.483,51.77,29.886-51.77,29.9L0,1182.37v3.583l46.239,26.7L0,1239.341v3.583l49.339-28.488,51.77,29.891-51.77,29.891L0,1245.734v3.578l46.239,26.7L0,1302.705v3.583L49.339,1277.8l51.77,29.886-51.77,29.9L0,1309.093v3.583l46.239,26.7L0,1366.069v3.578l49.339-28.483,51.77,29.886-51.77,29.9L0,1372.457v3.583l46.239,26.7L0,1429.428v3.583l49.339-28.488,51.77,29.891L49.339,1464.3,0,1435.821v3.578l46.239,26.7L0,1492.792v3.583l49.339-28.488,51.77,29.891-51.77,29.891L0,1499.185v3.578l46.239,26.7L0,1556.156v3.578l49.339-28.483,51.77,29.886-57.488,33.188L0,1569.143v3.583l40.52,23.395L0,1619.52v3.578l43.621-25.186L95.39,1627.8l-51.77,29.886L0,1632.5v3.588l40.52,23.395L0,1682.879v3.583l43.621-25.186,51.77,29.886-51.77,29.891L0,1695.866v3.583l40.52,23.4L0,1746.243v3.578l43.621-25.181,51.77,29.886-51.77,29.891L0,1759.23v3.583l40.52,23.395L0,1809.6v3.583L43.621,1788,99.2,1820.084l-51.765,29.9L0,1822.589v3.588l44.329,25.594L0,1877.36v3.587l47.434-27.391L99.2,1883.448l-51.765,29.9L0,1885.953v3.587l44.329,25.59L0,1940.724v3.587l47.434-27.391L99.2,1946.812,47.434,1976.7,0,1949.316v3.583l44.329,25.595L0,2004.088v3.583l47.434-27.386L99.2,2010.171l-51.765,29.9L0,2012.675v3.588l44.329,25.595L0,2067.447v3.587l47.434-27.391L99.2,2073.534l-51.765,29.9L0,2076.039v3.588l44.329,25.59L0,2130.811v3.588l47.434-27.391L99.2,2136.9l-51.765,29.891L0,2139.4v3.583l44.329,25.594L0,2194.175v3.583l47.434-27.386L99.2,2200.258l-24.64,14.232h6.205l21.54-12.436,21.54,12.436h6.205L105.4,2200.258l51.77-29.886,51.77,29.886L184.3,2214.489h6.206l21.54-12.436,21.545,12.436h6.2l-24.64-14.232,51.77-29.886,51.77,29.886-24.645,14.232h6.206l21.54-12.436,21.54,12.436h6.205l-24.645-14.232,51.775-29.886,51.765,29.886-24.64,14.232H410l21.54-12.436,21.54,12.436h6.205l-24.645-14.232,51.77-29.886,51.77,29.886-24.645,14.232h6.21l21.54-12.436,21.54,12.436h6.206l-24.645-14.232,51.77-29.886,51.77,29.886-24.645,14.232h6.206l21.54-12.436,21.54,12.436h6.21l-24.645-14.232,51.77-29.886,51.765,29.886-24.64,14.232h6.206l21.54-12.436,21.54,12.436h6.206l-24.64-14.232,51.77-29.886,51.765,29.886-24.64,14.232h6.206l21.54-12.436,21.54,12.436h6.205l-24.645-14.232,51.77-29.886,51.77,29.886-24.64,14.232h6.2l21.54-12.436,21.545,12.436h6.2l-24.64-14.232,51.77-29.886,51.77,29.886-24.645,14.232h6.206l21.54-12.436,21.54,12.436h6.21l-24.645-14.232,57.483-33.188,57.483,33.188-24.645,14.232h6.21l21.54-12.436,21.54,12.436h6.206l-24.645-14.232,51.77-29.886,51.77,29.886-24.645,14.232h6.21l21.54-12.436,21.54,12.436h6.206l-24.645-14.232,51.77-29.886,51.77,29.886-24.645,14.232h6.21l21.54-12.436,21.54,12.436h6.2l-24.64-14.232,51.77-29.886,51.77,29.886-24.645,14.232h6.206l21.54-12.436,21.54,12.436h6.205l-24.645-14.232,51.775-29.886,51.765,29.886-24.64,14.232h6.2l21.54-12.436,21.545,12.436h6.205l-24.645-14.232,51.775-29.886,51.765,29.886-24.645,14.232h6.205l21.54-12.436,21.539,12.436h6.21l-24.645-14.232,51.765-29.886,51.775,29.886-24.645,14.232h6.205l21.54-12.436,21.544,12.436h6.2l-24.64-14.232,51.765-29.886,51.775,29.886-24.645,14.232h6.205l21.54-12.436,21.54,12.436h6.205l-24.645-14.232,51.77-29.886,51.77,29.886-24.64,14.232h6.2l21.54-12.436,21.54,12.436h6.21l-24.645-14.232,51.77-29.886,51.765,29.886-24.64,14.232h6.205l21.54-12.436,15.624,9.02v-3.587l-12.519-7.229,12.519-7.224v-3.583l-15.624,9.021L2147.1,2168.58l51.765-29.891,15.624,9.02v-3.583l-12.519-7.229,12.519-7.224v-3.587l-15.624,9.02-51.765-29.891,51.765-29.886,15.624,9.02v-3.587l-12.519-7.229,12.519-7.224v-3.588l-15.624,9.021-51.765-29.886,51.765-29.891,15.624,9.02V2017.4l-12.519-7.229,12.519-7.224v-3.583l-15.624,9.015-51.765-29.886,51.765-29.891,15.624,9.02v-3.583l-12.519-7.229,12.519-7.224V1936l-15.624,9.02L2147.1,1915.13l51.765-29.886,15.624,9.02v-3.587l-12.519-7.229,12.519-7.224v-3.587l-15.624,9.02-51.765-29.886,51.765-29.891,15.624,9.02v-3.588l-12.519-7.229,12.519-7.224v-3.583l-15.624,9.015-51.765-29.886,55.579-32.085,11.811,6.816v-3.578l-8.715-5.034,8.715-5.025v-3.587l-11.811,6.821-51.775-29.886,51.775-29.891,11.811,6.816V1696.2l-8.715-5.034,8.715-5.024v-3.588l-11.811,6.825-51.775-29.891,51.775-29.891,11.811,6.821v-3.583l-8.715-5.029,8.715-5.029v-3.583l-11.811,6.821-57.488-33.188,51.765-29.891,17.534,10.118v-3.578l-14.429-8.336,14.429-8.327v-3.578l-17.534,10.118-51.765-29.891,51.765-29.891,17.534,10.118v-3.578l-14.429-8.331,14.429-8.332v-3.578l-17.534,10.118L2145.19,1466.1l51.765-29.886,17.534,10.118v-3.583l-14.429-8.331,14.429-8.327V1422.5l-17.534,10.118-51.765-29.886,51.765-29.891,17.534,10.118v-3.578l-14.429-8.336,14.429-8.326v-3.578l-17.534,10.118-51.765-29.891,51.765-29.891,17.534,10.118v-3.578l-14.429-8.331,14.429-8.331v-3.583l-17.534,10.123-51.765-29.891,51.765-29.886,17.534,10.118v-3.583l-14.429-8.331,14.429-8.326v-3.588l-17.534,10.123-51.765-29.886,51.765-29.891,17.534,10.118v-3.583l-14.429-8.331,14.429-8.327v-3.583l-17.534,10.118-51.765-29.886,51.765-29.891,17.534,10.118v-3.578l-14.429-8.331,14.429-8.327v-3.587l-17.534,10.123-51.765-29.891,51.765-29.891,17.534,10.123v-3.583l-14.429-8.327,14.429-8.331v-3.583l-17.534,10.118-51.765-29.886,51.765-29.891,17.534,10.118v-3.583l-14.429-8.326,14.429-8.331v-3.583l-17.534,10.123L2145.19,959.2l51.765-29.891,17.534,10.118v-3.583l-14.429-8.326,14.429-8.331V915.6l-17.534,10.123-51.765-29.891,51.765-29.891,17.534,10.123v-3.583l-14.429-8.331,14.429-8.326v-3.583l-17.534,10.118-51.765-29.886,51.765-29.891,17.534,10.123V809.12l-14.429-8.327,14.429-8.331V788.88L2196.956,799l-51.765-29.886,57.488-33.193,11.811,6.821v-3.583l-8.715-5.029,8.715-5.029v-3.583l-11.811,6.821L2150.9,702.451l51.775-29.891,11.811,6.821V675.8l-8.715-5.029,8.715-5.029v-3.583l-11.811,6.821L2150.9,639.087l51.775-29.891,11.811,6.821v-3.583l-8.715-5.029,8.715-5.029v-3.583l-11.811,6.821-55.579-32.09,51.765-29.886,15.624,9.02V549.07l-12.519-7.229,12.519-7.224V531.03l-15.624,9.02L2147.1,510.159l51.765-29.886,15.624,9.02v-3.583l-12.519-7.229Zm-18.73-56.135-51.765,29.891-51.77-29.891,51.77-29.891ZM1921.4,320.077l-51.77,29.886-51.77-29.886,51.77-29.891ZM1872.739,288.4,1924.5,258.5l51.775,29.891L1924.5,318.286Zm-722.155,793.535-51.77-29.891,51.77-29.891,51.77,29.891Zm54.87-28.1,51.77,29.891-51.77,29.891-51.77-29.891Zm-57.97,29.891-51.77,29.891-51.77-29.891,51.77-29.891Zm-106.645-1.791-51.765-29.891,51.765-29.891,51.77,29.891Zm-3.1,1.791-55.579,32.09-51.77-29.891,55.579-32.09Zm-3.809,65.564-51.77,29.886-51.77-29.886,51.77-29.891Zm-48.67-31.687,55.579-32.086,51.77,29.891-55.579,32.09Zm110.454-.4,51.77,29.891-55.579,32.086-51.77-29.886Zm3.1-1.791,51.77-29.891,51.77,29.891-51.77,29.886Zm106.64,1.791,55.579,32.09-51.77,29.886-55.579-32.086Zm3.105-1.791,51.765-29.891,55.579,32.09-51.765,29.891Zm0-63.364,51.765-29.891,51.775,29.891-51.775,29.891Zm0-63.359,51.765-29.891,51.775,29.891-51.775,29.886Zm48.665,31.682-51.77,29.886-51.77-29.886,51.77-29.891Zm-106.64-1.8-51.77-29.886,51.77-29.891,51.77,29.891Zm-3.1,1.8-51.77,29.886-51.77-29.886,51.77-29.891Zm-106.645-1.8-51.765-29.886,51.765-29.891,51.77,29.891Zm-3.1,1.8-51.77,29.886-51.77-29.886,51.77-29.891Zm-106.64-1.8-51.77-29.886L931.1,958.79l51.77,29.891Zm51.77,33.473-55.579,32.09-51.77-29.886,55.579-32.1ZM979.06,1117.6l-51.77,29.9-51.77-29.9,51.77-29.886Zm0,63.364-51.77,29.9-51.77-29.9,51.77-29.886Zm3.1,1.8,51.77,29.891-51.77,29.886-51.77-29.886Zm3.1-1.8,51.77-29.886,51.77,29.886-51.77,29.9Zm106.645,1.8,55.579,32.086-51.77,29.9-55.579-32.09Zm3.1-1.8,55.579-32.085,55.579,32.085-55.579,32.09Zm114.258,1.8,51.77,29.891-55.579,32.09-51.77-29.9Zm3.105-1.8,51.77-29.886,51.765,29.886-51.765,29.9Zm106.64,1.8,51.77,29.891-51.77,29.886-51.765-29.886Zm-51.765-33.473,51.765-29.891,51.77,29.891-51.77,29.886Zm-3.814-65.564,51.77-29.891,55.579,32.09-51.77,29.891Zm0-63.359,51.77-29.891,51.77,29.891-51.77,29.886Zm0-63.364,51.77-29.891L1366.97,957l-51.77,29.886Zm-3.105-1.791-51.765-29.891,51.765-29.886,51.775,29.886Zm-3.1,1.791-51.77,29.886L1153.685,957l51.77-29.891Zm-106.64-1.791-51.77-29.891,51.77-29.886,51.77,29.886Zm-3.1,1.791-51.77,29.886L1043.945,957l51.77-29.891Zm-106.645-1.791-51.765-29.891,51.765-29.886,51.77,29.886Zm-3.1,1.791-51.77,29.886L934.2,957l51.77-29.891ZM931.1,955.208l-51.77-29.891,51.77-29.886,51.77,29.886ZM927.994,957l-51.77,29.886L824.459,957l51.765-29.891Zm0,63.364-55.579,32.086-51.765-29.886,55.574-32.091Zm-3.809,65.559-51.77,29.891-51.765-29.891,51.765-29.891Zm0,63.364-51.77,29.886-51.765-29.886,51.765-29.891Zm0,63.364-51.77,29.886-51.765-29.886,51.765-29.891Zm0,63.359-51.77,29.891-51.765-29.891,51.765-29.886Zm-48.665-31.682,51.77-29.891,51.77,29.891-51.77,29.891Zm106.64,1.8,55.579,32.086-51.77,29.891-55.579-32.09Zm3.1-1.8,51.77-29.891,55.579,32.09-51.77,29.891Zm110.454,3.991,51.77,29.891-51.77,29.891-51.77-29.891Zm3.1-1.791,51.77-29.891,51.77,29.891-51.77,29.891Zm106.64,1.791,51.77,29.891-51.77,29.891-51.77-29.891Zm3.105-1.791,55.579-32.09,51.765,29.891-55.579,32.09Zm110.449-.4,51.77,29.886L1315.2,1308.1l-51.77-29.891Zm3.105-1.8,51.77-29.891,51.765,29.891-51.765,29.891Zm0-63.364,51.77-29.886,51.765,29.886-51.765,29.9Zm0-63.359,51.77-29.891,51.765,29.891-51.765,29.891Zm-3.809-65.564,51.765-29.891,55.579,32.1-51.765,29.886Zm0-63.359,51.765-29.891,51.775,29.891-51.775,29.886Zm0-63.364,51.765-29.886,51.775,29.886-51.775,29.891Zm0-63.364,51.765-29.886,51.775,29.886-51.775,29.891Zm48.665,31.682-51.77,29.891-51.77-29.891,51.77-29.886Zm-106.645-1.791-51.765-29.891,51.765-29.886,51.775,29.886Zm-3.1,1.791-51.77,29.891-51.77-29.891,51.77-29.886Zm-106.64-1.791-51.77-29.891,51.77-29.886,51.77,29.886Zm-3.1,1.791-51.77,29.891-51.77-29.891,51.77-29.886Zm-106.645-1.791-51.765-29.891,51.765-29.886,51.77,29.886Zm-3.1,1.791-51.77,29.891L934.2,893.635l51.77-29.886ZM931.1,891.844l-51.77-29.891,51.77-29.886,51.77,29.886Zm-3.105,1.791-51.77,29.891-51.765-29.891,51.765-29.886Zm-106.64-1.791-51.77-29.891,51.77-29.886,51.77,29.886Zm51.77,33.473-51.77,29.891-51.77-29.891,51.77-29.886Zm0,63.364-55.579,32.086-51.77-29.886,55.579-32.09Zm-3.809,65.564-51.77,29.886-51.77-29.886,51.77-29.9Zm0,63.354-51.77,29.9-51.77-29.9,51.77-29.886Zm0,63.364-51.77,29.9-51.77-29.9,51.77-29.886Zm0,63.364-51.77,29.891-51.77-29.891,51.77-29.891Zm0,63.359-51.77,29.9-51.77-29.9,51.77-29.886Zm3.1,1.8,55.579,32.085-51.77,29.891-55.574-32.085Zm3.105-1.8,51.77-29.886,55.579,32.09-51.77,29.891Zm110.449,4,51.77,29.886-51.77,29.891-51.77-29.891Zm3.105-1.791L1040.839,1280l51.77,29.891-51.77,29.891Zm106.64,1.791,51.77,29.891-51.77,29.886-51.77-29.891Zm3.1-1.791,51.77-29.891,51.77,29.891-51.77,29.891Zm106.64,1.791,51.77,29.891-51.77,29.886-51.77-29.886Zm3.105-1.791L1260.325,1280l51.775,29.891-51.775,29.891Zm106.64,1.791,51.77,29.891-51.77,29.886-51.77-29.886Zm3.105-1.791,55.579-32.09,51.765,29.891-55.579,32.09Zm110.449-.408,51.765,29.891-55.574,32.085-51.77-29.886Zm-51.77-33.473,51.77-29.886,51.765,29.886-51.765,29.891Zm0-63.359,51.77-29.891,51.765,29.891-51.765,29.886Zm0-63.364,51.77-29.891,51.765,29.891-51.765,29.886Zm0-63.364,51.77-29.891,51.765,29.891-51.765,29.891Zm-3.809-65.559,51.77-29.891,55.574,32.091-51.765,29.886Zm0-63.364,51.77-29.891L1476.715,957l-51.77,29.886Zm0-63.364,51.77-29.886,51.77,29.886-51.77,29.891Zm0-63.359,51.77-29.891,51.77,29.891-51.77,29.891Zm-3.105-1.791-51.765-29.891L1370.07,768.7l51.775,29.891Zm-3.1,1.791-51.77,29.891-51.77-29.891,51.77-29.891Zm-106.645-1.791-51.765-29.891,51.765-29.891,51.775,29.891Zm-3.1,1.791-51.77,29.891-51.77-29.891,51.77-29.891Zm-106.64-1.791-51.77-29.891,51.77-29.891,51.77,29.891Zm-3.1,1.791-51.77,29.891-51.77-29.891,51.77-29.891Zm-106.645-1.791-51.765-29.891,51.765-29.891,51.77,29.891Zm-3.1,1.791-51.77,29.891L934.2,830.276l51.77-29.891ZM931.1,828.485l-51.77-29.891L931.1,768.7l51.77,29.891Zm-3.105,1.791-51.77,29.891-51.765-29.891,51.765-29.891Zm-106.64-1.791-51.77-29.891,51.77-29.891,51.77,29.891Zm-3.105,1.791-51.77,29.891-51.765-29.891,51.765-29.891Zm0,63.359-51.77,29.891-51.765-29.891,51.765-29.886Zm0,63.364-55.579,32.09L710.905,959.2l55.574-32.09Zm-3.809,65.564-51.77,29.886-51.765-29.886,51.765-29.891Zm0,63.359-51.77,29.891-51.765-29.891,51.765-29.891Zm0,63.364-51.77,29.886-51.765-29.886,51.765-29.891Zm0,63.364-51.77,29.886-51.765-29.886,51.765-29.891Zm0,63.359L762.67,1305.9l-51.765-29.891,51.765-29.886Zm0,63.364-51.77,29.886-51.765-29.886,51.765-29.891Zm3.809,65.559-51.765,29.891-55.579-32.086,51.765-29.891Zm-52.474-33.882,51.77-29.886,55.579,32.09-51.77,29.886Zm110.449,4,51.77,29.886-51.77,29.891-51.765-29.891Zm3.105-1.791,51.77-29.9,51.77,29.9L931.1,1403.14Zm106.64,1.791,51.77,29.886-51.77,29.891-51.77-29.891Zm3.105-1.791,51.765-29.9,51.77,29.9-51.77,29.886Zm106.64,1.791,51.77,29.886-51.77,29.891-51.77-29.891Zm3.1-1.791,51.77-29.9,51.77,29.9-51.77,29.886Zm106.64,1.791,51.77,29.886-51.77,29.891-51.77-29.891Zm3.105-1.791,51.765-29.9,51.775,29.9-51.775,29.886Zm106.64,1.791,51.77,29.886-51.77,29.891-51.77-29.891Zm3.105-1.791,51.765-29.9,51.775,29.9-51.775,29.886Zm106.64,1.791,51.77,29.886-51.77,29.891-51.77-29.891Zm3.1-1.791,55.579-32.09,51.77,29.886-55.579,32.09Zm3.809-65.564,51.77-29.891,51.77,29.891-51.77,29.891Zm0-63.364,51.77-29.891,51.77,29.891-51.77,29.891Zm0-63.364,51.77-29.886,51.77,29.886-51.77,29.9Zm0-63.359,51.77-29.891,51.77,29.891-51.77,29.891Zm0-63.359,51.77-29.9,51.77,29.9-51.77,29.886Zm-3.809-65.564,51.77-29.891,55.579,32.09-51.77,29.886Zm0-63.364,51.77-29.886,51.765,29.886-51.765,29.891Zm0-63.364,51.77-29.886,51.77,29.886-51.77,29.891Zm0-63.359,51.77-29.891,51.77,29.891-51.77,29.891Zm0-63.364,51.77-29.891,51.77,29.891-51.77,29.891Zm48.67,31.682-51.77,29.891-51.77-29.891,51.77-29.891Zm-106.645-1.791-51.765-29.891,51.765-29.891,51.775,29.891Zm-3.1,1.791L1315.2,796.8l-51.77-29.891,51.77-29.891Zm-106.645-1.791L1208.56,735.23l51.765-29.891L1312.1,735.23Zm-3.1,1.791-51.77,29.891-51.77-29.891,51.77-29.891Zm-106.64-1.791-51.77-29.891,51.77-29.891,51.77,29.891Zm-3.1,1.791-51.77,29.891-51.77-29.891,51.77-29.891Zm-106.645-1.791L989.075,735.23l51.765-29.891,51.77,29.891Zm-3.1,1.791L985.969,796.8,934.2,766.912l51.77-29.891ZM931.1,765.121l-51.77-29.891,51.77-29.891,51.77,29.891Zm-3.105,1.791L876.224,796.8l-51.765-29.891,51.765-29.891Zm-106.64-1.791-51.77-29.891,51.77-29.891,51.77,29.891Zm-3.105,1.791L766.479,796.8l-51.765-29.891,51.765-29.891Zm-106.64-1.791-51.77-29.891,51.77-29.891,51.77,29.891Zm51.77,33.473-51.77,29.891-51.77-29.891,51.77-29.891Zm0,63.359-51.77,29.891-51.77-29.891,51.77-29.886Zm0,63.364L707.8,957.407l-51.77-29.891,55.579-32.086Zm-3.809,65.564-51.77,29.886-51.77-29.886L707.8,960.99Zm0,63.364L707.8,1084.13l-51.77-29.886,51.77-29.9Zm0,63.354-51.77,29.9-51.77-29.9,51.77-29.886Zm0,63.364-51.77,29.9-51.77-29.9,51.77-29.886Zm0,63.364-51.77,29.891-51.77-29.891,51.77-29.891Zm0,63.359-51.77,29.9-51.77-29.9L707.8,1277.8Zm0,63.364-51.77,29.9-51.77-29.9,51.77-29.886Zm3.809,65.569-51.77,29.886-55.579-32.09,51.77-29.891Zm3.105,1.786,51.765,29.891-51.765,29.886-51.77-29.886Zm3.1-1.786,51.77-29.9,51.77,29.9-51.77,29.886Zm106.64,1.786,51.77,29.891-51.77,29.886L824.459,1468.3Zm3.105-1.786,51.77-29.9,51.77,29.9L931.1,1466.5Zm106.64,1.786,51.77,29.891-51.77,29.886L934.2,1468.3Zm3.105-1.786,51.765-29.9,51.77,29.9-51.77,29.886Zm106.64,1.786,51.77,29.891-51.77,29.886-51.77-29.886Zm3.1-1.786,51.77-29.9,51.77,29.9-51.77,29.886Zm106.64,1.786,51.77,29.891-51.77,29.886-51.77-29.886Zm3.105-1.786,51.765-29.9,51.775,29.9-51.775,29.886Zm106.64,1.786,51.77,29.891-51.77,29.886-51.77-29.886Zm3.105-1.786,51.765-29.9,51.775,29.9L1370.07,1466.5Zm106.64,1.786,51.77,29.891-51.77,29.886-51.77-29.886Zm3.1-1.786,51.77-29.9,51.77,29.9-51.77,29.886Zm106.64,1.786,51.77,29.891-51.77,29.886L1482.92,1468.3Zm-51.765-33.473,55.579-32.086,51.765,29.891-55.579,32.086Zm3.809-65.559,51.77-29.891,51.765,29.891-51.765,29.891Zm0-63.364,51.77-29.886,51.765,29.886L1538.5,1305.9Zm0-63.359,51.77-29.891,51.765,29.891-51.765,29.886Zm0-63.364,51.77-29.891,51.765,29.891-51.765,29.886Zm0-63.364,51.77-29.891,51.765,29.891-51.765,29.891Zm0-63.359,51.77-29.891,51.765,29.891-51.765,29.886ZM1482.92,957l51.765-29.891,55.579,32.09L1538.5,989.089Zm0-63.364,51.765-29.886,51.775,29.886-51.775,29.891Zm0-63.359,51.765-29.891,51.775,29.891-51.775,29.891Zm0-63.364,51.765-29.891,51.775,29.891L1534.685,796.8Zm0-63.364,51.765-29.886,51.775,29.886-51.775,29.891Zm-3.105-1.791-51.77-29.891,51.77-29.886,51.77,29.886Zm-3.1,1.791-51.77,29.891-51.77-29.891,51.77-29.886Zm-106.645-1.791-51.765-29.891,51.765-29.886,51.775,29.886Zm-3.1,1.791-51.77,29.891-51.77-29.891,51.77-29.886Zm-106.645-1.791-51.765-29.891,51.765-29.886,51.775,29.886Zm-3.1,1.791-51.77,29.891-51.77-29.891,51.77-29.886Zm-106.64-1.791-51.77-29.891,51.77-29.886,51.77,29.886Zm-3.1,1.791-51.77,29.891-51.77-29.891,51.77-29.886Zm-106.645-1.791-51.765-29.891,51.765-29.886,51.77,29.886Zm-3.1,1.791-51.77,29.891L934.2,703.548l51.77-29.886ZM931.1,701.757l-51.77-29.891L931.1,641.98l51.77,29.886Zm-3.105,1.791-51.77,29.891-51.765-29.891,51.765-29.886Zm-106.64-1.791-51.77-29.891,51.77-29.886,51.77,29.886Zm-3.105,1.791-51.77,29.891-51.765-29.891,51.765-29.886Zm-106.64-1.791-51.77-29.891,51.77-29.886,51.77,29.886Zm-3.1,1.791-51.77,29.891-51.77-29.891,51.77-29.886Zm0,63.364L656.739,796.8l-51.77-29.891,51.77-29.891Zm0,63.364-51.77,29.891-51.77-29.891,51.77-29.891Zm0,63.359-55.579,32.09-51.77-29.891,55.579-32.085ZM704.7,959.2l-51.77,29.891L601.16,959.2l51.77-29.891Zm0,63.364-51.77,29.886-51.77-29.886,51.77-29.891Zm0,63.359-51.77,29.891-51.77-29.891,51.77-29.891Zm0,63.364-51.77,29.886-51.77-29.886,51.77-29.891Zm0,63.364-51.77,29.886-51.77-29.886,51.77-29.891Zm0,63.359L652.93,1305.9l-51.77-29.891,51.77-29.886Zm0,63.364-51.77,29.886-51.77-29.886,51.77-29.891Zm0,63.364-51.77,29.886-51.77-29.886,51.77-29.891Zm3.809,65.559-51.77,29.886L601.16,1466.1l51.77-29.886Zm0,63.364-51.77,29.886-51.77-29.886,51.77-29.891Zm-48.67-31.682,51.77-29.891,51.77,29.891-51.77,29.891Zm106.645,1.791,51.765,29.891-51.765,29.886-51.77-29.886Zm3.1-1.791,51.77-29.891,51.77,29.891-51.77,29.891Zm106.64,1.791,51.77,29.891-51.77,29.886-51.765-29.886Zm3.105-1.791,51.77-29.891,51.77,29.891-51.77,29.891Zm106.64,1.791,51.77,29.891-51.77,29.886-51.77-29.886Zm3.105-1.791,51.765-29.891,51.77,29.891-51.77,29.891Zm106.64,1.791,51.77,29.891-51.77,29.886-51.77-29.886Zm3.1-1.791,51.77-29.891,51.77,29.891-51.77,29.891Zm106.64,1.791,51.77,29.891-51.77,29.886-51.77-29.886Zm3.105-1.791,51.765-29.891,51.775,29.891-51.775,29.891Zm106.64,1.791,51.77,29.891-51.77,29.886-51.77-29.886Zm3.105-1.791,51.765-29.891,51.775,29.891-51.775,29.891Zm106.64,1.791,51.765,29.891-51.765,29.886-51.77-29.886Zm3.1-1.791,51.77-29.891,51.765,29.891-51.765,29.891Zm106.64,1.791,51.77,29.891-51.77,29.886-51.765-29.886Zm3.105-1.791,51.77-29.891,51.765,29.891-51.765,29.891Zm0-63.359,55.579-32.1,51.77,29.891-55.579,32.09Zm3.809-65.569,51.77-29.886,51.77,29.886-51.77,29.9Zm0-63.359,51.77-29.891,51.77,29.891-51.77,29.891Zm0-63.364,51.77-29.891,51.77,29.891-51.77,29.891Zm0-63.364,51.77-29.886,51.77,29.886-51.77,29.9Zm0-63.359,51.77-29.891,51.77,29.891-51.77,29.891Zm0-63.359,51.77-29.9,51.77,29.9-51.77,29.886Zm0-63.364,51.77-29.891,51.77,29.891-51.77,29.886Zm-3.809-65.564,51.77-29.886,55.579,32.086-51.77,29.891Zm0-63.364,51.77-29.886,51.765,29.886-51.765,29.891Zm0-63.359,51.77-29.891,51.765,29.891-51.765,29.891Zm0-63.364,51.77-29.891,51.765,29.891-51.765,29.891Zm0-63.364,51.77-29.886,51.765,29.886-51.765,29.891Zm0-63.359,51.77-29.891,51.765,29.891L1589.56,638.4Zm48.67,31.682-51.775,29.891-51.765-29.891,51.765-29.891ZM1479.815,638.4l-51.77-29.891,51.77-29.891,51.77,29.891Zm-3.1,1.791-51.77,29.891-51.77-29.891,51.77-29.891ZM1370.07,638.4l-51.765-29.891,51.765-29.891,51.775,29.891Zm-3.1,1.791L1315.2,670.08l-51.77-29.891L1315.2,610.3ZM1260.325,638.4l-51.765-29.891,51.765-29.891,51.775,29.891Zm-3.1,1.791-51.77,29.891-51.77-29.891,51.77-29.891Zm-106.64-1.791-51.77-29.891,51.77-29.891,51.77,29.891Zm-3.1,1.791-51.77,29.891-51.77-29.891,51.77-29.891ZM1040.839,638.4l-51.765-29.891,51.765-29.891,51.77,29.891Zm-3.1,1.791-51.77,29.891L934.2,640.189l51.77-29.891ZM931.1,638.4l-51.77-29.891,51.77-29.891,51.77,29.891Zm-3.105,1.791-51.77,29.891-51.765-29.891L876.224,610.3ZM821.354,638.4l-51.77-29.891,51.77-29.891,51.77,29.891Zm-3.105,1.791-51.77,29.891-51.765-29.891L766.479,610.3ZM711.609,638.4l-51.77-29.891,51.77-29.891,51.77,29.891Zm-3.1,1.791-51.77,29.891-51.77-29.891,51.77-29.891ZM601.869,638.4,550.1,608.507l51.77-29.891,51.765,29.891Zm51.765,33.468-51.765,29.891L550.1,671.866l51.77-29.886Zm0,63.364-51.765,29.891L550.1,735.23l51.77-29.891Zm0,63.364-51.765,29.891L550.1,798.594l51.77-29.891Zm0,63.359-55.579,32.09L546.29,864.153l55.579-32.086Zm-3.809,65.564-51.77,29.891L546.29,927.517l51.765-29.891Zm0,63.364-51.77,29.886L546.29,990.881l51.765-29.891Zm0,63.364L598.06,1084.13l-51.77-29.891,51.765-29.891Zm0,63.354-51.765,29.9-51.77-29.9,51.77-29.886Zm0,63.364-51.765,29.9-51.77-29.9,51.77-29.886Zm0,63.364-51.765,29.891-51.77-29.891,51.77-29.891Zm0,63.359-51.765,29.9-51.77-29.9,51.77-29.886Zm0,63.364-51.765,29.9-51.77-29.9,51.77-29.886Zm0,63.364L598.06,1464.3l-51.77-29.891,51.77-29.891Zm3.809,65.564-51.765,29.891-55.579-32.09,51.77-29.891Zm0,63.364-51.765,29.886-51.77-29.886,51.77-29.9Zm3.105,1.791,51.77,29.886-51.77,29.891-51.77-29.891Zm3.1-1.791,51.77-29.9,51.77,29.9-51.77,29.886Zm106.645,1.791,51.765,29.886-51.765,29.891-51.77-29.891Zm3.1-1.791,51.77-29.9,51.77,29.9-51.77,29.886Zm106.64,1.791,51.77,29.886-51.77,29.891-51.765-29.891Zm3.105-1.791,51.77-29.9,51.77,29.9-51.77,29.886Zm106.64,1.791,51.77,29.886-51.77,29.891-51.77-29.891Zm3.105-1.791,51.765-29.9,51.77,29.9-51.77,29.886Zm106.64,1.791,51.77,29.886-51.77,29.891-51.77-29.891Zm3.1-1.791,51.77-29.9,51.77,29.9-51.77,29.886Zm106.64,1.791,51.77,29.886-51.77,29.891-51.77-29.891Zm3.105-1.791,51.765-29.9,51.775,29.9-51.775,29.886Zm106.64,1.791,51.77,29.886-51.77,29.891-51.77-29.891Zm3.105-1.791,51.765-29.9,51.775,29.9-51.775,29.886Zm106.64,1.791,51.77,29.886-51.77,29.891-51.77-29.891Zm3.1-1.791,51.77-29.9,51.765,29.9-51.765,29.886Zm106.64,1.791,51.77,29.886-51.77,29.891-51.765-29.891Zm3.105-1.791,51.77-29.9,51.765,29.9-51.765,29.886Zm106.64,1.791,51.77,29.886-51.77,29.891-51.765-29.891Zm-51.765-33.473,51.765-29.891,51.77,29.891-51.77,29.886Zm0-63.364,55.579-32.086,51.765,29.886-55.579,32.086Zm3.8-65.559,51.775-29.891,51.765,29.891-51.765,29.886Zm0-63.364,51.775-29.891,51.765,29.891-51.765,29.891Zm0-63.364,51.775-29.886,51.765,29.886-51.765,29.891Zm0-63.359,51.775-29.891,51.765,29.891-51.765,29.886Zm0-63.364,51.775-29.891,51.765,29.891-51.765,29.886Zm0-63.364,51.775-29.891,51.765,29.891-51.765,29.891Zm0-63.359,51.775-29.891,51.765,29.891-51.765,29.886Zm0-63.364,51.775-29.891,51.765,29.891-51.765,29.891Zm-3.8-65.564,51.765-29.886,55.579,32.085-51.765,29.891Zm0-63.359,51.765-29.891,51.77,29.891-51.77,29.891Zm0-63.364,51.765-29.891,51.775,29.891L1644.431,796.8Zm0-63.364,51.765-29.886,51.775,29.886-51.775,29.891Zm0-63.359,51.765-29.891,51.775,29.891-51.775,29.891Zm0-63.364,51.765-29.891,51.775,29.891-51.775,29.891Zm-3.105-1.791-51.77-29.891,51.77-29.891,51.765,29.891Zm-3.1,1.791-51.775,29.891-51.765-29.891,51.765-29.891Zm-106.645-1.791-51.77-29.891,51.77-29.891,51.77,29.891Zm-3.1,1.791-51.77,29.891-51.77-29.891,51.77-29.891Zm-106.645-1.791-51.765-29.891,51.765-29.891,51.775,29.891Zm-3.1,1.791-51.77,29.891-51.77-29.891,51.77-29.891Zm-106.645-1.791-51.765-29.891,51.765-29.891,51.775,29.891Zm-3.1,1.791-51.77,29.891-51.77-29.891,51.77-29.891Zm-106.64-1.791-51.77-29.891,51.77-29.891,51.77,29.891Zm-3.1,1.791-51.77,29.891-51.77-29.891,51.77-29.891Zm-106.645-1.791-51.765-29.891,51.765-29.891,51.77,29.891Zm-3.1,1.791-51.77,29.891L934.2,576.825l51.77-29.891ZM931.1,575.034l-51.77-29.891,51.77-29.891,51.77,29.891Zm-3.105,1.791-51.77,29.891-51.765-29.891,51.765-29.891Zm-106.64-1.791-51.77-29.891,51.77-29.891,51.77,29.891Zm-3.105,1.791-51.77,29.891-51.765-29.891,51.77-29.891Zm-106.64-1.791-51.77-29.891,51.77-29.891,51.77,29.891Zm-3.1,1.791-51.77,29.891-51.77-29.891,51.77-29.891Zm-106.64-1.791L550.1,545.143l51.77-29.891,51.765,29.891Zm-3.105,1.791-51.77,29.891-51.77-29.891,51.77-29.891Zm0,63.364-51.77,29.891-51.77-29.891,51.77-29.891Zm0,63.359-51.77,29.891-51.77-29.891,51.77-29.886Zm0,63.364L546.994,796.8l-51.77-29.891,51.77-29.891Zm0,63.364-55.579,32.086-51.77-29.886,55.579-32.09Zm-3.809,65.559-51.77,29.891-51.77-29.891,51.77-29.891Zm0,63.364-51.77,29.891L491.415,959.2l51.77-29.891Zm0,63.364-51.77,29.886-51.77-29.886,51.77-29.891Zm0,63.359-51.77,29.891-51.77-29.891,51.77-29.891Zm0,63.364-51.77,29.886-51.77-29.886,51.77-29.891Zm0,63.364-51.77,29.886-51.77-29.886,51.77-29.891Zm0,63.359-51.77,29.891-51.77-29.891,51.77-29.886Zm0,63.364-51.77,29.886-51.77-29.886,51.77-29.891Zm0,63.364-51.77,29.886-51.77-29.886,51.77-29.891Zm0,63.359-51.77,29.891-51.77-29.891,51.77-29.886Zm3.809,65.564-51.77,29.886-55.579-32.085,51.77-29.891Zm0,63.359-51.77,29.891-51.77-29.891,51.77-29.886Zm0,63.364-51.77,29.886-51.77-29.886,51.77-29.891ZM550.1,1626.7l51.77-29.9,51.765,29.9-51.765,29.886Zm106.64,1.786,51.77,29.891-51.77,29.886-51.77-29.886Zm3.1-1.786,51.77-29.9,51.77,29.9-51.77,29.886Zm106.645,1.786,51.765,29.891-51.765,29.886-51.77-29.886Zm3.1-1.786,51.77-29.9,51.77,29.9-51.77,29.886Zm106.64,1.786,51.77,29.891-51.77,29.886-51.765-29.886Zm3.105-1.786,51.77-29.9,51.77,29.9-51.77,29.886Zm106.64,1.786,51.77,29.891-51.77,29.886-51.77-29.886Zm3.105-1.786,51.765-29.9,51.77,29.9-51.77,29.886Zm106.64,1.786,51.77,29.891-51.77,29.886-51.77-29.886Zm3.1-1.786,51.77-29.9,51.77,29.9-51.77,29.886Zm106.64,1.786,51.77,29.891-51.77,29.886-51.77-29.886Zm3.105-1.786,51.765-29.9,51.775,29.9-51.775,29.886Zm106.64,1.786,51.77,29.891-51.77,29.886-51.77-29.886Zm3.105-1.786,51.765-29.9,51.775,29.9-51.775,29.886Zm106.64,1.786,51.77,29.891-51.77,29.886-51.77-29.886Zm3.1-1.786,51.77-29.9,51.765,29.9-51.765,29.886Zm106.64,1.786,51.775,29.891-51.775,29.886-51.765-29.886Zm3.105-1.786,51.77-29.9,51.765,29.9-51.765,29.886Zm106.64,1.786,51.77,29.891-51.77,29.886-51.765-29.886Zm3.105-1.786,51.765-29.9,51.77,29.9-51.77,29.886Zm0-63.364,51.765-29.9,51.77,29.9-51.77,29.886Zm0-63.364,55.579-32.09,51.765,29.891-55.579,32.09Zm3.8-65.564,51.775-29.891,51.765,29.891-51.765,29.891Zm0-63.364,51.775-29.886,51.765,29.886-51.765,29.9Zm0-63.359,51.775-29.891,51.765,29.891-51.765,29.891Zm0-63.364,51.775-29.891,51.765,29.891-51.765,29.891Zm0-63.364,51.775-29.886,51.765,29.886-51.765,29.9Zm0-63.359,51.775-29.891,51.765,29.891-51.765,29.891Zm0-63.359,51.775-29.9,51.765,29.9-51.765,29.886Zm0-63.364,51.775-29.891,51.765,29.891-51.765,29.886Zm0-63.364,51.775-29.891,51.765,29.891-51.765,29.891Zm-3.8-65.564,51.765-29.886,55.579,32.086-51.765,29.891Zm0-63.359L1699.3,768.7l51.77,29.891-51.77,29.891Zm0-63.364,51.765-29.891,51.77,29.891-51.77,29.891Zm0-63.364L1699.3,641.98l51.77,29.886-51.77,29.891Zm0-63.359,51.765-29.891,51.77,29.891L1699.3,638.4Zm0-63.364,51.765-29.891,51.77,29.891-51.77,29.891Zm0-63.364,57.488-33.188,51.765,29.891L1699.3,511.67Zm48.67,31.682-51.775,29.891-51.765-29.891,51.765-29.886ZM1589.56,511.67l-51.77-29.891,51.77-29.886,51.765,29.886Zm-3.1,1.791-51.775,29.891-51.765-29.891,51.765-29.886Zm-106.645-1.791-51.77-29.891,51.77-29.886,51.77,29.886Zm-3.1,1.791-51.77,29.891-51.77-29.891,51.77-29.886ZM1370.07,511.67l-51.765-29.891,51.765-29.886,51.775,29.886Zm-3.1,1.791-51.77,29.891-51.77-29.891,51.77-29.886Zm-106.645-1.791-51.765-29.891,51.765-29.886,51.775,29.886Zm-3.1,1.791-51.77,29.891-51.77-29.891,51.77-29.886Zm-106.64-1.791-51.77-29.891,51.77-29.886,51.77,29.886Zm-3.1,1.791-51.77,29.891-51.77-29.891,51.77-29.886Zm-106.645-1.791-51.765-29.891,51.765-29.886,51.77,29.886Zm-3.1,1.791-51.77,29.891L934.2,513.461l51.77-29.886ZM931.1,511.67l-51.77-29.891,51.77-29.886,51.77,29.886Zm-3.105,1.791-51.77,29.891-51.765-29.891,51.765-29.886Zm-106.64-1.791-51.77-29.891,51.77-29.886,51.77,29.886Zm-3.105,1.791-51.765,29.891-51.77-29.891,51.77-29.886Zm-106.64-1.791-51.77-29.891,51.77-29.886,51.77,29.886Zm-3.1,1.791-51.77,29.891-51.77-29.891,51.77-29.886Zm-106.64-1.791L544.38,478.482l51.77-29.891,57.483,33.188Zm-3.105,1.791-51.77,29.891L489.51,510.159l51.77-29.886Zm-112.358-5.088L434.64,478.482l51.765-29.891,51.77,29.891Zm57.483,36.77-51.765,29.891L434.64,541.841l51.765-29.886Zm0,63.364L492.123,638.4l-51.77-29.891,51.77-29.891Zm0,63.359-51.765,29.891-51.77-29.891,51.77-29.886Zm0,63.364-51.765,29.891-51.77-29.891,51.77-29.891Zm0,63.364L488.315,830.68l-51.77-29.886,55.579-32.09Zm-3.809,65.559-51.765,29.891-51.77-29.891,51.77-29.891Zm0,63.364-51.765,29.891-51.77-29.891,51.77-29.891Zm0,63.364-51.765,29.886-51.77-29.886,51.77-29.891Zm0,63.359-51.765,29.891-51.77-29.891,51.77-29.891Zm0,63.359-51.765,29.9-51.77-29.9,51.77-29.886Zm0,63.364-51.765,29.9-51.77-29.9,51.77-29.886Zm0,63.364-51.765,29.891-51.77-29.891,51.77-29.891Zm0,63.359-51.765,29.9-51.77-29.9,51.77-29.886Zm0,63.364-51.765,29.9-51.77-29.9,51.77-29.886Zm0,63.364L488.315,1464.3l-51.77-29.891,51.77-29.891Zm0,63.364-51.765,29.891-51.77-29.891,51.77-29.891Zm3.809,65.564-51.765,29.886-55.579-32.09,51.77-29.886Zm0,63.364-51.765,29.886-51.77-29.886,51.77-29.9Zm0,63.359-51.765,29.891-51.77-29.891,51.77-29.891Zm3.105,1.791,51.77,29.891-51.77,29.886-51.77-29.886Zm3.105-1.791,51.77-29.891,51.765,29.891-51.765,29.891Zm106.64,1.791,51.77,29.891-51.77,29.886-51.77-29.886Zm3.1-1.791,51.77-29.891,51.77,29.891-51.77,29.891Zm106.645,1.791,51.765,29.891-51.765,29.886-51.77-29.886Zm3.1-1.791,51.77-29.891,51.77,29.891-51.77,29.891Zm106.64,1.791,51.77,29.891-51.77,29.886-51.765-29.886Zm3.105-1.791,51.77-29.891,51.77,29.891-51.77,29.891Zm106.64,1.791,51.77,29.891-51.77,29.886-51.77-29.886Zm3.105-1.791,51.765-29.891,51.77,29.891-51.77,29.891Zm106.64,1.791,51.77,29.891-51.77,29.886-51.77-29.886Zm3.1-1.791,51.77-29.891,51.77,29.891-51.77,29.891Zm106.64,1.791,51.77,29.891-51.77,29.886-51.77-29.886Zm3.105-1.791,51.765-29.891,51.775,29.891-51.775,29.891Zm106.64,1.791,51.77,29.891-51.77,29.886-51.77-29.886Zm3.105-1.791,51.765-29.891,51.775,29.891-51.775,29.891Zm106.64,1.791,51.77,29.891-51.77,29.886-51.77-29.886Zm3.1-1.791,51.77-29.891,51.765,29.891-51.765,29.891Zm106.64,1.791,51.775,29.891-51.775,29.886-51.765-29.886Zm3.105-1.791,51.77-29.891,51.765,29.891-51.765,29.891Zm106.64,1.791,51.77,29.891-51.77,29.886-51.765-29.886Zm3.105-1.791,51.765-29.891,51.77,29.891-51.77,29.891Zm106.64,1.791,51.765,29.891-51.765,29.886-51.77-29.886Zm-51.77-33.473,51.77-29.891,51.765,29.891-51.765,29.886Zm0-63.364,51.77-29.886,51.765,29.886-51.765,29.891Zm0-63.359,55.579-32.09,51.77,29.891-55.579,32.085Zm3.809-65.564,51.77-29.886,51.77,29.886-51.77,29.891Zm0-63.359,51.77-29.891,51.77,29.891-51.77,29.886Zm0-63.364,51.77-29.891,51.77,29.891-51.77,29.891Zm0-63.364,51.77-29.886,51.77,29.886-51.77,29.891Zm0-63.359,51.77-29.891,51.77,29.891-51.77,29.886Zm0-63.364,51.77-29.891,51.77,29.891-51.77,29.886Zm0-63.364,51.77-29.891,51.77,29.891-51.77,29.891Zm0-63.359,51.77-29.891,51.77,29.891-51.77,29.886Zm0-63.364,51.77-29.891,51.77,29.891-51.77,29.891Zm0-63.364,51.77-29.891,51.77,29.891-51.77,29.891Zm-3.809-65.559,51.77-29.891,55.579,32.09-51.77,29.886Zm0-63.364,51.77-29.891,51.765,29.891L1754.176,796.8Zm0-63.364,51.77-29.886,51.765,29.886-51.765,29.891Zm0-63.359,51.77-29.891,51.765,29.891-51.765,29.891Zm0-63.364,51.77-29.891,51.765,29.891-51.765,29.891Zm0-63.364,57.488-33.188,51.77,29.886-57.488,33.193Zm5.713-66.661,51.775-29.891,51.77,29.891-51.77,29.891Zm-3.1-1.791-51.775-29.891,51.775-29.891,51.765,29.891Zm-3.105,1.791-57.488,33.193-51.765-29.9,57.483-33.188Zm-112.358,1.511-51.77-29.891,57.488-33.193,51.765,29.891Zm-3.1,1.786-51.775,29.9-51.765-29.9,51.765-29.886Zm-106.645-1.786-51.77-29.891,51.77-29.891,51.77,29.891Zm-3.1,1.786-51.77,29.9-51.77-29.9,51.77-29.886Zm-106.645-1.786-51.765-29.891,51.765-29.891,51.775,29.891Zm-3.1,1.786-51.77,29.9-51.77-29.9,51.77-29.886Zm-106.645-1.786L1208.56,418.42l51.765-29.891L1312.1,418.42Zm-3.1,1.786-51.77,29.9-51.77-29.9,51.77-29.886Zm-106.64-1.786-51.77-29.891,51.77-29.891,51.77,29.891Zm-3.1,1.786-51.77,29.9-51.77-29.9,51.77-29.886Zm-106.645-1.786L989.075,418.42l51.765-29.891,51.77,29.891Zm-3.1,1.786-51.77,29.9L934.2,450.1l51.77-29.886ZM931.1,448.311l-51.77-29.891L931.1,388.53l51.77,29.891Zm-3.105,1.786-51.77,29.9-51.765-29.9,51.765-29.886Zm-106.64-1.786-51.77-29.891,51.77-29.891,51.77,29.891Zm-3.105,1.786-51.765,29.9-51.77-29.9,51.77-29.886Zm-106.64-1.786-57.483-33.193,51.77-29.891,57.483,33.193Zm-3.1,1.786-51.77,29.9L599.251,446.8l51.77-29.891ZM596.15,445.009l-51.77-29.891,51.77-29.891,51.77,29.891Zm-3.1,1.791-51.77,29.891L489.51,446.8l51.77-29.891Zm-106.645-1.791L434.64,415.118l51.765-29.891,51.77,29.891Zm-3.1,1.791-51.77,29.891L379.765,446.8l51.77-29.891Zm0,63.359-51.77,29.9-51.77-29.9,51.77-29.886Zm5.718,66.666-51.775,29.891-57.483-33.193,51.77-29.886Zm0,63.364L437.248,670.08l-51.765-29.891L437.248,610.3Zm0,63.359-51.775,29.891-51.765-29.891,51.765-29.886Zm0,63.364L433.444,799l-51.77-29.886,55.574-32.09Zm-3.809,65.564-51.765,29.886-51.77-29.886,51.77-29.891Zm0,63.359-51.765,29.891-51.77-29.891,51.77-29.891Zm0,63.364-51.765,29.891L381.675,959.2l51.77-29.891Zm0,63.364-51.77,29.886-51.77-29.886,51.77-29.891Zm0,63.359-51.77,29.891-51.77-29.891,51.77-29.891Zm0,63.364-51.77,29.886-51.77-29.886,51.77-29.891Zm0,63.364-51.77,29.886-51.77-29.886,51.77-29.891Zm0,63.359-51.77,29.891-51.77-29.891,51.77-29.886Zm0,63.364-51.77,29.886-51.77-29.886,51.77-29.891Zm0,63.364-51.77,29.886-51.77-29.886,51.77-29.891Zm0,63.359-51.77,29.891-51.77-29.891,51.77-29.886Zm0,63.364-51.77,29.886-51.77-29.886,51.77-29.891Zm3.809,65.559-51.775,29.891-55.574-32.085,51.77-29.891Zm0,63.364-51.775,29.886-51.765-29.886,51.765-29.891Zm0,63.364-51.775,29.886-51.765-29.886,51.765-29.891Zm0,63.359-57.488,33.188-51.77-29.886,57.483-33.188Zm-48.67-31.677,51.77-29.9,51.765,29.9-51.765,29.886Zm106.64,1.791,51.77,29.886L546.994,1815l-51.77-29.891Zm3.105-1.791,51.77-29.9,51.765,29.9-51.765,29.886Zm106.64,1.791,51.77,29.886L656.739,1815l-51.77-29.891Zm3.1-1.791,51.77-29.9,51.77,29.9-51.77,29.886Zm106.645,1.791,51.765,29.886L766.484,1815l-51.77-29.891Zm3.1-1.791,51.77-29.9,51.77,29.9-51.77,29.886Zm106.64,1.791,51.77,29.886L876.224,1815,824.459,1785.1Zm3.105-1.791,51.77-29.9,51.77,29.9-51.77,29.886Zm106.64,1.791,51.77,29.886L985.969,1815,934.2,1785.1Zm3.1-1.791,51.77-29.9,51.77,29.9-51.77,29.886Zm106.645,1.791,51.77,29.886L1095.714,1815l-51.77-29.891Zm3.1-1.791,51.77-29.9,51.77,29.9-51.77,29.886Zm106.64,1.791,51.77,29.886L1205.455,1815l-51.77-29.891Zm3.105-1.791,51.765-29.9,51.775,29.9-51.775,29.886Zm106.64,1.791,51.77,29.886L1315.2,1815l-51.77-29.891Zm3.105-1.791,51.765-29.9,51.775,29.9-51.775,29.886Zm106.64,1.791,51.77,29.886L1424.945,1815l-51.77-29.891Zm3.1-1.791,51.77-29.9,51.765,29.9-51.765,29.886Zm106.64,1.791,51.775,29.886L1534.685,1815,1482.92,1785.1Zm3.105-1.791,51.77-29.9,51.765,29.9-51.765,29.886Zm106.64,1.791,51.77,29.886L1644.431,1815l-51.765-29.891Zm3.105-1.791,51.765-29.9,51.77,29.9-51.77,29.886Zm106.64,1.791,51.765,29.886L1754.176,1815l-51.77-29.891Zm3.105-1.791,51.765-29.9,51.77,29.9-51.77,29.886Zm0-63.364,51.765-29.891,51.77,29.891-51.77,29.891Zm0-63.359,51.765-29.9,51.77,29.9-51.77,29.886Zm0-63.364,55.579-32.09,51.765,29.886-55.579,32.09Zm3.8-65.564,51.775-29.891,51.765,29.891-51.765,29.891Zm0-63.364,51.775-29.891,51.765,29.891L1812.86,1464.3Zm0-63.364,51.775-29.886,51.765,29.886-51.765,29.9Zm0-63.359,51.775-29.891,51.765,29.891-51.765,29.891Zm0-63.364,51.775-29.891,51.765,29.891-51.765,29.891Zm0-63.364,51.775-29.886,51.765,29.886-51.765,29.9Zm0-63.359,51.775-29.891,51.765,29.891-51.765,29.891Zm0-63.359,51.775-29.9,51.765,29.9-51.765,29.886Zm0-63.364,51.775-29.891,51.765,29.891-51.765,29.886Zm0-63.364,51.775-29.891,51.765,29.891-51.765,29.891Zm0-63.364,51.775-29.891,51.765,29.891-51.765,29.891Zm-3.8-65.559,51.765-29.891,55.579,32.09L1812.86,830.68Zm0-63.364,51.765-29.891,51.77,29.891-51.77,29.891Zm0-63.364,51.765-29.886,51.77,29.886-51.77,29.891Zm0-63.359,51.765-29.891,51.77,29.891-51.77,29.891Zm0-63.364,57.478-33.188,51.775,29.886-57.488,33.193Zm5.713-66.661,51.765-29.891,51.775,29.891-51.775,29.891Zm0-63.364,51.765-29.891,51.775,29.891-51.775,29.891Zm0-63.359,51.765-29.891,51.775,29.891-51.775,29.886Zm48.67,31.677-51.77,29.891-51.775-29.891,51.775-29.891Zm-106.64-1.791-51.775-29.886,51.775-29.891,51.765,29.891Zm-3.105,1.791-51.77,29.891-51.77-29.891,51.77-29.891Zm-106.64-1.791L1543.5,351.759l51.775-29.891,51.765,29.891Zm-3.105,1.791-57.488,33.193-51.765-29.891,57.483-33.193Zm-112.358,1.511-51.77-29.891,57.488-33.188,51.77,29.891Zm-3.1,1.791-51.77,29.891-51.77-29.891,51.77-29.891Zm-106.645-1.791-51.765-29.891,51.765-29.891,51.775,29.891Zm-3.1,1.791-51.77,29.891-51.77-29.891,51.77-29.891Zm-106.645-1.791-51.765-29.891,51.765-29.891,51.775,29.891Zm-3.1,1.791-51.77,29.891-51.77-29.891,51.77-29.891Zm-106.64-1.791-51.77-29.891,51.77-29.891,51.77,29.891Zm-3.1,1.791-51.77,29.891-51.77-29.891,51.77-29.891Zm-106.645-1.791-51.765-29.891,51.765-29.891,51.77,29.891Zm-3.1,1.791-51.77,29.891L934.2,386.738l51.77-29.891ZM931.1,384.947l-51.77-29.891,51.77-29.891,51.77,29.891Zm-3.105,1.791-51.77,29.891-51.765-29.891,51.765-29.891Zm-106.64-1.791-57.483-33.188,51.77-29.891,57.483,33.188Zm-3.105,1.791-51.765,29.891L709,383.436l51.77-29.891ZM705.9,381.645l-51.77-29.886,51.77-29.891,51.765,29.891Zm-3.105,1.791-51.77,29.891-51.77-29.891,51.77-29.891Zm-106.64-1.791-51.77-29.886,51.77-29.891,51.77,29.891Zm-3.1,1.791-51.77,29.891-51.77-29.891,51.77-29.891Zm-106.645-1.791L434.64,351.759l51.765-29.891,51.77,29.891Zm-3.1,1.791-51.77,29.891-51.77-29.891,51.77-29.891Zm-106.64-1.791L324.9,351.759l51.77-29.891,51.765,29.891Zm51.765,33.473-51.765,29.891L324.9,415.118l51.77-29.891Zm0,63.364-51.765,29.891L324.9,478.482l51.77-29.891Zm0,63.359-51.765,29.891L324.9,541.841l51.77-29.886Zm5.718,66.666L382.378,638.4,324.9,605.205l51.77-29.891Zm0,63.359-51.77,29.891-51.77-29.891,51.77-29.886Zm0,63.364-55.579,32.09L326.8,737.43l55.579-32.09Zm-3.809,65.564-51.77,29.886L326.8,800.794l51.77-29.891Zm0,63.359-51.77,29.891L326.8,864.153l51.77-29.891Zm0,63.364-51.77,29.891L326.8,927.517l51.77-29.891Zm0,63.364-51.77,29.886L326.8,990.881l51.77-29.891Zm0,63.359-51.77,29.891L326.8,1054.24l51.77-29.891Zm0,63.359-51.77,29.9-51.77-29.9,51.77-29.886Zm0,63.364-51.77,29.9-51.77-29.9,51.77-29.886Zm0,63.364-51.77,29.891-51.77-29.891,51.77-29.891Zm0,63.359-51.77,29.9-51.77-29.9,51.77-29.886Zm0,63.364-51.77,29.9-51.77-29.9,51.77-29.886Zm0,63.364-51.77,29.891-51.77-29.891,51.77-29.891Zm0,63.364-51.77,29.891-51.77-29.891,51.77-29.891Zm0,63.359-51.77,29.9-51.77-29.9,51.77-29.886Zm3.809,65.569-51.77,29.886L326.8,1624.5l51.77-29.891Zm0,63.359-51.77,29.891-51.77-29.891,51.77-29.891Zm0,63.364-57.483,33.188-51.77-29.891,57.483-33.193Zm-5.718,66.656-51.765,29.9-51.77-29.9,51.77-29.886Zm3.105,1.8,51.77,29.891-51.77,29.886-51.77-29.886Zm3.105-1.8,57.483-33.188,51.765,29.891-57.483,33.193Zm112.353-1.506,51.77,29.891-57.483,33.188-51.77-29.886Zm3.105-1.791,51.77-29.891,51.765,29.891-51.765,29.891Zm106.64,1.791,51.77,29.891-51.77,29.886-51.77-29.886Zm3.1-1.791,51.77-29.891,51.77,29.891-51.77,29.891Zm106.645,1.791,51.765,29.891-51.765,29.886-51.77-29.886Zm3.1-1.791,51.77-29.891,51.77,29.891-51.77,29.891Zm106.64,1.791,51.77,29.891-51.77,29.886-51.765-29.886Zm3.105-1.791L931.1,1786.9l51.77,29.891-51.77,29.891Zm106.64,1.791,51.77,29.891-51.77,29.886-51.77-29.886Zm3.1-1.791,51.77-29.891,51.77,29.891-51.77,29.891Zm106.645,1.791,51.77,29.891-51.77,29.886-51.77-29.886Zm3.1-1.791,51.77-29.891,51.77,29.891-51.77,29.891Zm106.64,1.791,51.77,29.891-51.77,29.886-51.77-29.886Zm3.105-1.791,51.765-29.891,51.775,29.891-51.775,29.891Zm106.64,1.791,51.77,29.891-51.77,29.886-51.77-29.886Zm3.105-1.791,51.765-29.891,51.775,29.891-51.775,29.891Zm106.64,1.791,51.77,29.891-51.77,29.886-51.77-29.886Zm3.1-1.791,51.77-29.891,51.765,29.891-51.765,29.891Zm106.64,1.791,51.775,29.891-51.775,29.886-51.765-29.886Zm3.105-1.791,51.77-29.891,51.765,29.891-51.765,29.891Zm106.64,1.791,51.77,29.891-51.77,29.886-51.765-29.886Zm3.105-1.791L1699.3,1786.9l51.77,29.891-51.77,29.891Zm106.64,1.791,57.488,33.193-51.775,29.886-57.483-33.188Zm3.105-1.791,51.765-29.891,57.488,33.188-51.775,29.9Zm112.353,5.093,51.77,29.891-51.77,29.886-51.77-29.886Zm-57.483-36.775,51.77-29.886,57.483,33.188-51.77,29.886Zm0-63.359,51.77-29.891,51.765,29.891-51.765,29.886Zm0-63.364,51.77-29.891,51.765,29.891-51.765,29.886Zm0-63.364,55.579-32.085,51.77,29.891-55.579,32.085Zm3.809-65.559,51.77-29.891,51.77,29.891-51.77,29.891Zm0-63.364,51.77-29.886,51.77,29.886-51.77,29.891Zm0-63.359,51.77-29.891,51.77,29.891-51.77,29.886Zm0-63.364,51.77-29.891,51.77,29.891-51.77,29.891Zm0-63.364,51.77-29.886,51.77,29.886-51.77,29.891Zm0-63.359,51.77-29.891,51.77,29.891-51.77,29.886Zm0-63.364,51.77-29.891,51.77,29.891-51.77,29.886Zm0-63.364,51.77-29.891,51.77,29.891-51.77,29.891Zm0-63.359,51.77-29.891,51.77,29.891-51.77,29.886Zm0-63.364,51.77-29.891L1919.5,959.2l-51.77,29.891Zm0-63.364,51.77-29.891,51.77,29.891-51.77,29.891Zm0-63.359,51.77-29.891,51.77,29.891-51.77,29.886Zm-3.809-65.564,51.77-29.891,55.579,32.09L1867.73,799Zm0-63.364,51.77-29.886,51.765,29.886-51.765,29.891Zm0-63.359,51.77-29.891,51.765,29.891-51.765,29.891Zm0-63.364,57.483-33.188,51.77,29.886-57.483,33.193Zm5.714-66.666,51.77-29.886,51.77,29.886-51.77,29.891Zm0-63.359,51.77-29.891L1921.4,446.8l-51.77,29.891Zm0-63.364,51.77-29.891,51.77,29.891-51.77,29.891Zm-3.105-65.15L1762.994,288.4l51.765-29.891,51.775,29.891Zm-3.1,1.791-51.77,29.886-51.775-29.886,51.775-29.891Zm-106.64-1.791L1653.249,288.4l51.775-29.891,51.765,29.891Zm-3.105,1.791-51.77,29.886-51.77-29.886,51.77-29.891Zm-106.64-1.791L1543.5,288.4l51.775-29.891,51.765,29.891Zm-3.105,1.791-51.77,29.886-51.77-29.886,51.77-29.891Zm-106.64-1.791-51.77-29.891,51.77-29.891L1537.3,288.4Zm-3.105,1.791-57.483,33.188-51.77-29.891,57.488-33.188Zm-112.358,1.506-51.765-29.891,57.483-33.188,51.77,29.891Zm-3.1,1.791-51.77,29.891-51.77-29.891,51.77-29.891Zm-106.645-1.791-51.765-29.891,51.765-29.886,51.775,29.886Zm-3.1,1.791-51.77,29.891-51.77-29.891,51.77-29.891Zm-106.64-1.791-51.77-29.891,51.77-29.886,51.77,29.886Zm-3.1,1.791-51.77,29.891-51.77-29.891,51.77-29.891Zm-106.645-1.791-51.765-29.891,51.765-29.886,51.77,29.886Zm-3.1,1.791-51.77,29.891L934.2,323.374l51.77-29.891ZM931.1,321.583,873.611,288.4l51.77-29.891,57.488,33.188Zm-3.105,1.791-51.77,29.891-57.483-33.188,51.77-29.891Zm-112.353-5.088L763.871,288.4l51.77-29.891L867.406,288.4Zm-3.105,1.791-51.77,29.886L709,320.077l51.77-29.891ZM705.9,318.286,654.126,288.4,705.9,258.5,757.66,288.4Zm-3.105,1.791-51.77,29.886-51.77-29.886,51.77-29.891Zm-106.64-1.791L544.38,288.4,596.15,258.5,647.92,288.4Zm-3.1,1.791-51.77,29.886-51.77-29.886,51.77-29.891Zm-106.645-1.791L434.64,288.4,486.405,258.5l51.77,29.891Zm-3.1,1.791-51.77,29.886-51.77-29.886,51.77-29.891Zm-106.64-1.791L324.9,288.4l51.77-29.891L428.43,288.4Zm-3.105,1.791-51.77,29.886-51.765-29.886,51.765-29.891Zm0,63.359-51.77,29.891-51.765-29.891,51.765-29.891Zm0,63.364-51.77,29.891L270.025,446.8,321.79,416.91Zm0,63.359-51.77,29.9-51.765-29.9,51.765-29.886Zm0,63.364-51.77,29.891-51.765-29.891,51.765-29.886Zm5.718,66.666-51.77,29.891-57.483-33.193L321.79,607Zm0,63.359L323.7,735.639l-51.77-29.891,55.579-32.085Zm-3.814,65.564L323.7,799l-51.77-29.886,51.77-29.891Zm0,63.364L323.7,862.362l-51.77-29.886,51.77-29.891Zm0,63.359L323.7,925.725l-51.77-29.891,51.77-29.891Zm0,63.364L323.7,989.089,271.929,959.2l51.77-29.891Zm0,63.364L323.7,1052.448l-51.77-29.886,51.77-29.891Zm0,63.359L323.7,1115.812l-51.77-29.891,51.77-29.891Zm0,63.364L323.7,1179.171l-51.77-29.886,51.77-29.891Zm0,63.364L323.7,1242.535l-51.77-29.886,51.77-29.891Zm0,63.359L323.7,1305.9l-51.77-29.891,51.77-29.886Zm0,63.364L323.7,1369.258l-51.77-29.886,51.77-29.891Zm0,63.364L323.7,1432.622l-51.77-29.886,51.77-29.891Zm0,63.359L323.7,1495.986l-51.77-29.891,51.77-29.886Zm0,63.364L323.7,1559.345l-51.77-29.886,51.77-29.891Zm0,63.364L323.7,1622.709l-51.77-29.886,51.77-29.891Zm3.814,65.559-51.77,29.886-55.579-32.085L323.7,1626.3Zm0,63.364-57.488,33.188-51.765-29.891,57.483-33.188Zm-5.718,66.661-51.77,29.886-51.765-29.886,51.765-29.891Zm0,63.364-51.77,29.886-51.765-29.886,51.765-29.891Zm0,63.359-51.77,29.891-51.765-29.891,51.765-29.886ZM324.9,1883.448l51.77-29.891,51.765,29.891-51.765,29.9Zm106.64,1.8,51.77,29.886-51.77,29.891-51.77-29.891Zm3.105-1.8,51.765-29.891,51.77,29.891-51.77,29.9Zm106.64,1.8,51.77,29.886-51.77,29.891-51.77-29.891Zm3.1-1.8,57.488-33.188,51.765,29.891-57.483,33.193Zm112.358-1.506,51.77,29.891-57.488,33.188-51.77-29.891Zm3.1-1.791,51.77-29.891,51.77,29.891-51.77,29.891Zm106.64,1.791,51.77,29.891-51.77,29.886-51.765-29.886Zm3.105-1.791,51.77-29.891,51.77,29.891-51.77,29.891Zm106.64,1.791,51.77,29.891-51.77,29.886-51.765-29.886Zm3.105-1.791,51.77-29.891,51.77,29.891-51.77,29.891Zm106.64,1.791,51.77,29.891-51.77,29.886-51.77-29.886Zm3.1-1.791,51.77-29.891,51.77,29.891-51.77,29.891Zm106.645,1.791,51.77,29.891-51.77,29.886-51.77-29.886Zm3.1-1.791,51.77-29.891,51.77,29.891-51.77,29.891Zm106.64,1.791,51.77,29.891-51.77,29.886-51.77-29.886Zm3.105-1.791,51.765-29.891,51.775,29.891-51.775,29.891Zm106.64,1.791,51.77,29.891-51.77,29.886-51.77-29.886Zm3.105-1.791,51.765-29.891,51.775,29.891-51.775,29.891Zm106.64,1.791,51.77,29.891-51.77,29.886-51.77-29.886Zm3.1-1.791,51.77-29.891,51.765,29.891-51.765,29.891Zm106.64,1.791,51.775,29.891-51.775,29.886-51.765-29.886Zm3.105-1.791,51.77-29.891,51.765,29.891-51.765,29.891Zm106.64,1.791,57.488,33.188-51.775,29.891-57.478-33.188Zm3.105-1.791,51.765-29.891,57.488,33.188-51.765,29.9Zm112.354,5.093,51.775,29.886-51.775,29.891-51.77-29.891Zm3.105-1.8,51.765-29.891,51.775,29.891-51.775,29.9Zm106.64,1.8,51.77,29.886-51.77,29.891-51.77-29.891Zm3.105-1.8,51.765-29.891,51.775,29.891-51.775,29.9Zm0-63.364L1924.5,1790.2l51.775,29.886-51.775,29.9Zm-5.713-66.656,51.765-29.9,57.488,33.193-51.775,29.891Zm0-63.364,51.765-29.891,51.77,29.891-51.77,29.891Zm0-63.359,55.574-32.1,51.77,29.891-55.579,32.091Zm3.8-65.569,51.77-29.886,51.77,29.886-51.77,29.9Zm0-63.359,51.77-29.891,51.77,29.891-51.77,29.891Zm0-63.364,51.77-29.891,51.77,29.891L1922.6,1464.3Zm0-63.364,51.77-29.886,51.77,29.886-51.77,29.9Zm0-63.359,51.77-29.891,51.77,29.891-51.77,29.891Zm0-63.364,51.77-29.891,51.77,29.891-51.77,29.891Zm0-63.364,51.77-29.886,51.77,29.886-51.77,29.9Zm0-63.359,51.77-29.891,51.77,29.891-51.77,29.891Zm0-63.359,51.77-29.9,51.77,29.9-51.77,29.886Zm0-63.364,51.77-29.891,51.77,29.891-51.77,29.886Zm0-63.364,51.77-29.891,51.77,29.891-51.77,29.891Zm0-63.364,51.77-29.891,51.77,29.891-51.77,29.891Zm0-63.359L1922.6,770.9l51.77,29.891L1922.6,830.68Zm-3.8-65.564,51.765-29.891,55.579,32.09-51.77,29.891Zm0-63.364,51.765-29.886,51.77,29.886-51.77,29.891Zm0-63.359,57.478-33.193,51.775,29.891L1918.791,638.4Zm5.713-66.666,51.765-29.886,51.775,29.886L1924.5,571.732Zm0-63.359,51.765-29.891,51.775,29.891L1924.5,508.373Zm0-63.364,51.765-29.891,51.775,29.891L1924.5,445.009Zm0-63.359,51.765-29.891,51.775,29.891L1924.5,381.645Zm54.87-31.682,51.77-29.891,51.77,29.891-51.77,29.886Zm0-63.364,51.77-29.891,51.77,29.891-51.77,29.891Zm-3.105-1.791-51.765-29.891,51.765-29.891,51.775,29.891Zm-3.1,1.791-51.77,29.891-51.77-29.891,51.77-29.891Zm-106.645-1.791-51.765-29.891,51.765-29.891,51.775,29.891Zm-3.1,1.791-51.77,29.891-51.775-29.891,51.775-29.891Zm-106.64-1.791-51.775-29.891,51.775-29.891,51.765,29.891Zm-3.105,1.791-51.77,29.891-51.77-29.891,51.77-29.891Zm-106.64-1.791L1543.5,225.031l51.775-29.891,51.765,29.891Zm-3.105,1.791L1540.4,286.6l-51.77-29.891,51.77-29.891Zm-106.64-1.791-51.77-29.891,51.77-29.891,51.77,29.891Zm-3.105,1.791L1430.663,286.6l-51.775-29.891,51.775-29.891Zm-106.64-1.791-51.765-29.891,51.765-29.891,51.77,29.891Zm-3.105,1.791L1315.2,289.9l-51.77-29.891,57.488-33.188Zm-112.358,1.511-51.765-29.891,57.483-33.193,51.77,29.891Zm-3.1,1.786-51.77,29.891-51.77-29.891,51.77-29.886Zm-106.64-1.786-51.77-29.891,51.77-29.891,51.77,29.891Zm-3.1,1.786-51.77,29.891-51.77-29.891,51.77-29.886Zm-106.645-1.786-57.483-33.193,51.77-29.891,57.483,33.193Zm-3.1,1.786L985.969,289.9l-57.483-33.188,51.77-29.891Zm-112.358-5.088-51.77-29.891,51.77-29.891,51.77,29.891Zm-3.1,1.791L870.511,286.6l-51.77-29.891,51.77-29.891Zm-106.64-1.791-51.77-29.891,51.77-29.891,51.765,29.891Zm-3.105,1.791L760.766,286.6,709,256.713l51.77-29.891ZM705.9,254.922l-51.77-29.891,51.77-29.891,51.765,29.891Zm-3.105,1.791L651.021,286.6l-51.77-29.891,51.77-29.891Zm-106.64-1.791-51.77-29.891,51.77-29.891,51.77,29.891Zm-3.1,1.791L541.28,286.6l-51.77-29.891,51.77-29.891Zm-106.645-1.791L434.64,225.031l51.765-29.891,51.77,29.891Zm-3.1,1.791L431.535,286.6l-51.77-29.891,51.77-29.891Zm-106.64-1.791L324.9,225.031l51.77-29.891,51.765,29.891Zm-3.105,1.791L321.79,286.6l-51.765-29.891,51.765-29.891Zm-106.64-1.791-51.77-29.891,51.77-29.891,51.77,29.891ZM318.69,288.4l-51.77,29.891L215.15,288.4,266.92,258.5Zm0,63.364-51.77,29.886-51.77-29.886,51.77-29.891Zm0,63.359-51.77,29.891-51.77-29.891,51.77-29.891Zm0,63.364-51.77,29.891-51.77-29.891,51.77-29.891Zm0,63.359-51.77,29.891-51.77-29.891,51.77-29.886Zm0,63.364L266.92,635.1l-51.77-29.891,51.77-29.891Zm5.713,66.661-55.579,32.09-57.483-33.188,55.579-32.09Zm-3.8,65.564-51.775,29.891-51.77-29.891,51.77-29.891Zm0,63.364L268.824,830.68l-51.77-29.886,51.77-29.891Zm0,63.359-51.77,29.891-51.765-29.891,51.765-29.891Zm0,63.364-51.775,29.891-51.77-29.891,51.77-29.891Zm0,63.364-51.775,29.886-51.77-29.886,51.77-29.891Zm0,63.359-51.775,29.891-51.77-29.891,51.77-29.891Zm0,63.359-51.775,29.9-51.77-29.9,51.77-29.886Zm0,63.364-51.775,29.9-51.77-29.9,51.77-29.886Zm0,63.364-51.775,29.891-51.77-29.891,51.77-29.891Zm0,63.359-51.775,29.9-51.77-29.9,51.77-29.886Zm0,63.364-51.775,29.9-51.77-29.9,51.77-29.886Zm0,63.364L268.824,1464.3l-51.77-29.891,51.77-29.891Zm0,63.364-51.775,29.891-51.77-29.891,51.77-29.891Zm0,63.359-51.775,29.9-51.77-29.9,51.77-29.886Zm0,63.364-51.775,29.891-51.77-29.891,51.77-29.891Zm3.8,65.564-57.483,33.188-55.579-32.09,57.483-33.188Zm-5.713,66.661-51.77,29.891-51.77-29.891,51.77-29.891Zm0,63.359-51.77,29.9-51.77-29.9,51.77-29.886Zm0,63.364-51.77,29.9-51.77-29.9,51.77-29.891Zm0,63.364L266.92,1976.7l-51.77-29.891,51.77-29.891Zm3.1,1.791,51.77,29.891-51.77,29.891-51.765-29.891Zm3.105-1.791,51.77-29.891,51.765,29.891L376.665,1976.7Zm106.64,1.791,51.77,29.891-51.77,29.891-51.77-29.891Zm3.105-1.791,51.765-29.891,51.77,29.891-51.77,29.891Zm106.64,1.791,51.77,29.891-51.77,29.891-51.77-29.891Zm3.1-1.791,51.77-29.891,51.77,29.891L596.15,1976.7Zm106.64,1.791,51.77,29.891-51.77,29.886-51.77-29.886Zm3.105-1.791,57.483-33.193,51.77,29.891L705.9,1976.7Zm112.353-1.506,51.77,29.886-57.483,33.188L709,1978.494Zm3.105-1.8,51.77-29.891,51.77,29.891-51.77,29.9Zm106.64,1.8,51.77,29.886-51.77,29.891-51.765-29.891Zm3.105-1.8,51.77-29.891,51.77,29.891-51.77,29.9Zm106.64,1.8,51.77,29.886-51.77,29.891-51.77-29.891Zm3.1-1.8,51.77-29.891,51.77,29.891-51.77,29.9Zm106.645,1.8,51.77,29.886-51.77,29.891-51.77-29.891Zm3.1-1.8,51.77-29.891,51.77,29.891-51.77,29.9Zm106.64,1.8,51.77,29.886-51.77,29.891-51.77-29.891Zm3.105-1.8,51.765-29.891,51.775,29.891-51.775,29.9Zm106.64,1.8,51.77,29.886-51.77,29.891-51.77-29.891Zm3.105-1.8,51.765-29.891,51.775,29.891-51.775,29.9Zm106.64,1.8,51.77,29.886-51.77,29.891-51.77-29.891Zm3.1-1.8,51.77-29.891,51.765,29.891-51.765,29.9Zm106.64,1.8,57.488,33.188-51.77,29.886-57.483-33.188Zm3.105-1.8,51.77-29.891,57.483,33.193-51.765,29.891Zm112.353,5.093,51.775,29.891-51.775,29.886-51.765-29.886Zm3.105-1.791,51.775-29.891,51.765,29.891-51.765,29.891Zm106.64,1.791,51.775,29.891-51.775,29.886-51.77-29.886Zm3.105-1.791,51.765-29.891,51.775,29.891-51.775,29.891Zm106.64,1.791,51.77,29.891-51.77,29.886-51.77-29.886Zm3.105-1.791,51.765-29.891,51.775,29.891L1924.5,1976.7Zm106.64,1.791,51.77,29.891-51.77,29.886-51.77-29.886Zm-51.77-33.473,51.77-29.886,51.77,29.886-51.77,29.891Zm0-63.359,51.77-29.891,51.77,29.891-51.77,29.886Zm0-63.364,51.77-29.891,51.77,29.891-51.77,29.886Zm-5.713-66.661,51.765-29.891,57.488,33.188-51.77,29.891Zm0-63.364,55.574-32.085,51.77,29.886-55.579,32.085Zm3.8-65.559,51.77-29.891,51.77,29.891-51.77,29.886Zm0-63.364,51.77-29.891,51.77,29.891-51.77,29.891Zm0-63.364,51.77-29.886,51.77,29.886-51.77,29.891Zm0-63.359,51.77-29.891,51.77,29.891-51.77,29.886Zm0-63.364,51.77-29.891,51.77,29.891-51.77,29.891Zm0-63.364,51.77-29.886,51.77,29.886-51.77,29.891Zm0-63.359,51.77-29.891,51.77,29.891-51.77,29.886Zm0-63.364,51.77-29.891,51.77,29.891-51.77,29.886Zm0-63.364,51.77-29.891,51.77,29.891-51.77,29.891Zm0-63.359,51.77-29.891,51.77,29.891-51.77,29.886Zm0-63.364,51.77-29.891,51.77,29.891-51.77,29.891Zm0-63.364,51.77-29.891,51.77,29.891-51.77,29.891Zm0-63.359,51.77-29.891,51.77,29.891-51.77,29.886Zm0-63.364,51.77-29.891,51.77,29.891L1977.47,799Zm-3.8-65.564,51.765-29.886,55.579,32.085-51.77,29.891Zm0-63.359L1979.379,607l51.77,29.891-57.488,33.193Zm5.713-66.666,51.77-29.886,51.77,29.886-51.77,29.891Zm0-63.364,51.77-29.886,51.77,29.886-51.77,29.891Zm0-63.359,51.77-29.891,51.77,29.891-51.77,29.891Zm0-63.364,51.77-29.891,51.77,29.891-51.77,29.891Zm54.87-31.677,51.77-29.891,51.77,29.891-51.77,29.886Zm0-63.364,51.77-29.891,51.77,29.891-51.77,29.891Zm0-63.364,51.77-29.891,51.77,29.891-51.77,29.891Zm0-63.364,51.77-29.886,51.77,29.886-51.77,29.891Zm48.669,31.687-51.77,29.886-51.77-29.886,51.77-29.9Zm-106.645-1.8-51.765-29.891,51.765-29.886,51.775,29.886Zm-3.1,1.8-51.77,29.886-51.77-29.886,51.77-29.9Zm-106.645-1.8-51.765-29.891,51.765-29.886,51.775,29.886Zm-3.1,1.8-51.77,29.886-51.775-29.886,51.775-29.9Zm-106.64-1.8-51.775-29.891,51.775-29.886,51.765,29.886Zm-3.105,1.8-51.77,29.886-51.77-29.886,51.77-29.9Zm-106.64-1.8L1543.5,161.668l51.775-29.886,51.765,29.886Zm-3.105,1.8L1540.4,223.24l-51.77-29.886,51.77-29.9Zm-106.64-1.8-51.77-29.891,51.77-29.886,51.77,29.886Zm-3.105,1.8-51.765,29.886-51.775-29.886,51.775-29.9Zm-106.64-1.8-51.765-29.891,51.765-29.886,51.77,29.886Zm-3.105,1.8-51.765,29.886-51.775-29.886,51.775-29.9Zm-106.64-1.8-51.77-29.891,51.77-29.886,51.77,29.886Zm-3.1,1.8-57.488,33.188-51.77-29.891,57.488-33.193Zm-112.358,1.506L1093.1,161.668l57.483-33.188,57.483,33.188Zm-3.1,1.791-51.77,29.891-57.483-33.188,51.77-29.9Zm-112.358-5.093-51.77-29.891,51.77-29.886,51.77,29.886Zm-3.105,1.8L980.256,223.24l-51.77-29.886,51.77-29.9Zm-106.64-1.8-51.77-29.891,51.77-29.886,51.77,29.886Zm-3.1,1.8-51.77,29.886-51.77-29.886,51.77-29.9Zm-106.64-1.8-51.77-29.891,51.77-29.886,51.765,29.886Zm-3.105,1.8-51.77,29.886L709,193.354l51.77-29.9Zm-106.64-1.8-51.77-29.891,51.77-29.886,51.765,29.886Zm-3.105,1.8-51.77,29.886-51.77-29.886,51.77-29.9Zm-106.64-1.8-51.77-29.891,51.77-29.886,51.77,29.886Zm-3.1,1.8L541.28,223.24l-51.77-29.886,51.77-29.9Zm-106.645-1.8L434.64,161.668l51.765-29.886,51.77,29.886Zm-3.1,1.8-51.77,29.886-51.77-29.886,51.77-29.9Zm-106.64-1.8L324.9,161.668l51.77-29.886,51.765,29.886Zm-3.105,1.8L321.79,223.24l-51.765-29.886,51.765-29.9Zm-106.64-1.8-51.77-29.891,51.77-29.886,51.77,29.886Zm-3.105,1.8L212.05,223.24l-51.77-29.886,51.77-29.9Zm0,63.359L212.05,286.6l-51.77-29.891,51.77-29.891Zm0,63.364L212.05,349.963l-51.77-29.886,51.77-29.891Zm0,63.359L212.05,413.327l-51.77-29.891,51.77-29.891Zm0,63.364L212.05,476.691,160.28,446.8l51.77-29.891Zm0,63.359-51.765,29.9-51.77-29.9,51.77-29.886Zm0,63.364L212.05,603.414l-51.77-29.891,51.77-29.886Zm0,63.364-55.579,32.09-51.765-29.891L212.05,607Zm1.909,68.861-51.77,29.891-57.483-33.188,51.765-29.891Zm0,63.364L213.954,799l-51.765-29.886,51.765-29.891Zm0,63.364-51.77,29.886-51.765-29.886,51.765-29.891Zm0,63.359-51.77,29.891-51.765-29.891,51.765-29.891Zm0,63.364-51.77,29.891L162.189,959.2l51.765-29.891Zm0,63.364-51.77,29.886-51.765-29.886,51.765-29.891Zm0,63.359-51.77,29.891-51.765-29.891,51.765-29.891Zm0,63.364-51.77,29.886-51.765-29.886,51.765-29.891Zm0,63.364-51.77,29.886-51.765-29.886,51.765-29.891Zm0,63.359-51.77,29.891-51.765-29.891,51.765-29.886Zm0,63.364-51.77,29.886-51.765-29.886,51.765-29.891Zm0,63.364-51.77,29.886-51.765-29.886,51.765-29.891Zm0,63.359-51.77,29.891L162.189,1466.1l51.765-29.886Zm0,63.364-51.77,29.886-51.765-29.886,51.765-29.891Zm0,63.364-51.77,29.886-51.765-29.886,51.765-29.891Zm0,63.359-57.488,33.193-51.765-29.891,57.483-33.188Zm-1.909,68.861-51.765,29.891-55.579-32.085,51.765-29.891Zm0,63.364-51.765,29.886-51.77-29.886,51.77-29.891Zm0,63.364-51.765,29.886-51.77-29.886,51.77-29.891Zm0,63.359L212.05,1945.02l-51.77-29.891,51.77-29.886Zm0,63.364-51.765,29.891-51.77-29.891,51.77-29.891Zm0,63.364-51.765,29.886-51.77-29.886,51.77-29.891Zm-48.665-31.687,51.77-29.886,51.77,29.886-51.77,29.9Zm106.64,1.8,51.77,29.891-51.77,29.886-51.765-29.886Zm3.105-1.8,51.77-29.886,51.765,29.886-51.765,29.9Zm106.64,1.8,51.77,29.891-51.77,29.886-51.77-29.886Zm3.105-1.8,51.765-29.886,51.77,29.886-51.77,29.9Zm106.64,1.8,51.77,29.891-51.77,29.886-51.77-29.886Zm3.1-1.8,51.77-29.886,51.77,29.886-51.77,29.9Zm106.64,1.8,51.77,29.891-51.77,29.886-51.77-29.886Zm3.105-1.8,51.77-29.886,51.765,29.886-51.765,29.9Zm106.64,1.8,51.77,29.891-51.77,29.886L709,2041.858Zm3.105-1.8,57.483-33.188,51.77,29.891-57.483,33.193Zm112.353-1.506,51.77,29.891-57.483,33.188-51.77-29.886Zm3.105-1.791,51.77-29.891,51.77,29.891-51.77,29.891Zm106.64,1.791,51.77,29.891-51.77,29.891-51.77-29.891Zm3.1-1.791,51.77-29.891,51.77,29.891-51.77,29.891Zm106.645,1.791,51.77,29.891-51.77,29.891-51.77-29.891Zm3.1-1.791,51.77-29.891,51.77,29.891-51.77,29.891Zm106.64,1.791,51.77,29.891-51.77,29.891-51.77-29.891Zm3.105-1.791,51.765-29.891,51.775,29.891-51.775,29.891Zm106.64,1.791,51.77,29.891-51.77,29.891-51.77-29.891Zm3.105-1.791,51.765-29.891,51.775,29.891-51.775,29.891Zm106.64,1.791,57.483,33.193-51.765,29.886-57.488-33.188Zm3.1-1.791,51.77-29.891,57.488,33.188-51.77,29.9Zm112.358,5.093,51.77,29.891-51.77,29.886-51.77-29.886Zm3.1-1.8,51.775-29.886,51.765,29.886-51.765,29.9Zm106.64,1.8,51.775,29.891-51.775,29.886-51.765-29.886Zm3.105-1.8,51.775-29.886,51.765,29.886-51.765,29.9Zm106.64,1.8,51.775,29.891-51.775,29.886-51.77-29.886Zm3.105-1.8,51.765-29.886,51.775,29.886-51.775,29.9Zm106.64,1.8,51.77,29.891-51.77,29.886-51.77-29.886Zm3.105-1.8,51.765-29.886,51.775,29.886-51.775,29.9Zm106.64,1.8,51.77,29.891-51.77,29.886-51.77-29.886Zm3.1-1.8,51.77-29.886,51.77,29.886-51.77,29.9Zm0-63.359,51.77-29.891,51.77,29.891-51.77,29.891Zm0-63.364,51.77-29.891,51.77,29.891-51.77,29.9Zm0-63.364,51.77-29.886,51.77,29.886-51.77,29.9Zm0-63.359,51.77-29.891,51.77,29.891-51.77,29.891Zm-5.714-66.661,55.574-32.091,57.488,33.188-55.579,32.09Zm3.809-65.564,51.765-29.891,51.775,29.891-51.775,29.891Zm0-63.364,51.765-29.886,51.775,29.886-51.775,29.9Zm0-63.359,51.765-29.891,51.775,29.891-51.775,29.891Zm0-63.364,51.765-29.891,51.775,29.891L2032.34,1464.3Zm0-63.364,51.765-29.886,51.775,29.886-51.775,29.9Zm0-63.359,51.765-29.891,51.775,29.891-51.775,29.891Zm0-63.364,51.765-29.891,51.775,29.891-51.775,29.891Zm0-63.364,51.765-29.886,51.775,29.886-51.775,29.9Zm0-63.359,51.765-29.891,51.775,29.891-51.775,29.891Zm0-63.359,51.765-29.9,51.775,29.9-51.775,29.886Zm0-63.364,51.765-29.891,51.775,29.891-51.775,29.886Zm0-63.364,51.765-29.891,51.775,29.891-51.775,29.891Zm0-63.364,51.765-29.891,51.775,29.891-51.775,29.891Zm0-63.359L2032.34,770.9l51.775,29.891L2032.34,830.68Zm0-63.364,51.765-29.891,51.775,29.891-51.775,29.891Zm-3.809-65.564,57.483-33.188,55.579,32.09-57.488,33.188Zm5.714-66.661,51.77-29.891,51.77,29.891L2034.25,635.1Zm0-63.364,51.77-29.886,51.77,29.886-51.77,29.891Zm0-63.359,51.77-29.891,51.77,29.891-51.77,29.891Zm0-63.364,51.77-29.891,51.77,29.891-51.77,29.891Zm54.875-31.682,51.765-29.891,51.775,29.891-51.775,29.891Zm0-63.359,51.765-29.891,51.775,29.891-51.775,29.886Zm0-63.364,51.765-29.891,51.775,29.891L2089.12,286.6Zm0-63.359,51.765-29.9,51.775,29.9L2089.12,223.24Zm0-63.364L2089.12,100.1l51.775,29.891-51.775,29.886Zm-3.105-1.8-51.77-29.886,51.77-29.891,51.77,29.891Zm-3.1,1.8-51.77,29.886-51.77-29.886,51.77-29.891Zm-106.645-1.8-51.765-29.886L1924.5,68.418l51.775,29.891Zm-3.1,1.8-51.77,29.886-51.77-29.886,51.77-29.891Zm-106.645-1.8-51.765-29.886,51.765-29.891,51.775,29.891Zm-3.1,1.8-51.77,29.886-51.775-29.886,51.775-29.891Zm-106.64-1.8-51.775-29.886,51.775-29.891,51.765,29.891Zm-3.105,1.8-51.77,29.886-51.77-29.886,51.77-29.891Zm-106.64-1.8L1543.5,98.309l51.775-29.891,51.765,29.891Zm-3.105,1.8-51.77,29.886-51.77-29.886L1540.4,100.1Zm-106.64-1.8-51.77-29.886,51.77-29.891,51.77,29.891Zm-3.105,1.8-51.765,29.886-51.775-29.886,51.775-29.891Zm-106.64-1.8-51.765-29.886,51.765-29.891,51.77,29.891Zm-3.105,1.8-51.765,29.886-51.775-29.886,51.775-29.891Zm-106.64-1.8L1208.56,95.007l51.765-29.891,57.488,33.193Zm-3.1,1.8-51.77,29.886-57.488-33.188,51.77-29.891ZM1150.585,124.9l-51.77-29.891,51.77-29.891,51.77,29.891Zm-3.1,1.791L1090,159.876l-51.77-29.886L1095.714,96.8Zm-112.358,1.506-51.77-29.886,57.483-33.193,51.77,29.891Zm-3.105,1.8-51.765,29.886-51.77-29.886,51.77-29.891Zm-106.64-1.8-51.77-29.886,51.77-29.891,51.77,29.891Zm-3.1,1.8-51.77,29.886-51.77-29.886,51.77-29.891Zm-106.64-1.8-51.77-29.886,51.77-29.891,51.765,29.891Zm-3.105,1.8-51.77,29.886L709,129.991l51.77-29.891Zm-106.64-1.8-51.77-29.886L705.9,68.418,757.66,98.309Zm-3.105,1.8-51.77,29.886-51.77-29.886,51.77-29.891Zm-106.64-1.8L544.38,98.309l51.77-29.891,51.77,29.891Zm-3.1,1.8-51.77,29.886-51.77-29.886L541.28,100.1Zm-106.645-1.8L434.64,98.309l51.765-29.891,51.77,29.891Zm-3.1,1.8-51.77,29.886-51.77-29.886,51.77-29.891Zm-106.64-1.8L324.9,98.309l51.77-29.891L428.43,98.309Zm-3.105,1.8-51.77,29.886-51.765-29.886L321.79,100.1Zm-106.64-1.8L215.15,98.309l51.77-29.891,51.77,29.891Zm-3.105,1.8L212.05,159.876l-51.77-29.886L212.05,100.1Zm-106.635-1.8L105.4,98.309,157.18,68.418l51.765,29.891Zm51.765,33.473L157.18,191.558,105.4,161.668l51.775-29.886Zm0,63.364L157.18,254.922,105.4,225.031l51.775-29.891Zm0,63.364L157.18,318.286,105.4,288.4,157.18,258.5Zm0,63.364L157.18,381.645,105.4,351.759l51.775-29.891Zm0,63.359L157.18,445.009,105.4,415.118l51.775-29.891Zm0,63.364L157.18,508.373,105.4,478.482l51.775-29.891Zm0,63.359L157.18,571.732,105.4,541.841l51.775-29.886Zm0,63.364L153.371,637.3,101.6,607.4l55.584-32.09Zm-3.809,65.564-51.765,29.886L101.6,670.769l51.775-29.891Zm5.718,66.661-51.77,29.891L101.6,734.128l51.775-29.891Zm0,63.364-51.77,29.886-51.77-29.886,51.77-29.891Zm0,63.359-51.77,29.891-51.77-29.891,51.77-29.891Zm0,63.364-51.77,29.891-51.77-29.891,51.77-29.891Zm0,63.364-51.77,29.886-51.77-29.886,51.77-29.891Zm0,63.359-51.77,29.891-51.77-29.891,51.77-29.891Zm0,63.359-51.77,29.9-51.77-29.9,51.77-29.886Zm0,63.364-51.77,29.9-51.77-29.9,51.77-29.886Zm0,63.364-51.77,29.891-51.77-29.891,51.77-29.891Zm0,63.359-51.77,29.9-51.77-29.9,51.77-29.886Zm0,63.364-51.77,29.9-51.77-29.9,51.77-29.886Zm0,63.364-51.77,29.891-51.77-29.891,51.77-29.891Zm0,63.364-51.77,29.891-51.77-29.891,51.77-29.891Zm0,63.359-51.77,29.9-51.77-29.9,51.77-29.886Zm0,63.364-57.483,33.188L101.6,1627.8l57.488-33.193Zm-5.718,66.661-51.765,29.891L101.6,1691.161l51.775-29.886Zm3.809,65.564-51.765,29.891-55.584-32.09,51.775-29.886Zm0,63.359-51.765,29.9-51.775-29.9L157.18,1790.2Zm0,63.364-51.765,29.9-51.775-29.9,51.775-29.891Zm0,63.364L157.18,1976.7,105.4,1946.812l51.775-29.891Zm0,63.359-51.765,29.9-51.775-29.9,51.775-29.886Zm0,63.364-51.77,29.9-51.77-29.9,51.775-29.891Zm3.105,1.8,51.765,29.886-51.77,29.891-51.765-29.891Zm3.1-1.8,51.77-29.891,51.77,29.891-51.77,29.9Zm106.64,1.8,51.77,29.886-51.77,29.891-51.765-29.891Zm3.105-1.8,51.77-29.891,51.765,29.891-51.765,29.9Zm106.64,1.8,51.77,29.886-51.77,29.891-51.77-29.891Zm3.1-1.8,51.77-29.891,51.77,29.891-51.77,29.9Zm106.645,1.8,51.77,29.886-51.77,29.891-51.77-29.891Zm3.1-1.8,51.77-29.891,51.77,29.891-51.77,29.9Zm106.64,1.8,51.77,29.886-51.77,29.891-51.77-29.891Zm3.105-1.8,51.77-29.891,51.765,29.891-51.765,29.9Zm106.64,1.8,51.77,29.886-51.77,29.891L709,2105.217Zm3.105-1.8,51.77-29.891,51.765,29.891-51.765,29.9Zm106.64,1.8,51.77,29.886-51.77,29.891-51.77-29.891Zm3.1-1.8,57.488-33.188,51.77,29.886-57.488,33.2Zm112.358-1.506,51.77,29.891-57.488,33.188-51.765-29.891Zm3.1-1.8,51.77-29.886,51.77,29.886-51.77,29.9Zm106.645,1.8,51.77,29.891-51.77,29.886-51.77-29.886Zm3.1-1.8,51.77-29.886,51.77,29.886-51.77,29.9Zm106.64,1.8,51.77,29.891-51.77,29.886-51.77-29.886Zm3.105-1.8,51.765-29.886,51.775,29.886-51.775,29.9Zm106.64,1.8,57.483,33.188-51.765,29.891-57.488-33.188Zm3.105-1.8,51.765-29.886,57.488,33.188-51.77,29.9Zm112.358,5.1,51.765,29.886-51.765,29.891-51.775-29.891Zm3.1-1.8,51.77-29.891,51.77,29.891-51.77,29.9Zm106.64,1.8,51.77,29.886-51.77,29.891-51.77-29.891Zm3.1-1.8,51.775-29.891,51.765,29.891-51.765,29.9Zm106.64,1.8,51.775,29.886-51.775,29.891-51.765-29.891Zm3.105-1.8,51.775-29.891,51.765,29.891-51.765,29.9Zm106.64,1.8,51.775,29.886-51.775,29.891-51.77-29.891Zm3.105-1.8,51.765-29.891,51.775,29.891-51.775,29.9Zm106.64,1.8,51.77,29.886-51.77,29.891-51.77-29.891Zm3.105-1.8,51.765-29.891,51.775,29.891-51.775,29.9Zm106.64,1.8,51.77,29.886-51.77,29.891-51.77-29.891Zm3.1-1.8,51.77-29.891,51.77,29.891-51.77,29.9Zm106.64,1.8,51.77,29.886-51.77,29.891-51.765-29.891Zm-51.765-33.473,51.765-29.891,51.77,29.891-51.77,29.886Zm0-63.364,51.765-29.891,51.77,29.891-51.77,29.886Zm0-63.364,51.765-29.886,51.77,29.886-51.77,29.891Zm0-63.359,51.765-29.891,51.77,29.891-51.77,29.886Zm0-63.364,51.765-29.891,51.77,29.891-51.77,29.886Zm0-63.364,55.579-32.085,51.765,29.891-55.579,32.085Zm-1.909-68.861,51.77-29.886,57.483,33.188-51.765,29.891Zm0-63.359,51.77-29.891,51.77,29.891-51.77,29.886Zm0-63.364,51.77-29.891,51.77,29.891-51.77,29.891Zm0-63.364,51.77-29.886,51.77,29.886-51.77,29.891Zm0-63.359,51.77-29.891,51.77,29.891-51.77,29.886Zm0-63.364,51.77-29.891,51.77,29.891-51.77,29.891Zm0-63.364,51.77-29.886,51.77,29.886-51.77,29.891Zm0-63.359,51.77-29.891,51.77,29.891-51.77,29.886Zm0-63.364,51.77-29.891,51.77,29.891-51.77,29.886Zm0-63.364,51.77-29.891,51.77,29.891-51.77,29.891Zm0-63.359,51.77-29.891,51.77,29.891-51.77,29.886Zm0-63.364,51.77-29.891,51.77,29.891-51.77,29.891Zm0-63.364,51.77-29.891,51.77,29.891-51.77,29.891Zm0-63.359,51.77-29.891,51.77,29.891-51.77,29.886Zm0-63.364,51.77-29.891,51.77,29.891L2087.215,799Zm0-63.364,57.488-33.188,51.765,29.891-57.483,33.188Zm1.909-68.861L2089.12,607l55.579,32.09-51.765,29.891Zm0-63.364,51.765-29.886,51.77,29.886-51.77,29.891Zm0-63.364,51.765-29.886,51.775,29.886L2089.12,540.05Zm0-63.359,51.765-29.891,51.775,29.891-51.775,29.891Zm158.4-95.041-51.765,29.886-51.77-29.886,51.77-29.891Zm.005-63.364-51.77,29.891-51.77-29.891,51.77-29.891Zm0-63.364-51.77,29.891-51.77-29.891,51.77-29.891Zm0-63.364-51.77,29.891-51.77-29.891,51.77-29.886Zm0-63.359-51.77,29.886-51.77-29.886,51.77-29.891Zm-51.77-93.255,51.77,29.891-51.77,29.891-51.77-29.891Zm-3.1,61.573L2089.12,96.517l-51.765-29.891,51.765-29.891ZM2034.25,5.054l51.77,29.891-51.77,29.891-51.77-29.891Zm-3.1,61.573-51.77,29.891-51.77-29.891,51.77-29.891ZM1924.5,5.054l51.775,29.891L1924.5,64.835l-51.765-29.891Zm-3.1,61.573-51.77,29.891-51.77-29.891,51.77-29.891ZM1814.759,5.054l51.775,29.891-51.775,29.891-51.765-29.891Zm-3.1,61.573-51.77,29.891-51.775-29.891,51.775-29.891ZM1705.024,5.054l51.765,29.891-51.765,29.891-51.775-29.891Zm-3.105,61.573-51.77,29.891-51.77-29.891,51.77-29.891ZM1595.279,5.054l51.765,29.891-51.765,29.891L1543.5,34.945Zm-3.105,61.573L1540.4,96.517l-51.77-29.891,51.77-29.891ZM1485.534,5.054l51.77,29.891-51.77,29.891-51.77-29.891Zm-3.105,61.573-51.765,29.891-51.775-29.891,51.775-29.891ZM1370.07,1.757l57.488,33.188-51.77,29.891-57.483-33.188Zm2.613,64.87-51.765,29.891L1263.43,63.325l51.77-29.891ZM1260.325,1.757,1312.1,31.648l-51.775,29.886L1208.56,31.648Zm-3.1,61.568-51.77,29.891-51.77-29.891,51.77-29.891ZM1150.585,1.757l51.77,29.891-51.77,29.886-51.77-29.886Zm-3.1,61.568-51.77,29.891-51.77-29.891,51.77-29.891ZM1040.839,1.757l51.77,29.891-51.77,29.886L989.075,31.648Zm-3.1,61.568L980.256,96.517l-51.77-29.891,57.483-33.193ZM931.1,1.757l51.77,29.891L925.381,64.835l-51.77-29.891Zm-8.819,64.87-51.77,29.891-51.77-29.891,51.77-29.891ZM815.641,5.054l51.765,29.891L815.641,64.835l-51.77-29.891Zm-3.105,61.573-51.77,29.891L709,66.627l51.77-29.891ZM705.9,5.054,757.66,34.945,705.9,64.835l-51.77-29.891ZM702.79,66.627l-51.77,29.891-51.77-29.891,51.77-29.891ZM596.15,5.054l51.77,29.891L596.15,64.835,544.38,34.945Zm-3.1,61.573L541.28,96.517,489.51,66.627l51.77-29.891ZM486.405,5.054l51.77,29.891-51.77,29.891L434.64,34.945Zm-3.1,61.573-51.77,29.891-51.77-29.891,51.77-29.891ZM376.665,5.054,428.43,34.945,376.665,64.835,324.9,34.945ZM373.56,66.627,321.79,96.517,270.025,66.627,321.79,36.736ZM266.92,5.054l51.77,29.891L266.92,64.835,215.15,34.945Zm-3.105,61.573L212.05,96.517,160.28,66.627l51.77-29.891ZM157.18,5.054l51.765,29.891L157.18,64.835,105.4,34.945ZM50.535,66.627,102.3,36.736l51.77,29.891L102.3,96.517Zm0,63.364L102.3,100.1l51.77,29.891L102.3,159.876Zm0,63.364,51.77-29.9,51.77,29.9L102.3,223.24Zm0,63.359,51.77-29.891,51.77,29.891L102.3,286.6Zm0,63.364,51.77-29.891,51.77,29.891L102.3,349.963Zm0,63.359,51.77-29.891,51.77,29.891L102.3,413.327Zm0,63.364L102.3,416.91l51.77,29.891L102.3,476.691Zm0,63.359,51.77-29.886,51.77,29.886-51.77,29.9Zm-3.809,65.564L102.3,543.637l51.77,29.886L98.5,605.614Zm0,63.364L98.5,609.2l51.77,29.891L98.5,668.977Zm0,63.364L98.5,672.56l51.77,29.891L98.5,732.336Zm0,63.359L98.5,735.919l57.483,33.193L104.209,799Zm5.718,66.666,51.765-29.891,51.77,29.891-51.77,29.886Zm0,63.359,51.765-29.891,51.77,29.891-51.77,29.891Zm0,63.364,51.765-29.891,51.77,29.891-51.77,29.891Zm0,63.364,51.765-29.891,51.77,29.891-51.77,29.886Zm0,63.359,51.765-29.891,51.77,29.891-51.77,29.891Zm0,63.364,51.765-29.891,51.77,29.891-51.77,29.886Zm0,63.364,51.765-29.891,51.77,29.891-51.77,29.886Zm0,63.359,51.765-29.886,51.77,29.886-51.77,29.891Zm0,63.364,51.765-29.891,51.77,29.891-51.77,29.886Zm0,63.364,51.765-29.891,51.77,29.891-51.77,29.886Zm0,63.359,51.765-29.886,51.77,29.886-51.77,29.891Zm0,63.364,51.765-29.891,51.77,29.891-51.77,29.886Zm-5.718,66.661,57.483-33.188,51.77,29.891L98.5,1626.011Zm0,63.364,51.77-29.891,51.77,29.891L98.5,1689.375Zm0,63.364,51.77-29.891,51.77,29.891L98.5,1752.734Zm0,63.359,51.77-29.886,55.579,32.085-51.77,29.886Zm3.809,65.564,51.77-29.891,51.77,29.891-51.77,29.886Zm0,63.359,51.77-29.886,51.77,29.886L102.3,1945.02Zm0,63.364L102.3,1948.6l51.77,29.891-51.77,29.891Zm0,63.364,51.77-29.891,51.77,29.891-51.77,29.886Zm0,63.359,51.77-29.886,51.77,29.886-51.77,29.891Zm51.77,93.255-51.77-29.891,51.77-29.891,51.77,29.891Zm3.1-61.573,51.77-29.891,51.77,29.891-51.77,29.891Zm106.64,61.573L160.28,2168.58l51.765-29.891,51.77,29.891Zm3.105-61.573,51.77-29.891,51.77,29.891-51.77,29.891Zm106.64,61.573-51.765-29.891,51.765-29.891,51.77,29.891ZM324.9,2136.9l51.77-29.891L428.43,2136.9l-51.765,29.891Zm106.64,61.573-51.77-29.891,51.77-29.891,51.77,29.891Zm3.1-61.573,51.77-29.891,51.77,29.891-51.77,29.891Zm106.645,61.573-51.77-29.891,51.77-29.891,51.77,29.891Zm3.1-61.573,51.77-29.891,51.77,29.891-51.77,29.891Zm106.64,61.573-51.77-29.891,51.77-29.891,51.77,29.891Zm3.105-61.573,51.77-29.891L757.66,2136.9,705.9,2166.789Zm106.64,61.573L709,2168.58l51.77-29.891,51.77,29.891Zm3.105-61.573,51.77-29.891,51.765,29.891-51.765,29.891Zm106.64,61.573-51.77-29.891,51.77-29.891,51.77,29.891Zm3.1-61.573,51.77-29.891,51.77,29.891-51.77,29.891Zm106.64,61.573-51.765-29.891,51.765-29.891,51.77,29.891Zm3.105-61.573,57.483-33.188,51.77,29.891-57.483,33.188ZM1090,2198.471l-51.765-29.891,57.483-33.188,51.77,29.886Zm8.819-64.87,51.77-29.891,51.77,29.891-51.77,29.891Zm112.358,64.87-57.488-33.193,51.77-29.886,57.488,33.188Zm-2.613-64.87,51.765-29.891,57.488,33.188-51.77,29.891Zm112.358,64.87-51.775-29.891,51.775-29.891,51.765,29.891Zm3.1-61.573,51.77-29.891,51.77,29.891-51.77,29.891Zm106.645,61.573-51.775-29.891,51.775-29.891,51.765,29.891Zm3.1-61.573,51.77-29.891,51.77,29.891-51.77,29.891Zm106.64,61.573-51.77-29.891,51.77-29.891,51.77,29.891Zm3.1-61.573,51.775-29.891,51.765,29.891-51.765,29.891Zm106.64,61.573-51.765-29.891,51.765-29.891,51.775,29.891Zm3.105-61.573,51.775-29.891,51.765,29.891-51.765,29.891Zm106.64,61.573-51.77-29.891,51.77-29.891,51.775,29.891Zm3.105-61.573,51.765-29.891,51.775,29.891-51.775,29.891Zm106.64,61.573-51.77-29.891,51.77-29.891,51.77,29.891Zm3.105-61.573,51.765-29.891,51.775,29.891-51.775,29.891Zm106.64,61.573-51.77-29.891,51.77-29.891,51.77,29.891Zm3.1-61.573,51.77-29.891,51.77,29.891-51.77,29.891Zm106.64,61.573-51.765-29.891,51.765-29.891,51.77,29.891Zm106.64-61.573-51.765,29.891-51.77-29.891,51.77-29.891Zm0-63.364-51.765,29.9-51.77-29.9,51.77-29.891Zm0-63.364-51.765,29.9-51.77-29.9,51.77-29.886Zm0-63.359-51.765,29.891-51.77-29.891,51.77-29.891Zm0-63.364-51.765,29.9-51.77-29.9,51.77-29.891Zm0-63.364-51.765,29.9-51.77-29.9,51.77-29.886Zm3.814-65.559-55.579,32.09-51.77-29.891,55.579-32.085Zm0-63.364-51.77,29.891-51.765-29.891,51.765-29.886Zm0-63.359-51.77,29.886L2090.32,1624.5l51.765-29.891Zm-5.713-66.666-51.775,29.9-51.765-29.9,51.765-29.886Zm0-63.359-51.775,29.891-51.765-29.891,51.765-29.891Zm0-63.364-51.775,29.891-51.765-29.891,51.765-29.891Zm0-63.364-51.775,29.9-51.765-29.9,51.765-29.886Zm0-63.359-51.775,29.891-51.765-29.891,51.765-29.891Zm0-63.364-51.775,29.891-51.765-29.891,51.765-29.891Zm0-63.364-51.775,29.9-51.765-29.9,51.765-29.886Zm0-63.359-51.775,29.891L2090.32,1117.6l51.765-29.891Zm0-63.359-51.775,29.886-51.765-29.886,51.765-29.9Zm0-63.364-51.775,29.886-51.765-29.886,51.765-29.891Zm0-63.364-51.775,29.891-51.765-29.891,51.765-29.891Zm0-63.364-51.775,29.891-51.765-29.891,51.765-29.891Zm0-63.359-51.775,29.886-51.765-29.886,51.765-29.891Zm5.713-66.666-57.488,33.193L2090.32,737.43l57.483-33.193Zm0-63.359-51.77,29.886-51.765-29.886,51.765-29.891Zm0-63.364L2147.8,637.3l-55.579-32.09,51.77-29.891Zm-3.814-65.564-51.765,29.891-51.77-29.891,51.77-29.886Zm-51.765-33.468-51.77-29.891,51.77-29.891,51.765,29.891Z"/></g><g transform="translate(1550.395 367.381)"><path class="e" d="M199.431,420.889a2.461,2.461,0,0,1-1.23-4.591L704.3,124.1a2.46,2.46,0,0,1,2.461,4.262L200.661,420.559A2.482,2.482,0,0,1,199.431,420.889Z" transform="translate(405.931 66.963)"/><path class="e" d="M169.246,506.418a2.461,2.461,0,0,1-1.235-4.591l430.4-248.49a2.458,2.458,0,1,1,2.461,4.257l-430.4,248.49A2.407,2.407,0,0,1,169.246,506.418Z" transform="translate(287.564 573.688)"/><path class="e" d="M149.873,250.681a2.461,2.461,0,0,1-1.23-4.591L421.67,88.457a2.463,2.463,0,0,1,2.461,4.267L151.1,250.351A2.431,2.431,0,0,1,149.873,250.681Z" transform="translate(211.61 -72.837)"/><path class="e" d="M91.654,455.9a2.461,2.461,0,0,1-1.235-4.591l185.7-107.211a2.458,2.458,0,1,1,2.461,4.257L92.879,455.561A2.434,2.434,0,0,1,91.654,455.9Z" transform="translate(-16.681 929.539)"/><path class="e" d="M260.32,507.441a2.459,2.459,0,0,1-1.23-4.586L524.809,349.44a2.458,2.458,0,1,1,2.461,4.257L261.551,507.111A2.431,2.431,0,0,1,260.32,507.441Z" transform="translate(644.702 950.505)"/><path class="e" d="M348.681,175.081a2.461,2.461,0,0,1-1.23-4.591L477.692,95.3a2.46,2.46,0,0,1,2.461,4.262L349.911,174.751A2.431,2.431,0,0,1,348.681,175.081Z" transform="translate(991.154 -45.981)"/><path class="e" d="M279.587,194.119a2.463,2.463,0,0,1-1.23-4.6L449.423,90.762a2.46,2.46,0,0,1,2.461,4.262L280.817,193.789A2.482,2.482,0,0,1,279.587,194.119Z" transform="translate(720.24 -63.794)"/><path class="e" d="M565.5,280.676a2.432,2.432,0,0,1-1.23-.33L233.911,89.61a2.463,2.463,0,0,1,2.46-4.267L566.734,276.084a2.462,2.462,0,0,1-1.23,4.591Z" transform="translate(545.953 -85.018)"/><path class="e" d="M279,199.638a2.4,2.4,0,0,1-1.225-.33l-162.066-93.57a2.463,2.463,0,0,1,2.461-4.267l162.066,93.574A2.461,2.461,0,0,1,279,199.638Z" transform="translate(82.48 -21.795)"/><path class="e" d="M742.014,433.122a2.432,2.432,0,0,1-1.23-.33L257.523,153.777a2.46,2.46,0,1,1,2.461-4.262L743.245,428.531a2.461,2.461,0,0,1-1.23,4.591Z" transform="translate(638.552 166.606)"/><path class="e" d="M752.481,607.008a2.431,2.431,0,0,1-1.23-.33l-549.907-317.5a2.458,2.458,0,1,1,2.461-4.257l549.907,317.5a2.458,2.458,0,0,1-1.23,4.586Z" transform="translate(418.26 697.524)"/><path class="e" d="M746.167,628.8a2.444,2.444,0,0,1-1.23-.33l-453.611-261.9a2.458,2.458,0,1,1,2.46-4.257L747.4,624.211a2.458,2.458,0,0,1-1.23,4.586Z" transform="translate(771.083 1000.978)"/><path class="e" d="M425.343,519.56a2.432,2.432,0,0,1-1.23-.33L128.153,348.35a2.458,2.458,0,1,1,2.461-4.257l295.959,170.88a2.456,2.456,0,0,1-1.23,4.586Z" transform="translate(131.281 929.539)"/><path class="e" d="M531.259,517.444a2.438,2.438,0,0,1-1.23-.335L75.689,254.791a2.458,2.458,0,1,1,2.461-4.257L532.489,512.853a2.461,2.461,0,0,1-1.23,4.591Z" transform="translate(-74.454 562.661)"/><path class="e" d="M483.292,192.894a2.432,2.432,0,0,1-1.23-.33L313.121,95.023a2.46,2.46,0,1,1,2.461-4.262L484.522,188.3a2.462,2.462,0,0,1-1.23,4.591Z" transform="translate(856.543 -63.794)"/></g><g transform="translate(-798.469 205.381)"><path class="e" d="M199.431,420.889a2.461,2.461,0,0,1-1.23-4.591L704.3,124.1a2.46,2.46,0,0,1,2.461,4.262L200.661,420.559A2.482,2.482,0,0,1,199.431,420.889Z" transform="translate(405.931 66.963)"/><path class="e" d="M169.246,506.418a2.461,2.461,0,0,1-1.235-4.591l430.4-248.49a2.458,2.458,0,1,1,2.461,4.257l-430.4,248.49A2.407,2.407,0,0,1,169.246,506.418Z" transform="translate(287.564 573.688)"/><path class="e" d="M149.873,250.681a2.461,2.461,0,0,1-1.23-4.591L421.67,88.457a2.463,2.463,0,0,1,2.461,4.267L151.1,250.351A2.431,2.431,0,0,1,149.873,250.681Z" transform="translate(211.61 -72.837)"/><path class="e" d="M91.654,455.9a2.461,2.461,0,0,1-1.235-4.591l185.7-107.211a2.458,2.458,0,1,1,2.461,4.257L92.879,455.561A2.434,2.434,0,0,1,91.654,455.9Z" transform="translate(-16.681 929.539)"/><path class="e" d="M260.32,507.441a2.459,2.459,0,0,1-1.23-4.586L524.809,349.44a2.458,2.458,0,1,1,2.461,4.257L261.551,507.111A2.431,2.431,0,0,1,260.32,507.441Z" transform="translate(644.702 950.505)"/><path class="e" d="M348.681,175.081a2.461,2.461,0,0,1-1.23-4.591L477.692,95.3a2.46,2.46,0,0,1,2.461,4.262L349.911,174.751A2.431,2.431,0,0,1,348.681,175.081Z" transform="translate(991.154 -45.981)"/><path class="e" d="M279.587,194.119a2.463,2.463,0,0,1-1.23-4.6L449.423,90.762a2.46,2.46,0,0,1,2.461,4.262L280.817,193.789A2.482,2.482,0,0,1,279.587,194.119Z" transform="translate(720.24 -63.794)"/><path class="e" d="M565.5,280.676a2.432,2.432,0,0,1-1.23-.33L233.911,89.61a2.463,2.463,0,0,1,2.46-4.267L566.734,276.084a2.462,2.462,0,0,1-1.23,4.591Z" transform="translate(545.953 -85.018)"/><path class="e" d="M279,199.638a2.4,2.4,0,0,1-1.225-.33l-162.066-93.57a2.463,2.463,0,0,1,2.461-4.267l162.066,93.574A2.461,2.461,0,0,1,279,199.638Z" transform="translate(82.48 -21.795)"/><path class="e" d="M742.014,433.122a2.432,2.432,0,0,1-1.23-.33L257.523,153.777a2.46,2.46,0,1,1,2.461-4.262L743.245,428.531a2.461,2.461,0,0,1-1.23,4.591Z" transform="translate(638.552 166.606)"/><path class="e" d="M752.481,607.008a2.431,2.431,0,0,1-1.23-.33l-549.907-317.5a2.458,2.458,0,1,1,2.461-4.257l549.907,317.5a2.458,2.458,0,0,1-1.23,4.586Z" transform="translate(418.26 697.524)"/><path class="e" d="M746.167,628.8a2.444,2.444,0,0,1-1.23-.33l-453.611-261.9a2.458,2.458,0,1,1,2.46-4.257L747.4,624.211a2.458,2.458,0,0,1-1.23,4.586Z" transform="translate(771.083 1000.978)"/><path class="e" d="M425.343,519.56a2.432,2.432,0,0,1-1.23-.33L128.153,348.35a2.458,2.458,0,1,1,2.461-4.257l295.959,170.88a2.456,2.456,0,0,1-1.23,4.586Z" transform="translate(131.281 929.539)"/><path class="e" d="M531.259,517.444a2.438,2.438,0,0,1-1.23-.335L75.689,254.791a2.458,2.458,0,1,1,2.461-4.257L532.489,512.853a2.461,2.461,0,0,1-1.23,4.591Z" transform="translate(-74.454 562.661)"/><path class="e" d="M483.292,192.894a2.432,2.432,0,0,1-1.23-.33L313.121,95.023a2.46,2.46,0,1,1,2.461-4.262L484.522,188.3a2.462,2.462,0,0,1-1.23,4.591Z" transform="translate(856.543 -63.794)"/></g></g></g></g></svg>