<svg xmlns="http://www.w3.org/2000/svg" width="12" height="12.343" viewBox="0 0 12 12.343"><defs><style>.a{fill:#909ebb;}</style></defs><path class="a" d="M129.746,296.772a5.483,5.483,0,0,0-3.9-1.617.437.437,0,1,0,0,.875,4.646,4.646,0,0,1,4.646,4.646.437.437,0,0,0,.875,0A5.487,5.487,0,0,0,129.746,296.772Z" transform="translate(-119.363 -295.155)"/><path class="a" d="M127.947,300.3a.437.437,0,0,0,.875,0,2.983,2.983,0,0,0-2.979-2.979h0a.437.437,0,0,0,0,.875A2.107,2.107,0,0,1,127.947,300.3Z" transform="translate(-119.363 -294.775)"/><path class="a" d="M127.881,302.629a1.321,1.321,0,0,0-1.169.7.438.438,0,1,0,.722.495c.193-.282.28-.327.4-.321a5.649,5.649,0,0,1,2.02,1.479.455.455,0,0,1,0,.32,1.508,1.508,0,0,1-.749.944,1.407,1.407,0,0,1-1.125-.038,12.37,12.37,0,0,1-4.055-2.642h0a12.352,12.352,0,0,1-2.635-4.05,1.405,1.405,0,0,1-.039-1.124,1.506,1.506,0,0,1,.944-.75.458.458,0,0,1,.319,0,5.658,5.658,0,0,1,1.48,2.015c.006.123-.039.21-.32.4a.438.438,0,0,0,.494.723,1.323,1.323,0,0,0,.7-1.171,5.358,5.358,0,0,0-2.047-2.789,1.326,1.326,0,0,0-.9,0,2.353,2.353,0,0,0-1.46,1.213,2.251,2.251,0,0,0,.022,1.82,13.254,13.254,0,0,0,2.829,4.34l.009.008a13.228,13.228,0,0,0,4.336,2.824,2.6,2.6,0,0,0,.976.2,2,2,0,0,0,.843-.181,2.358,2.358,0,0,0,1.214-1.46,1.327,1.327,0,0,0,0-.9A5.358,5.358,0,0,0,127.881,302.629Z" transform="translate(-120.266 -294.878)"/></svg>