<svg xmlns="http://www.w3.org/2000/svg" width="148.025" height="31.945" viewBox="0 0 148.025 31.945"><defs><style>.a{fill:#f04c23;}.b{fill:#55565a;}</style></defs><path class="a" d="M28.762,28.52h9.154c-4.5,1.247-5.979,4.754-2.411,7.6,4.663,3.72,18.079,3.455,23.149,10.092-1.64-3.723-4.708-5.665-9.623-7.6-1.854-.73-11.383-3.67-8.718-6.065,1.064-.957,3.432-1.25,6.151-1.107a27.244,27.244,0,0,1,14.123,4.466V60.345H52.807a14.7,14.7,0,0,0,1.524-.7c4.061-2.17,3.876-6.444.845-9.636C52,46.662,46.309,45.476,41.048,43.326c-4.642-1.9-8.95-4.679-10.9-8.407a21.336,21.336,0,0,0,6.1,7.975c3.873,3.066,8.7,4.426,12.691,7.691,2.445,2,1.346,4.212-1.451,4.738-5.116.961-14.272-4.015-18.723-7.037Zm22.572,0h9.252V31.7a35.57,35.57,0,0,0-6.943-2.674q-1.134-.287-2.31-.509M39.22,60.345H28.762v-3.88a78.258,78.258,0,0,0,10.458,3.88" transform="translate(-28.762 -28.4)"/><path class="b" d="M157.848,73.742c0-.808.42-.991.927-.991h2.78v1.972h-2.78c-.507,0-.927-.183-.927-.981M158,78.894l1.595-2.49h1.962v2.49h2.113V71.016h-4.829c-1.595,0-3.06.474-3.06,2.726a2.256,2.256,0,0,0,1.595,2.49l-1.724,2.662Zm-9.538-7.878H146.5v7.878h2.123l3.913-5.421v5.421h1.951V71.016h-2.123l-3.9,5.572Zm-5.54,0v3.071h-3.761V71.016h-2.112v7.878h2.112V75.823h3.761v3.071h2.113V71.016ZM135.689,74.2h-5.141V72.718h5.162v-1.7h-7.275v7.878h7.3v-1.7h-5.184V75.715h5.141Zm-18.947,4.7H126.97V71.016h-2.1v6.176h-2.016V71.016H120.87v6.176h-2.026V71.016h-2.1Zm-1.358-4.7h-5.14V72.718h5.162v-1.7h-7.275v7.878h7.3v-1.7h-5.184V75.715h5.14ZM105,73.775c0,.819-.42,1.013-.927,1.013h-2.781V72.751h2.781c.507,0,.927.194.927,1.024M104,76.458c1.563,0,3.072-.388,3.072-2.683S105.6,71.016,104,71.016H99.175v7.878h2.112V76.458Z" transform="translate(-59.496 -46.949)"/><path class="a" d="M207.053,52.857h-5.141V51.381h5.162v-1.7H199.8v7.879h7.3v-1.7h-5.184V54.377h5.141Zm-10.831,4.7h2.113V49.678h-2.113ZM193.074,54.8c0,.841-.442,1.024-.927,1.024h-2.78V53.784h2.78c.5,0,.927.172.927,1.013m-3.707-5.12h-2.113v7.879h4.829c1.595,0,3.071-.474,3.071-2.759s-1.509-2.695-3.071-2.695h-2.716Zm-5.69,0V52.75h-3.761V49.678H177.8v7.879h2.113V54.485h3.761v3.072h2.112V49.678Zm-11.683,7.879h2.112V51.381H176.9v-1.7h-7.7v1.7h2.792Zm-5.271-5.12c0,.819-.42,1.013-.927,1.013h-2.78V51.413h2.78c.507,0,.927.194.927,1.024m-.991,2.684c1.563,0,3.071-.388,3.071-2.684s-1.476-2.759-3.071-2.759H160.9v7.879h2.113V55.121Zm-10.163,2.6c3.481,0,4.192-1.121,4.192-4.1s-.711-4.1-4.192-4.1-4.193,1.121-4.193,4.1.711,4.1,4.193,4.1m0-6.445c1.821,0,2.112.593,2.112,2.349s-.291,2.35-2.112,2.35-2.113-.593-2.113-2.35.291-2.349,2.113-2.349m-13.322-1.6v7.879h2.113V51.381h3.761v6.176h2.112V49.678Zm-1.218,6.143h-3.664c-1.045,0-1.423-.41-1.423-2.2s.366-2.21,1.423-2.21h3.664V49.678h-3.675c-2.328,0-3.492.679-3.492,3.945s1.164,3.934,3.492,3.934h3.675Zm-10.422-6.143V52.75h-3.761V49.678h-2.112v7.879h2.112V54.485h3.761v3.072h2.113V49.678Zm-11.683,1.875,1.358,2.867h-2.705Zm-5.023,6h2.2l.722-1.531h4.225l.722,1.531H123.9l-3.858-7.879H117.76Zm-1.283-5.12c0,.819-.42,1.013-.926,1.013h-2.781V51.413h2.781c.507,0,.926.194.926,1.024m-.991,2.684c1.563,0,3.072-.388,3.072-2.684s-1.477-2.759-3.072-2.759H106.8v7.879h2.112V55.121Zm-10.638,2.436H103.1V51.381h2.791v-1.7H98.2v1.7h2.792Z" transform="translate(-59.07 -37.569)"/><path class="b" d="M178.131,31.637h-5.14V30.161h5.162v-1.7h-7.275v7.879h7.3v-1.7h-5.184V33.157h5.14Zm-14.743-3.179h-1.962v7.879h2.123l3.912-5.421v5.421h1.951V28.458h-2.123l-3.9,5.572Zm-2.931,0h-2.231l-2.252,3.19h-1.358v-3.19H152.5v7.879h2.113V33.125h1.358l2.22,3.211h2.35l-2.738-4.085ZM151.285,34.6h-3.664c-1.046,0-1.423-.41-1.423-2.2s.366-2.21,1.423-2.21h3.664V28.458h-3.675c-2.328,0-3.492.679-3.492,3.945s1.164,3.934,3.492,3.934h3.675ZM137.522,33l.28-2.834h2.306v4.473h-2.921A7.269,7.269,0,0,0,137.522,33m4.322,5.615h1.821V34.634h-1.444V28.458H136.11l-.431,4.289c-.15,1.531-.517,1.865-1.174,1.886H133.48V38.61H135.3V36.337h6.542ZM128.921,36.5c3.481,0,4.193-1.121,4.193-4.1s-.712-4.1-4.193-4.1-4.193,1.121-4.193,4.1.711,4.1,4.193,4.1m0-6.445c1.821,0,2.112.593,2.112,2.349s-.291,2.349-2.112,2.349-2.113-.592-2.113-2.349.291-2.349,2.113-2.349m-6.995,1.164c0,.819-.42,1.013-.927,1.013h-2.78V30.193H121c.507,0,.927.194.927,1.024m-.991,2.684c1.563,0,3.071-.388,3.071-2.684s-1.476-2.759-3.071-2.759h-4.829v7.879h2.113V33.9Zm-10.164,2.6c3.481,0,4.193-1.121,4.193-4.1s-.711-4.1-4.193-4.1-4.192,1.121-4.192,4.1.711,4.1,4.192,4.1m0-6.445c1.822,0,2.113.593,2.113,2.349s-.291,2.349-2.113,2.349-2.112-.592-2.112-2.349.291-2.349,2.112-2.349m-9.484.108h4.872v-1.7H99.175v7.879h2.113Z" transform="translate(-59.496 -28.307)"/></svg>