<svg xmlns="http://www.w3.org/2000/svg" width="142.731" height="31.125" viewBox="0 0 142.731 31.125"><defs><style>.a{isolation:isolate;}.b{fill:#6c2866;fill-rule:evenodd;}.c{fill:#4c1862;}.d{fill:#fff;}</style></defs><g class="a"><path class="b" d="M69,178.946V156.158H211.731v22.788Z" transform="translate(-69 -156.158)"/><path class="c" d="M91,183.515a.1.1,0,0,1-.037.08.253.253,0,0,1-.113.041,1.48,1.48,0,0,1-.23.013,1.5,1.5,0,0,1-.236-.013.217.217,0,0,1-.1-.041.108.108,0,0,1-.031-.08v-.256a1.455,1.455,0,0,1-.451.332,1.322,1.322,0,0,1-.564.119,1.552,1.552,0,0,1-.47-.067,1.047,1.047,0,0,1-.371-.2.871.871,0,0,1-.244-.326,1.1,1.1,0,0,1-.086-.454,1.038,1.038,0,0,1,.109-.489.907.907,0,0,1,.328-.343,1.645,1.645,0,0,1,.542-.2,3.916,3.916,0,0,1,.753-.065h.314v-.194a1,1,0,0,0-.031-.265.435.435,0,0,0-.1-.189.421.421,0,0,0-.188-.112.956.956,0,0,0-.29-.036,1.486,1.486,0,0,0-.406.051,2.116,2.116,0,0,0-.314.112c-.091.041-.168.078-.229.111a.33.33,0,0,1-.149.05.1.1,0,0,1-.07-.025.184.184,0,0,1-.051-.072.5.5,0,0,1-.031-.114.938.938,0,0,1-.01-.153.689.689,0,0,1,.016-.176.289.289,0,0,1,.069-.116.623.623,0,0,1,.176-.116,2.083,2.083,0,0,1,.3-.116,2.731,2.731,0,0,1,.37-.089,2.4,2.4,0,0,1,.412-.034,2.463,2.463,0,0,1,.647.074,1.093,1.093,0,0,1,.441.227.881.881,0,0,1,.253.4,1.839,1.839,0,0,1,.08.572v2.162Zm-.891-1.377h-.346a1.912,1.912,0,0,0-.376.033.728.728,0,0,0-.251.1.417.417,0,0,0-.144.158.49.49,0,0,0-.044.21.4.4,0,0,0,.128.317.5.5,0,0,0,.354.115.668.668,0,0,0,.353-.1,1.5,1.5,0,0,0,.326-.286v-.548Zm5.218,2.541a.088.088,0,0,1-.019.056.125.125,0,0,1-.064.04.642.642,0,0,1-.122.026c-.049,0-.111.009-.184.009s-.142,0-.192-.009a.606.606,0,0,1-.122-.026.129.129,0,0,1-.065-.04.088.088,0,0,1-.019-.056v-1.611a.211.211,0,0,1,.037-.146.194.194,0,0,1,.139-.038H94.9a2.4,2.4,0,0,0,.216-.341,2.881,2.881,0,0,0,.189-.473,6.015,6.015,0,0,0,.163-.678c.049-.264.094-.579.139-.947a.508.508,0,0,1,.023-.116.259.259,0,0,1,.044-.089.191.191,0,0,1,.074-.054.3.3,0,0,1,.111-.019h1.985a.237.237,0,0,1,.191.075.335.335,0,0,1,.061.217v2.425h.368a.21.21,0,0,1,.138.038.2.2,0,0,1,.041.146v1.611a.094.094,0,0,1-.016.056.144.144,0,0,1-.066.04.619.619,0,0,1-.123.026c-.051,0-.113.009-.19.009s-.137,0-.188-.009a.549.549,0,0,1-.12-.026.138.138,0,0,1-.066-.04.083.083,0,0,1-.02-.056v-1.052H95.331v1.052Zm1.853-3.787h-.768c-.041.3-.087.563-.134.781a5.577,5.577,0,0,1-.152.56,2.193,2.193,0,0,1-.167.387,2.909,2.909,0,0,1-.175.265h1.395v-1.992Zm7.977,1.669a1.075,1.075,0,0,1-.1.485.866.866,0,0,1-.311.348,1.6,1.6,0,0,1-.523.211,3.305,3.305,0,0,1-.739.072h-.261c-.081,0-.158,0-.235-.007s-.15-.006-.226-.011-.157-.011-.243-.021a.335.335,0,0,1-.242-.1.394.394,0,0,1-.072-.259v-2.772a.394.394,0,0,1,.068-.25.307.307,0,0,1,.21-.1c.06-.006.13-.01.206-.015s.164-.009.255-.012.186-.008.284-.01l.3,0a3.551,3.551,0,0,1,.665.053,1.441,1.441,0,0,1,.461.165.718.718,0,0,1,.27.271.766.766,0,0,1,.088.376.751.751,0,0,1-.156.486.783.783,0,0,1-.449.264.952.952,0,0,1,.559.279.791.791,0,0,1,.193.553Zm-.994-1.42a.414.414,0,0,0-.034-.173.3.3,0,0,0-.11-.127.571.571,0,0,0-.2-.08,1.471,1.471,0,0,0-.3-.027c-.091,0-.177,0-.257.008s-.152.011-.21.019v.81h.485a.836.836,0,0,0,.468-.11.364.364,0,0,0,.159-.318Zm.093,1.415a.493.493,0,0,0-.037-.2.322.322,0,0,0-.125-.144.623.623,0,0,0-.232-.086,1.89,1.89,0,0,0-.34-.026h-.471v.922l.12.012.128.009.127.007h.114a1.315,1.315,0,0,0,.328-.035.608.608,0,0,0,.222-.1.392.392,0,0,0,.127-.158.523.523,0,0,0,.038-.2Zm7.85-.692a2.484,2.484,0,0,1-.109.75,1.576,1.576,0,0,1-.328.583,1.447,1.447,0,0,1-.551.379,2.063,2.063,0,0,1-.774.133,2.129,2.129,0,0,1-.746-.119,1.338,1.338,0,0,1-.526-.346,1.429,1.429,0,0,1-.311-.559,2.56,2.56,0,0,1-.1-.757,2.458,2.458,0,0,1,.11-.751,1.6,1.6,0,0,1,.329-.583,1.486,1.486,0,0,1,.55-.377,2.029,2.029,0,0,1,.774-.134,2.193,2.193,0,0,1,.749.116,1.324,1.324,0,0,1,.524.345,1.448,1.448,0,0,1,.309.559,2.62,2.62,0,0,1,.1.76Zm-.933.037a2.259,2.259,0,0,0-.038-.438,1,1,0,0,0-.127-.348.638.638,0,0,0-.24-.231.774.774,0,0,0-.377-.083.793.793,0,0,0-.352.074.647.647,0,0,0-.249.216,1.059,1.059,0,0,0-.146.343,1.977,1.977,0,0,0-.047.456,2.266,2.266,0,0,0,.038.438,1.09,1.09,0,0,0,.128.348.606.606,0,0,0,.239.228.774.774,0,0,0,.374.081.812.812,0,0,0,.358-.075.64.64,0,0,0,.248-.214,1.014,1.014,0,0,0,.144-.34,2.029,2.029,0,0,0,.047-.455Zm7.673,1.638a.066.066,0,0,1-.02.048.145.145,0,0,1-.07.033.932.932,0,0,1-.139.02c-.058.006-.133.008-.221.008s-.183,0-.249-.008a1.21,1.21,0,0,1-.155-.02.165.165,0,0,1-.082-.037.2.2,0,0,1-.041-.061l-.3-.768a1.391,1.391,0,0,0-.116-.26.65.65,0,0,0-.139-.167.46.46,0,0,0-.174-.09.8.8,0,0,0-.223-.026h-.184v1.311a.066.066,0,0,1-.024.049.244.244,0,0,1-.08.041.63.63,0,0,1-.141.026,1.856,1.856,0,0,1-.209.01,1.942,1.942,0,0,1-.213-.01.669.669,0,0,1-.141-.026.234.234,0,0,1-.077-.041.069.069,0,0,1-.023-.049v-3.254a.067.067,0,0,1,.023-.049.2.2,0,0,1,.077-.04.758.758,0,0,1,.141-.025,1.969,1.969,0,0,1,.213-.009,1.883,1.883,0,0,1,.209.009.709.709,0,0,1,.141.025.209.209,0,0,1,.08.04.065.065,0,0,1,.024.049v1.25h.184a.685.685,0,0,0,.2-.027.426.426,0,0,0,.164-.089.7.7,0,0,0,.137-.168,1.566,1.566,0,0,0,.121-.259l.27-.693a.151.151,0,0,1,.036-.063.163.163,0,0,1,.078-.043.643.643,0,0,1,.144-.023c.061-.006.143-.008.244-.008s.16,0,.217.008a.719.719,0,0,1,.133.021.139.139,0,0,1,.066.034.066.066,0,0,1,.019.049.308.308,0,0,1-.014.086,1.152,1.152,0,0,1-.051.137l-.256.613a1.748,1.748,0,0,1-.16.312,1.2,1.2,0,0,1-.174.211.969.969,0,0,1-.178.134,1.171,1.171,0,0,1-.172.078v.008c.074.031.144.066.21.1a.83.83,0,0,1,.185.141,1.148,1.148,0,0,1,.169.215,2.381,2.381,0,0,1,.161.307l.312.72a.866.866,0,0,1,.035.081c.008.022.015.043.02.062a.373.373,0,0,1,.01.044c0,.012,0,.024,0,.033Zm6.279-.025a.1.1,0,0,1-.037.08.253.253,0,0,1-.113.041,2.054,2.054,0,0,1-.465,0,.217.217,0,0,1-.105-.041.113.113,0,0,1-.031-.08v-.256a1.454,1.454,0,0,1-.451.332,1.319,1.319,0,0,1-.564.119,1.557,1.557,0,0,1-.47-.067,1.048,1.048,0,0,1-.371-.2.894.894,0,0,1-.244-.326,1.118,1.118,0,0,1-.086-.454,1.025,1.025,0,0,1,.11-.489.9.9,0,0,1,.328-.343,1.638,1.638,0,0,1,.541-.2,3.924,3.924,0,0,1,.753-.065h.314v-.194a1,1,0,0,0-.031-.265.435.435,0,0,0-.1-.189.424.424,0,0,0-.187-.112.964.964,0,0,0-.291-.036,1.486,1.486,0,0,0-.406.051,2.162,2.162,0,0,0-.314.112c-.091.041-.168.078-.228.111a.334.334,0,0,1-.15.05.1.1,0,0,1-.07-.025.184.184,0,0,1-.051-.072.565.565,0,0,1-.031-.114.94.94,0,0,1-.01-.153.681.681,0,0,1,.018-.176.266.266,0,0,1,.069-.116.607.607,0,0,1,.176-.116,1.985,1.985,0,0,1,.3-.116,2.715,2.715,0,0,1,.369-.089,2.4,2.4,0,0,1,.412-.034,2.457,2.457,0,0,1,.647.074,1.085,1.085,0,0,1,.441.227.872.872,0,0,1,.253.4,1.839,1.839,0,0,1,.08.572v2.162Zm-.891-1.377h-.346a1.92,1.92,0,0,0-.376.033.728.728,0,0,0-.251.1.414.414,0,0,0-.143.158.475.475,0,0,0-.045.21.4.4,0,0,0,.128.317.5.5,0,0,0,.354.115.665.665,0,0,0,.352-.1,1.5,1.5,0,0,0,.326-.286v-.548Zm7.156-1.57a1.626,1.626,0,0,1-.01.2.493.493,0,0,1-.026.126.131.131,0,0,1-.044.065.109.109,0,0,1-.06.019h-.812V183.5a.1.1,0,0,1-.021.064.168.168,0,0,1-.072.045.572.572,0,0,1-.138.026,2.06,2.06,0,0,1-.222.01,1.979,1.979,0,0,1-.216-.01.631.631,0,0,1-.139-.026.157.157,0,0,1-.071-.045.107.107,0,0,1-.02-.064v-2.529h-.81a.115.115,0,0,1-.064-.02.143.143,0,0,1-.044-.067.514.514,0,0,1-.027-.13c-.005-.056-.01-.123-.01-.2a1.388,1.388,0,0,1,.011-.182.576.576,0,0,1,.03-.12.126.126,0,0,1,.043-.067.1.1,0,0,1,.061-.021h2.522a.1.1,0,0,1,.06.021.134.134,0,0,1,.044.067.484.484,0,0,1,.026.124,1.52,1.52,0,0,1,.01.189Zm5.875,2.425a1.559,1.559,0,0,1-.007.157c0,.042-.009.078-.013.107a.415.415,0,0,1-.022.07.263.263,0,0,1-.056.068.853.853,0,0,1-.148.1,1.438,1.438,0,0,1-.237.105,1.811,1.811,0,0,1-.291.077,1.728,1.728,0,0,1-.322.029,1.759,1.759,0,0,1-.659-.115,1.245,1.245,0,0,1-.481-.34,1.482,1.482,0,0,1-.292-.55,2.507,2.507,0,0,1-.1-.741,2.6,2.6,0,0,1,.121-.836,1.617,1.617,0,0,1,.337-.581,1.34,1.34,0,0,1,.512-.343,1.812,1.812,0,0,1,.648-.112,1.512,1.512,0,0,1,.283.026,1.6,1.6,0,0,1,.259.067,1.416,1.416,0,0,1,.216.1.772.772,0,0,1,.135.093.356.356,0,0,1,.056.068.2.2,0,0,1,.025.069.954.954,0,0,1,.015.107c0,.042,0,.093,0,.154a.866.866,0,0,1-.035.294c-.025.055-.056.083-.093.083A.218.218,0,0,1,137,181.1c-.046-.033-.1-.07-.163-.111a1.111,1.111,0,0,0-.223-.112.848.848,0,0,0-.31-.051.615.615,0,0,0-.541.272,1.41,1.41,0,0,0-.187.8,1.975,1.975,0,0,0,.046.457.965.965,0,0,0,.139.332.572.572,0,0,0,.23.2.731.731,0,0,0,.323.067.851.851,0,0,0,.324-.056,1.2,1.2,0,0,0,.234-.124,2,2,0,0,0,.17-.124.2.2,0,0,1,.115-.056.084.084,0,0,1,.055.018.141.141,0,0,1,.034.067.844.844,0,0,1,.02.124,1.89,1.89,0,0,1,.008.194Zm6.678.548a.066.066,0,0,1-.02.048.145.145,0,0,1-.07.033.954.954,0,0,1-.139.02c-.059.006-.133.008-.221.008s-.183,0-.249-.008a1.21,1.21,0,0,1-.155-.02.165.165,0,0,1-.082-.037.182.182,0,0,1-.041-.061l-.3-.768a1.386,1.386,0,0,0-.118-.26.647.647,0,0,0-.138-.167.459.459,0,0,0-.173-.09.806.806,0,0,0-.223-.026h-.185v1.311a.066.066,0,0,1-.024.049.244.244,0,0,1-.08.041.629.629,0,0,1-.141.026,1.857,1.857,0,0,1-.209.01,1.942,1.942,0,0,1-.213-.01.67.67,0,0,1-.141-.026.234.234,0,0,1-.077-.041.069.069,0,0,1-.023-.049v-3.254a.067.067,0,0,1,.023-.049.2.2,0,0,1,.077-.04.759.759,0,0,1,.141-.025,1.969,1.969,0,0,1,.213-.009,1.883,1.883,0,0,1,.209.009.709.709,0,0,1,.141.025.209.209,0,0,1,.08.04.065.065,0,0,1,.024.049v1.25h.185a.685.685,0,0,0,.2-.027.426.426,0,0,0,.164-.089.7.7,0,0,0,.137-.168,1.564,1.564,0,0,0,.121-.259l.269-.693a.167.167,0,0,1,.037-.063.163.163,0,0,1,.078-.043.642.642,0,0,1,.144-.023c.061-.006.143-.008.243-.008s.161,0,.219.008a.735.735,0,0,1,.133.021.139.139,0,0,1,.066.034.066.066,0,0,1,.019.049.309.309,0,0,1-.014.086,1.156,1.156,0,0,1-.051.137l-.256.613a1.748,1.748,0,0,1-.16.312,1.252,1.252,0,0,1-.174.211.966.966,0,0,1-.178.134,1.173,1.173,0,0,1-.172.078v.008a2.3,2.3,0,0,1,.209.1.811.811,0,0,1,.186.141,1.144,1.144,0,0,1,.169.215,2.379,2.379,0,0,1,.161.307l.312.72c.014.031.026.058.035.081a1.127,1.127,0,0,1,.03.105c0,.012,0,.024,0,.033Zm6.757-1.676a2.485,2.485,0,0,1-.108.75,1.592,1.592,0,0,1-.328.583,1.456,1.456,0,0,1-.551.379,2.073,2.073,0,0,1-.775.133,2.129,2.129,0,0,1-.746-.119,1.346,1.346,0,0,1-.526-.346,1.414,1.414,0,0,1-.31-.559,2.561,2.561,0,0,1-.1-.757,2.423,2.423,0,0,1,.11-.751,1.584,1.584,0,0,1,.329-.583,1.472,1.472,0,0,1,.549-.377,2.037,2.037,0,0,1,.774-.134,2.194,2.194,0,0,1,.749.116,1.309,1.309,0,0,1,.524.345,1.42,1.42,0,0,1,.309.559,2.621,2.621,0,0,1,.1.76Zm-.933.037a2.259,2.259,0,0,0-.038-.438.983.983,0,0,0-.127-.348.638.638,0,0,0-.24-.231.769.769,0,0,0-.376-.083.8.8,0,0,0-.354.074.636.636,0,0,0-.248.216,1.059,1.059,0,0,0-.146.343,1.918,1.918,0,0,0-.048.456,2.182,2.182,0,0,0,.04.438,1.091,1.091,0,0,0,.127.348.609.609,0,0,0,.241.228.77.77,0,0,0,.373.081.808.808,0,0,0,.358-.075.651.651,0,0,0,.249-.214,1.013,1.013,0,0,0,.143-.34,1.967,1.967,0,0,0,.047-.455Zm7.622-.1a.349.349,0,0,1-.074.245.266.266,0,0,1-.2.079h-1.957a1.392,1.392,0,0,0,.047.372.75.75,0,0,0,.156.286.688.688,0,0,0,.275.178,1.177,1.177,0,0,0,.4.062,2.307,2.307,0,0,0,.416-.034,2.61,2.61,0,0,0,.313-.077c.088-.026.16-.053.217-.075a.4.4,0,0,1,.141-.034.1.1,0,0,1,.054.012.092.092,0,0,1,.037.045.307.307,0,0,1,.02.092c0,.04,0,.089,0,.149s0,.1,0,.135a.9.9,0,0,1-.011.1.22.22,0,0,1-.021.067.211.211,0,0,1-.038.052.393.393,0,0,1-.128.069,2.211,2.211,0,0,1-.266.085,3.55,3.55,0,0,1-.371.071,3.023,3.023,0,0,1-.447.031,2.362,2.362,0,0,1-.752-.109,1.329,1.329,0,0,1-.538-.326,1.371,1.371,0,0,1-.323-.556,2.628,2.628,0,0,1-.105-.785,2.457,2.457,0,0,1,.112-.773,1.612,1.612,0,0,1,.323-.584,1.391,1.391,0,0,1,.518-.366,1.986,1.986,0,0,1,1.376-.007,1.224,1.224,0,0,1,.47.329,1.32,1.32,0,0,1,.271.5,2.184,2.184,0,0,1,.086.626v.145Zm-.88-.259a.927.927,0,0,0-.153-.6.593.593,0,0,0-.506-.217.652.652,0,0,0-.3.064.6.6,0,0,0-.213.175.81.81,0,0,0-.131.259,1.293,1.293,0,0,0-.052.321Z" transform="translate(-67.129 -153.81)"/><path class="c" d="M159.964,182a2.2,2.2,0,0,1-.125.758,1.661,1.661,0,0,1-.354.583,1.557,1.557,0,0,1-.547.372,1.821,1.821,0,0,1-.708.132,1.86,1.86,0,0,1-.741-.133,1.237,1.237,0,0,1-.507-.4,1.785,1.785,0,0,1-.292-.676,4.413,4.413,0,0,1-.092-.961,6.538,6.538,0,0,1,.042-.754,4.474,4.474,0,0,1,.122-.646,2.519,2.519,0,0,1,.2-.515,1.709,1.709,0,0,1,.245-.356,1.468,1.468,0,0,1,.507-.358,2.245,2.245,0,0,1,.322-.111,3.662,3.662,0,0,1,.385-.078l1.145-.167a.618.618,0,0,1,.108,0,.079.079,0,0,1,.063.042.315.315,0,0,1,.029.119c0,.054.007.129.007.226,0,.066,0,.125-.007.175a.5.5,0,0,1-.029.127.2.2,0,0,1-.059.083.182.182,0,0,1-.1.038l-1.06.159c-.1.014-.186.031-.259.048a1.306,1.306,0,0,0-.2.062.775.775,0,0,0-.148.077.958.958,0,0,0-.124.1.685.685,0,0,0-.112.155,1.238,1.238,0,0,0-.086.205,1.828,1.828,0,0,0-.062.246c-.018.089-.032.181-.047.277a1.72,1.72,0,0,1,.219-.186,1.4,1.4,0,0,1,.258-.144,1.616,1.616,0,0,1,.289-.093,1.462,1.462,0,0,1,.323-.034,1.531,1.531,0,0,1,.614.112,1.113,1.113,0,0,1,.434.322,1.438,1.438,0,0,1,.256.512,2.545,2.545,0,0,1,.085.683Zm-.92.05a1.824,1.824,0,0,0-.035-.374.88.88,0,0,0-.116-.3.571.571,0,0,0-.21-.2.634.634,0,0,0-.315-.075.789.789,0,0,0-.227.031.78.78,0,0,0-.2.091,1.411,1.411,0,0,0-.2.149,2.49,2.49,0,0,0-.205.2c0,.029,0,.059,0,.093v.105a3.977,3.977,0,0,0,.039.589,1.338,1.338,0,0,0,.128.416.587.587,0,0,0,.231.245.7.7,0,0,0,.347.08.748.748,0,0,0,.328-.07.649.649,0,0,0,.242-.205.976.976,0,0,0,.147-.333,1.715,1.715,0,0,0,.05-.445Zm9.482-.057a2.364,2.364,0,0,1-.115.749,1.692,1.692,0,0,1-.334.587,1.5,1.5,0,0,1-.535.381,1.848,1.848,0,0,1-.728.134,2.209,2.209,0,0,1-.691-.1,1.311,1.311,0,0,1-.5-.289,1.29,1.29,0,0,1-.312-.472,2.252,2.252,0,0,1-.138-.64h-.589v1.292a.1.1,0,0,1-.021.064.159.159,0,0,1-.074.045.618.618,0,0,1-.138.026,2,2,0,0,1-.221.01,1.958,1.958,0,0,1-.219-.01.617.617,0,0,1-.139-.026.154.154,0,0,1-.074-.045.1.1,0,0,1-.022-.064v-3.214a.1.1,0,0,1,.022-.063.154.154,0,0,1,.074-.046.616.616,0,0,1,.139-.026,1.992,1.992,0,0,1,.219-.009,2.035,2.035,0,0,1,.221.009.618.618,0,0,1,.138.026.16.16,0,0,1,.074.046.092.092,0,0,1,.021.063v1.237h.6a1.947,1.947,0,0,1,.164-.594,1.4,1.4,0,0,1,.332-.456,1.449,1.449,0,0,1,.505-.289,2.059,2.059,0,0,1,.682-.1,2.007,2.007,0,0,1,.728.121,1.34,1.34,0,0,1,.516.349,1.5,1.5,0,0,1,.307.56,2.462,2.462,0,0,1,.1.743Zm-.937.036a2.51,2.51,0,0,0-.035-.429,1.021,1.021,0,0,0-.12-.346.6.6,0,0,0-.228-.233.8.8,0,0,0-.707,0,.678.678,0,0,0-.243.221,1.024,1.024,0,0,0-.139.342,2.017,2.017,0,0,0-.045.443,2.739,2.739,0,0,0,.033.443,1.03,1.03,0,0,0,.12.348.6.6,0,0,0,.227.227.727.727,0,0,0,.366.081.783.783,0,0,0,.328-.067.62.62,0,0,0,.243-.2.964.964,0,0,0,.15-.34,2.07,2.07,0,0,0,.05-.482Zm7.889-.043a2.984,2.984,0,0,1-.092.772,1.734,1.734,0,0,1-.269.585,1.173,1.173,0,0,1-.439.371,1.339,1.339,0,0,1-.6.13,1.114,1.114,0,0,1-.258-.027.925.925,0,0,1-.227-.082,1.4,1.4,0,0,1-.217-.138,2.776,2.776,0,0,1-.224-.194v1.513a.1.1,0,0,1-.021.065.169.169,0,0,1-.074.049.654.654,0,0,1-.139.031,2.441,2.441,0,0,1-.439,0,.643.643,0,0,1-.138-.031.151.151,0,0,1-.074-.049.1.1,0,0,1-.023-.065v-4.49a.111.111,0,0,1,.019-.063.151.151,0,0,1,.063-.046.464.464,0,0,1,.12-.026,1.458,1.458,0,0,1,.186-.009,1.434,1.434,0,0,1,.182.009.435.435,0,0,1,.118.026.133.133,0,0,1,.065.046.118.118,0,0,1,.016.063v.379a3.567,3.567,0,0,1,.276-.255,1.789,1.789,0,0,1,.276-.183,1.347,1.347,0,0,1,.291-.111,1.414,1.414,0,0,1,.32-.035,1.213,1.213,0,0,1,.6.14,1.126,1.126,0,0,1,.4.38,1.714,1.714,0,0,1,.229.562,3.16,3.16,0,0,1,.072.685Zm-.945.064a2.426,2.426,0,0,0-.03-.394,1.178,1.178,0,0,0-.1-.337.647.647,0,0,0-.2-.236.5.5,0,0,0-.3-.088.588.588,0,0,0-.179.026.738.738,0,0,0-.18.089,1.3,1.3,0,0,0-.19.158,2.529,2.529,0,0,0-.205.242v1.059a2.2,2.2,0,0,0,.365.373.582.582,0,0,0,.36.132.5.5,0,0,0,.3-.09.71.71,0,0,0,.2-.236,1.232,1.232,0,0,0,.119-.329,1.891,1.891,0,0,0,.036-.368Zm7.922-.05a2.485,2.485,0,0,1-.108.75,1.591,1.591,0,0,1-.328.583,1.448,1.448,0,0,1-.551.379,2.07,2.07,0,0,1-.775.133,2.123,2.123,0,0,1-.745-.119,1.351,1.351,0,0,1-.527-.346,1.428,1.428,0,0,1-.31-.559,2.561,2.561,0,0,1-.1-.757,2.456,2.456,0,0,1,.11-.751,1.6,1.6,0,0,1,.329-.583,1.468,1.468,0,0,1,.55-.377,2.027,2.027,0,0,1,.773-.134,2.19,2.19,0,0,1,.749.116,1.321,1.321,0,0,1,.525.345,1.447,1.447,0,0,1,.309.559,2.66,2.66,0,0,1,.1.76Zm-.933.037a2.35,2.35,0,0,0-.037-.438,1.006,1.006,0,0,0-.128-.348.643.643,0,0,0-.239-.231.774.774,0,0,0-.377-.083.79.79,0,0,0-.352.074.647.647,0,0,0-.249.216,1.059,1.059,0,0,0-.146.343,1.972,1.972,0,0,0-.048.456,2.263,2.263,0,0,0,.04.438,1.091,1.091,0,0,0,.128.348.6.6,0,0,0,.239.228.773.773,0,0,0,.373.081.809.809,0,0,0,.358-.075.651.651,0,0,0,.249-.214,1.012,1.012,0,0,0,.144-.34,2.032,2.032,0,0,0,.046-.455Z" transform="translate(-60.405 -153.947)"/><path class="d" d="M84.144,166.906,82.852,168v2.627h-1.49V163.1h1.49v3.109l3.619-3.109h1.973l-3.193,2.811,3.392,4.713H86.826l-2.683-3.719Zm7.58,1.22H93l-.639-1.334-.639,1.334Zm1.888,1.207h-2.5l-.652,1.292h-1.6l3.052-5.963h.908l3.067,5.963H94.265l-.653-1.292Zm6.162-.908H98.31c-.208,0-.424-.006-.646-.014a4.925,4.925,0,0,1-.653-.071,2.5,2.5,0,0,1-.6-.184,1.528,1.528,0,0,1-.5-.355,1.513,1.513,0,0,1-.412-.752,3.613,3.613,0,0,1-.086-.724v-1.661h1.463v1.25a2.378,2.378,0,0,0,.056.511.741.741,0,0,0,.313.44,1.513,1.513,0,0,0,.361.142,3.225,3.225,0,0,0,.8.071h1.363v-2.414h1.462v5.963H99.773v-2.2Zm5.394-.539-.781.667v2.073h-1.462v-5.949h1.462v2.2l2.611-2.2h1.988l-2.753,2.314,2.724,3.635h-1.717l-2.072-2.74Zm4.316,2.74v-5.963H110.9V168.2l3.039-3.535h1.022v5.963h-1.42V167.09l-3.037,3.535Zm11.739-2.485h-3.109v2.485h-1.462v-5.963h1.462v2.059h3.109v-2.059h1.463v5.963h-1.463V168.14Zm7.879,2.485v-5.963h1.419V168.2l3.039-3.535h1.021v5.963H133.16V167.09l-3.038,3.535Zm16.977-6.09h-3.435v6.09h-1.5V163.1h6.431v7.524h-1.491v-6.09Zm4.955,3.591h1.277l-.639-1.334-.638,1.334Zm1.888,1.207h-2.5l-.653,1.292h-1.6l3.053-5.963h.908l3.066,5.963h-1.618l-.653-1.292Zm6.814-2.242a1.3,1.3,0,0,0,.262-.029.49.49,0,0,0,.22-.1.464.464,0,0,0,.149-.213.689.689,0,0,0,.035-.212.983.983,0,0,0-.027-.221.347.347,0,0,0-.157-.205.667.667,0,0,0-.262-.092,1.81,1.81,0,0,0-.248-.022h-2.584v1.094Zm.113-2.428a2.61,2.61,0,0,1,.617.065,2.567,2.567,0,0,1,.455.148,1.583,1.583,0,0,1,.313.178c.08.062.144.111.191.149a1.327,1.327,0,0,1,.4.652,2.753,2.753,0,0,1,.086.639,1.933,1.933,0,0,1-.17.873,2.079,2.079,0,0,1-.356.518,1.535,1.535,0,0,1-.83.468,4.991,4.991,0,0,1-.8.071h-2.627v2.2h-1.476v-5.963Zm6.545,5.963h-1.463V166.04h-2.257v-1.377h5.976v1.377h-2.257v4.586Zm7.566-2.485h-3.109v2.485h-1.463v-5.963h1.463v2.059h3.109v-2.059h1.462v5.963h-1.462V168.14Zm3.136-3.478h5.636V166h-4.173v.895H181.3v1.277h-2.739v1.108h4.4v1.348h-5.863v-5.963Zm10.945,2.428a1.3,1.3,0,0,0,.262-.029.491.491,0,0,0,.22-.1.464.464,0,0,0,.149-.213.691.691,0,0,0,.035-.212.982.982,0,0,0-.027-.221.347.347,0,0,0-.157-.205.667.667,0,0,0-.262-.092,1.809,1.809,0,0,0-.248-.022h-2.584v1.094Zm.113-2.428a2.626,2.626,0,0,1,.618.065,2.582,2.582,0,0,1,.453.148,1.552,1.552,0,0,1,.313.178c.08.062.144.111.191.149a1.328,1.328,0,0,1,.4.652,2.754,2.754,0,0,1,.086.639,1.933,1.933,0,0,1-.17.873,2.081,2.081,0,0,1-.356.518,1.535,1.535,0,0,1-.83.468,4.992,4.992,0,0,1-.8.071h-2.627v2.2h-1.476v-5.963Zm4.529,4.614h2.186a1.723,1.723,0,0,0,.255-.022.421.421,0,0,0,.256-.149.6.6,0,0,0,.142-.439.59.59,0,0,0-.056-.284.563.563,0,0,0-.128-.156.5.5,0,0,0-.248-.1c-.09-.009-.172-.014-.248-.014h-2.158v1.165Zm2.328-2.513c.086,0,.187,0,.305.014a2.481,2.481,0,0,1,.391.064,2.172,2.172,0,0,1,.425.148,1.406,1.406,0,0,1,.4.284,1.377,1.377,0,0,1,.405.681,3.057,3.057,0,0,1,.092.711,2.871,2.871,0,0,1-.092.7,1.468,1.468,0,0,1-.434.7,1.74,1.74,0,0,1-.837.468,3.844,3.844,0,0,1-.824.1h-3.634v-5.963h1.476v2.1Zm2.683-2.116h1.477v5.991h-1.477v-5.991Z" transform="translate(-67.787 -155.476)"/></g></svg>