<svg xmlns="http://www.w3.org/2000/svg" width="136.342" height="40.135" viewBox="0 0 136.342 40.135"><defs><style>.a{isolation:isolate;}.b{fill:#334059;}</style></defs><g class="a"><path class="b" d="M1014.267,61.848h-6.235v-7.4h-1.7V72.038h1.7V64.611h6.235v7.427h1.775V54.446h-1.775Z" transform="translate(-956.605 -42.275)"/><path class="b" d="M1026.106,61.847h-5.349q-.887,0-.887-.709V54.446H1018.1v7.173q0,2.942,2.433,2.941h5.577v3.727q-.026,1.014-.887,1.014h-7.047v2.738h7.276q2.358,0,2.358-2.991v-14.6h-1.7Z" transform="translate(-956.226 -42.275)"/><path class="b" d="M1037.135,54.446h-7.275v2.737h7.021q.912,0,.913.837v3.118q0,.709-.913.709h-7.021V72.039h1.7V64.586h5.651q2.383-.025,2.383-2.89V57.412Q1039.568,54.446,1037.135,54.446Z" transform="translate(-955.848 -42.275)"/><path class="b" d="M1041.623,57.437V69.1q0,2.94,2.434,2.941h7.276V69.3h-7.123q-.889,0-.887-.811v-3.9h8.01V61.847h-8.01V58.02q0-.836.887-.837h7.123V54.446h-7.276Q1041.623,54.446,1041.623,57.437Z" transform="translate(-955.47 -42.275)"/><path class="b" d="M1060.663,54.446h-7.275v2.737h7.021q.912,0,.913.837v3.118q0,.709-.913.709h-7.021V72.039h1.7V64.586h3.117V69.1q0,2.94,2.409,2.941h2.509V69.25h-2.434a.672.672,0,0,1-.76-.761v-3.9h.81q2.383-.025,2.383-2.89V57.412Q1063.121,54.446,1060.663,54.446Z" transform="translate(-955.092 -42.275)"/><path class="b" d="M1065.15,72.038h1.7V54.446h-1.7Z" transform="translate(-954.714 -42.275)"/><path class="b" d="M1076.354,54.446h-4.842q-2.434,0-2.433,2.991V69.1q0,2.94,2.433,2.941h4.842q2.434,0,2.433-2.941V57.437Q1078.787,54.448,1076.354,54.446Zm.709,14.043q0,.811-.911.811h-4.436q-.889,0-.888-.811V58.02q0-.836.888-.837h4.436q.91,0,.911.837Z" transform="translate(-954.588 -42.275)"/><path class="b" d="M1088.118,54.446h-4.842q-2.434,0-2.433,2.991v14.6h1.749V58.02q0-.836.888-.837h4.436q.912,0,.911.837V72.039h1.724v-14.6Q1090.551,54.448,1088.118,54.446Z" transform="translate(-954.209 -42.275)"/><path class="b" d="M978.22,42.654a20.067,20.067,0,1,0,20.068,20.068A20.09,20.09,0,0,0,978.22,42.654Zm0,38.023a17.955,17.955,0,1,1,17.955-17.955A17.976,17.976,0,0,1,978.22,80.677Z" transform="translate(-958.153 -42.654)"/><path class="b" d="M978.072,47.259a15.315,15.315,0,1,0,15.315,15.315A15.333,15.333,0,0,0,978.072,47.259Zm0,28.517a13.2,13.2,0,1,1,13.2-13.2A13.217,13.217,0,0,1,978.072,75.776Z" transform="translate(-958.005 -42.506)"/><path class="b" d="M977.956,56.469a5.811,5.811,0,0,0-5.7,4.752h-2.046a2.057,2.057,0,0,0-1.758-1.031,2.086,2.086,0,0,0,0,4.173,2.056,2.056,0,0,0,1.758-1.03h2.045a5.805,5.805,0,1,0,5.7-6.864Zm0,9.506a3.689,3.689,0,0,1-3.524-2.641h1.8l1.724,1.725,2.7-2.7-2.7-2.7L976.4,61.221h-1.967a3.689,3.689,0,1,1,3.524,4.754Z" transform="translate(-957.889 -42.21)"/></g></svg>