<svg xmlns="http://www.w3.org/2000/svg" width="135.592" height="42.393" viewBox="0 0 135.592 42.393"><defs><style>.a{isolation:isolate;}.b{fill:#a39f9e;}.c{fill:#c01;}</style></defs><g class="a"><path class="b" d="M63.674,104.344l2.062.966a3.368,3.368,0,0,0,.348.243c1.966,1.043,3.937,2.076,5.9,3.121,2.471,1.316,4.929,2.657,7.413,3.947a.793.793,0,0,1,.52.831c-.017,2.056-.011,4.112-.008,6.169q.007,3.94.023,7.878v3.29a6.628,6.628,0,0,1-.716-.37c-1.99-1.4-3.968-2.808-5.961-4.2q-3.931-2.742-7.88-5.461c-.563-.389-1.135-.765-1.7-1.146Z" transform="translate(-63.674 -88.398)"/><path class="b" d="M94.831,85.208c1.794.8,3.938,1.753,6.654,2.995l.285.13c-.119.077-.278.178-.469.293,0,0-.187.113-.378.222-.652.371-1.21.6-1.99,1.055-.1.058-.256.15-.446.272a3.688,3.688,0,0,1-.468.238c-.094.039-.166.064-.178.069-.87.434-1.729.892-2.588,1.349-2.932,1.564-5.857,3.138-8.8,4.684a.992.992,0,0,1-.779,0c-1.018-.494-2.012-1.036-3.009-1.57Q78.4,92.67,74.141,90.39l-.428-.229c-1.563-.822-2.4-1.275-2.7-1.462h0c-.272-.159-.49-.285-.608-.353.709-.329,1.313-.617,1.923-.891Q77,85.363,81.673,83.28c.468-.208,1.881-.768,3.725-1.627.306-.142.551-.258.694-.327" transform="translate(-65.741 -81.326)"/><path class="b" d="M113.123,104.481c.513-.223,1.028-.445,1.541-.671.139-.062.274-.136.524-.26v.807c0,5.251-.009,10.5.015,15.754a1.115,1.115,0,0,1-.637,1.106q-4.884,2.848-9.745,5.738c-1.794,1.07-3.555,2.193-5.332,3.291-.134.083-.277.151-.551.3V127.56c.006-.265.016-.529.016-.793q0-6.994-.007-13.987a.839.839,0,0,1,.527-.9c1.256-.618,2.481-1.3,3.717-1.958q4.5-2.4,9-4.8A9.7,9.7,0,0,0,113.123,104.481Z" transform="translate(-74.508 -88.154)"/><path class="c" d="M254.805,112.312a10.4,10.4,0,0,1,.324,1.69c.05,1.668.035,3.337.036,5.005a1.773,1.773,0,0,1-1.846,1.842q-3.45,0-6.9,0c-.159,0-.317-.015-.519-.026V103.99h1.943c1.669,0,3.338,0,5.007,0a2.019,2.019,0,0,1,2.31,2.151c.071,1.683.1,3.37.08,5.055A3.288,3.288,0,0,1,254.805,112.312Zm-7.219-1.236c1.692,0,3.333.008,4.974-.006a.864.864,0,0,0,.861-.85c.026-.811.034-1.625,0-2.436a.954.954,0,0,0-1.1-.988q-1.918,0-3.838,0h-.9Zm0,7.086h4.746c.79,0,1.091-.3,1.1-1.092.007-.651-.046-1.305.014-1.951.069-.737-.359-1.188-1.235-1.222-1.055-.042-2.114-.01-3.172-.01h-1.454Z" transform="translate(-119.658 -88.289)"/><path class="c" d="M73.709,94.089c.039.03.09.067.15.105.1.066.181.107.2.117,8.166,4.247,8.525,4.559,8.525,4.559,1,.533,1.992,1.076,3.009,1.57a.992.992,0,0,0,.779,0c2.941-1.546,5.866-3.12,8.8-4.684.338-.18,1.282-.716,2.588-1.349.272-.132.5-.237.646-.307l3.474,1.616c-.711.394-1.286.725-1.871,1.035Q94.9,99.462,89.79,102.17c-1.128.6-2.255,1.2-3.37,1.819a.785.785,0,0,1-.846.008q-6.063-3.246-12.133-6.475-1.317-.7-2.63-1.41c-.191-.1-.371-.223-.669-.4Z" transform="translate(-65.661 -85.247)"/><path class="c" d="M80.848,126.4q-.012-3.94-.023-7.878c0-2.057-.01-4.113.008-6.169a.793.793,0,0,0-.52-.831c-2.484-1.291-4.942-2.631-7.413-3.947-1.964-1.045-3.935-2.078-5.9-3.121a3.368,3.368,0,0,1-.348-.243v-3.453c.765.395,1.446.739,2.12,1.1q5.178,2.75,10.352,5.507c1.217.648,2.432,1.3,3.636,1.973.14.078.211.3.283.468a.812.812,0,0,1,.007.3v17.971Z" transform="translate(-64.589 -87.295)"/><path class="b" d="M189.878,113.675h-5.833V120.7h-1.883v-.667c0-4.314-.013-8.629.015-12.943a6.907,6.907,0,0,1,.326-1.9,1.72,1.72,0,0,1,1.747-1.252c1.71-.009,3.421.047,5.128-.019a2.045,2.045,0,0,1,2.2,2.1c.053,4.843.018,9.686.013,14.529a.614.614,0,0,1-.058.151h-1.654Zm-.033-2.783c0-1.187.01-2.3,0-3.42-.008-.606-.209-.792-.818-.795q-2.072-.009-4.144,0c-.619,0-.84.211-.848.838-.014.975-.006,1.95,0,2.926,0,.153.03.306.044.451Z" transform="translate(-100.075 -88.266)"/><path class="c" d="M112.141,103.622a9.7,9.7,0,0,1-.927.642q-4.5,2.411-9,4.8c-1.237.658-2.461,1.341-3.717,1.959a.839.839,0,0,0-.527.9q.019,6.993.007,13.987c0,.265-.01.529-.016.793L95.8,127.954a4.12,4.12,0,0,1-.051-.425q0-8.786-.009-17.572a.676.676,0,0,1,.422-.7c4.027-2.141,8.042-4.3,12.063-6.456,1.264-.676,2.54-1.329,3.915-2.048Z" transform="translate(-73.526 -87.294)"/><path class="b" d="M174.666,120.7h-1.826v-2.278q0-1.862,0-3.724c0-.647-.19-.9-.841-.916-1.625-.03-3.252-.01-4.948-.01v6.924h-1.645c-.01-.173-.03-.366-.03-.559q0-4.273,0-8.547c0-.673.021-.7.677-.7q2.992,0,5.983.006c.775,0,.8-.026.8-.78q0-1.344,0-2.687c0-.644-.1-.743-.746-.744-2.015-.006-4.029,0-6.044-.006-.673,0-.681-.016-.678-.682,0-.65,0-1.3,0-2.022.222-.015.416-.037.61-.037,2.177,0,4.356.045,6.532-.014a2.2,2.2,0,0,1,2.2,2.209c.049,1.708.021,3.419-.01,5.127a3.049,3.049,0,0,1-.24.846,11.468,11.468,0,0,1,.237,1.573c.023,2.279.006,4.559,0,6.838A1.068,1.068,0,0,1,174.666,120.7Z" transform="translate(-94.919 -88.268)"/><path class="c" d="M237.013,104.03h1.823v.679c0,4.457.014,8.915,0,13.372a3.089,3.089,0,0,1-.61,2.179,1.639,1.639,0,0,1-1.278.6c-1.893,0-3.786.012-5.679,0a1.943,1.943,0,0,1-1.824-2.16c-.008-2.015,0-4.03,0-6.045v-8.62h1.821v12.688c0,.2,0,.408.008.61a.773.773,0,0,0,.876.843c1.3.006,2.6,0,3.907,0,.581,0,.8-.173.924-.739a3.247,3.247,0,0,0,.037-.668q0-6.015,0-12.029Z" transform="translate(-114.599 -88.301)"/><path class="b" d="M141.929,120.661v-.734q0-6.2,0-12.39c0-.836-.157-1-.99-1.006q-1.892-.016-3.784-.014c-.845,0-1.027.184-1.027,1.052q0,6.1.006,12.208c0,.884.01.884-.851.885-.122,0-.245-.01-.366,0-.405.039-.582-.1-.581-.547.014-4.639,0-9.278.021-13.917a2.239,2.239,0,0,1,1.474-2.337,3.513,3.513,0,0,1,.722-.079q2.472-.01,4.944,0a1.891,1.891,0,0,1,2.044,1.462,5.133,5.133,0,0,1,.25,1.487c.019,4.415.012,8.83.01,13.245,0,.68,0,.681-.666.685C142.771,120.664,142.406,120.661,141.929,120.661Z" transform="translate(-85.383 -88.224)"/><path class="c" d="M207.431,103.982v2.66c-.194.01-.37.026-.546.026-2.035,0-4.069,0-6.1,0-.7,0-.9.205-.9.908q-.006,4.731,0,9.461c0,.82.192,1,1.008,1q2.96,0,5.921,0h.615v2.772c-.221.012-.416.033-.61.033q-3.113,0-6.226,0c-1.7,0-2.528-.8-2.534-2.482-.016-4.029-.03-8.057-.01-12.086a2.035,2.035,0,0,1,2.327-2.31C202.7,104.037,205.041,103.982,207.431,103.982Z" transform="translate(-104.951 -88.28)"/><path class="b" d="M159.587,106.678l-6.988-.048q0,.764,0,1.535,0,1.2.018,2.375H159.6v2.465h-7.012v7.706h-1.656c-.01-.195-.033-.408-.032-.621.006-4.7.026-9.4.012-14.1a2.048,2.048,0,0,1,2.027-2.062c2.2.051,4.394.015,6.647.015Z" transform="translate(-90.472 -88.268)"/><path class="c" d="M223.308,118.183v2.658c-.184.01-.36.029-.535.029q-3.359,0-6.717,0a2.02,2.02,0,0,1-2.128-2.062c-.015-.366,0-.732,0-1.1V104.054h1.707v.629q0,6.015,0,12.03a1.308,1.308,0,0,0,1.451,1.467C219.137,118.187,221.191,118.183,223.308,118.183Z" transform="translate(-109.832 -88.308)"/><path class="b" d="M128.579,103.819h1.676v16.846h-1.676Z" transform="translate(-83.614 -88.236)"/></g></svg>