<svg xmlns="http://www.w3.org/2000/svg" width="43" height="43" viewBox="0 0 43 43">
  <g id="Group_18452" transform="translate(-0.033)">
    <circle id="Эллипс_11" data-name="Эллипс 11" cx="21.5" cy="21.5" r="21.5" transform="translate(0.033)" fill="#f1f1f1"/>
    <g id="Сгруппировать_6181" data-name="Сгруппировать 6181" transform="translate(14.045 12.612)">
      <path id="Контур_6585" data-name="Контур 6585" d="M0,15.9l.83.4c.039.039.079.079.119.079.79.4,1.538.83,2.332,1.225.988.513,1.937,1.067,2.925,1.538a.3.3,0,0,1,.2.316v6.878a.991.991,0,0,1-.277-.158L3.759,24.518C2.767,23.845,1.7,23.134.672,22.423c-.238-.158-.435-.316-.672-.474Z" transform="translate(0 -9.615)" fill="#a39f9e"/>
      <path id="Контур_6586" data-name="Контур 6586" d="M14.345,1.538c.712.316,1.538.712,2.648,1.186l.079.039a.864.864,0,0,1-.2.119l-.158.079c-.277.158-.474.238-.79.435-.039.039-.119.079-.158.119-.079.039-.119.079-.2.079a.138.138,0,0,0-.079.039c-.355.158-.672.355-1.025.513C13.321,4.778,12.135,5.371,10.989,6a.433.433,0,0,1-.316,0c-.4-.2-.79-.4-1.186-.632C8.374,4.784,7.23,4.186,6.123,3.557L6,3.478C5.372,3.162,5.056,3,4.938,2.924h0A2.341,2.341,0,0,1,4.7,2.767c.277-.119.513-.238.751-.355L9.127.751c.2-.079.751-.316,1.463-.632A1.338,1.338,0,0,0,10.906,0" transform="translate(-2.842 0)" fill="#a39f9e"/>
      <path id="Контур_6587" data-name="Контур 6587" d="M30,15.7a3.99,3.99,0,0,0,.593-.277c.039-.039.119-.039.2-.119v6.562a.454.454,0,0,1-.238.435c-1.3.751-2.57,1.5-3.834,2.253-.712.435-1.423.87-2.095,1.3a.643.643,0,0,1-.238.119V18.937a.318.318,0,0,1,.2-.355c.513-.238.988-.513,1.463-.79l3.561-1.9A.548.548,0,0,0,30,15.7Z" transform="translate(-14.744 -9.252)" fill="#a39f9e"/>
      <path id="Контур_6588" data-name="Контур 6588" d="M5.883,8.8a.138.138,0,0,0,.079.039l.079.079A28.852,28.852,0,0,1,9.4,10.737c.4.2.79.435,1.186.632a.433.433,0,0,0,.316,0c1.146-.593,2.332-1.225,3.479-1.858A11.152,11.152,0,0,1,15.408,9a.643.643,0,0,0,.238-.119l1.383.632c-.277.158-.513.277-.751.4l-4.032,2.136c-.435.238-.909.474-1.344.712a.239.239,0,0,1-.316,0c-1.581-.87-3.2-1.7-4.784-2.57-.355-.2-.712-.355-1.025-.554A2.267,2.267,0,0,1,4.5,9.472Z" transform="translate(-2.721 -5.321)" fill="#c01"/>
      <path id="Контур_6589" data-name="Контур 6589" d="M7.774,23.619V18.046a.313.313,0,0,0-.2-.316c-.988-.513-1.937-1.025-2.925-1.538-.79-.4-1.538-.83-2.332-1.225-.039-.039-.079-.079-.119-.079V13.5c.316.158.554.277.83.435,1.383.712,2.728,1.463,4.111,2.174.474.238.948.513,1.423.79a.864.864,0,0,1,.119.2V24.33Z" transform="translate(-1.33 -8.164)" fill="#c01"/>
      <path id="Контур_6590" data-name="Контур 6590" d="M28.682,14.611l-.355.238-3.557,1.9c-.474.277-.988.513-1.463.79a.283.283,0,0,0-.2.355v5.85l-.87.513a.237.237,0,0,0-.04-.161V17.137a.265.265,0,0,1,.158-.277c1.581-.83,3.161-1.7,4.784-2.57.513-.277.988-.513,1.538-.79Z" transform="translate(-13.424 -8.164)" fill="#c01"/>
    </g>
  </g>
</svg>
