<svg id="Слой_1" data-name="Слой 1" xmlns="http://www.w3.org/2000/svg" viewBox="0 0 176.59 50" width="150"><defs><style>.cls-1{fill:#078ebf;}.cls-2{fill:#1f669e;}.cls-3{fill:#2f387a;}.cls-4{fill:#00b3dd;}.cls-5{fill:#00d7fb;}</style></defs><g id="Слой_2" data-name="Слой 2"><g id="Layer_1" data-name="Layer 1"><g id="New_Symbol_4-5" data-name="New Symbol 4-5"><path class="cls-1" d="M34,43.15c1-.09,1,1.29.59,1.85a.69.69,0,0,1-.38.27c-1.77.43-3.64,1.06-5.44,1.65a4.45,4.45,0,0,0-.67-2c2-.63,4-1.31,5.9-1.77"/><path class="cls-2" d="M48.83,43.13c.17-.3.49-.75.83-.79a6,6,0,0,1,1.82.74c.32.49-1,2.25-1.21,2.13a6.07,6.07,0,0,0-1.68-.71c-.38-.24.24-1.39.24-1.39"/><path class="cls-2" d="M46.76,43c0-.1.43-1,.9-1l.69.09c.55.17-.14,1.8-.75,2.16a.28.28,0,0,1-.22,0l-.63-.08c-.36-.08-.19-.81,0-1.25"/><path class="cls-2" d="M35.93,43.7a1.17,1.17,0,0,1,.75-1,47.23,47.23,0,0,1,9.19-.81c.7.17.09,1.78-.53,2.15a.63.63,0,0,1-.23.08,43.17,43.17,0,0,0-8.49.75c-.8,0-.68-1.14-.68-1.16"/><path class="cls-1" d="M24.91,47a1,1,0,0,1,.49-1.34l.08,0a1.29,1.29,0,0,1,1.59.88,1.27,1.27,0,0,1-.09.94,1.23,1.23,0,0,1-2.1-.45m-1.77.45c.65,1.3,2.63,2.66,4.4,1.95,2.43-1.26,1.49-5.3-1.33-5.75-2.18-.36-4.17,1.58-3.07,3.8"/><path class="cls-3" d="M49.87,34.11c.11-.4.33-.87.74-.89a15.76,15.76,0,0,1,1.66.34,8.76,8.76,0,0,1,1.66.56,17.6,17.6,0,0,0-.59,2.38A9.85,9.85,0,0,0,51.76,36c-.53-.13-1.06-.23-1.6-.31-.66-.25-.32-1.49-.32-1.53"/><path class="cls-2" d="M21.93,38.25a1,1,0,0,1,.64-1.2c3-.95,6.08-1.75,9.08-2.38A4.75,4.75,0,0,0,32,37c-2.87.62-5.8,1.38-8.69,2.24-1.13.22-1.42-1-1.42-1"/><path class="cls-1" d="M14.12,41.65a1,1,0,0,1,.36-1.24l.37-.17c1.53-.74,3.12-1.39,4.75-2a1.29,1.29,0,0,1,1.51,1A1.36,1.36,0,0,1,21,40a.93.93,0,0,1-.43.38c-1.55.61-3.08,1.26-4.54,1.94l-.35.16c-1.06.35-1.59-.82-1.6-.83"/><path class="cls-2" d="M44.3,33.94a1.13,1.13,0,0,1,.84-1c1.11,0,2.15,0,3.13,0,.9.22.58,2-.06,2.35a.75.75,0,0,1-.29.09c-.93-.06-1.93-.08-3-.05-.74-.1-.71-1.1-.64-1.43"/><path class="cls-2" d="M37.64,35.86a4.6,4.6,0,0,0-.16-2.24c1.5-.22,2.94-.39,4.32-.5,1.06.06,1,1.64.41,2.18a.85.85,0,0,1-.47.24c-1.33.12-2.71.28-4.13.47v-.15"/><path class="cls-4" d="M10.83,43.51c-.2-.33-.41-1,.12-1.32.35-.19.74-.38,1.08-.57.94-.41,2,.91,1.64,1.7a.65.65,0,0,1-.29.32c-.35.18-.71.36-1,.55-.59.27-1.24-.24-1.5-.68"/><path class="cls-3" d="M54.24,35.52c.14-.47.45-1.22.71-1.07.48.5-.29,2.93-.75,3-.3,0-.23-1,0-1.89m-.75-.38c-.27,1.06-.88,4.19-.1,4.59,1.34.14,3.08-6.25,2.07-7.58-.5-.65-1.38.69-2,3"/><path class="cls-2" d="M33.6,35.34a1.49,1.49,0,0,1,1-1.57c1.23-.13,1.73,1.56,1,2.52s-1.87.44-2-.8v-.15m-1.92.39c.22,1.62,1.54,3.8,3.69,3.3,3-1,3.32-6.2.49-7.48-2.24-1-4.57,1.28-4.18,4.19"/><path class="cls-3" d="M42.12,24.55a1,1,0,0,1,.74-1.06,42.28,42.28,0,0,1,7.63.16,8.8,8.8,0,0,0,.15,2.51A40.53,40.53,0,0,0,43.17,26c-1.07-.08-1.08-1.42-1.08-1.44"/><path class="cls-2" d="M33,25.77a1.15,1.15,0,0,1,.85-1.18q2.94-.51,5.69-.79c1.18,0,1.49,1.58.88,2.24a1,1,0,0,1-.52.27c-1.79.18-3.66.45-5.58.74-1.23.07-1.32-1.29-1.32-1.3"/><path class="cls-4" d="M18.55,29.4a1.22,1.22,0,0,1,.75-1.31c2-.64,4.06-1.21,6.09-1.74a1.3,1.3,0,0,1,1.45,1.14,1.26,1.26,0,0,1-.27,1,1,1,0,0,1-.55.36c-2,.51-4,1.08-6,1.71a1.28,1.28,0,0,1-1.48-1.05.13.13,0,0,1,0-.06"/><path class="cls-5" d="M16,29.2a1.29,1.29,0,0,1,1.33,2,1.24,1.24,0,0,1-.52.41c-1.8.63-3.3,1.49-5,2.17-1.41.6-2,1-3.25,1.62a5.66,5.66,0,0,0-1-2.33c1.25-.61,1.88-1,3.33-1.64,1.73-.75,3.27-1.58,5.11-2.24"/><path class="cls-3" d="M55.92,25.63c.35.47.43,2.33.1,2.49H56a5.74,5.74,0,0,0-1.8-1.06,8,8,0,0,0-.09-2.49,6.32,6.32,0,0,1,1.84,1.08"/><path class="cls-1" d="M28.43,26.8a1.16,1.16,0,0,1,.83-1.35l1.49-.32a1.31,1.31,0,0,1,1.42,1.17,1.28,1.28,0,0,1-.24.89,1.07,1.07,0,0,1-.62.42l-1.49.3a1.24,1.24,0,0,1-1.39-1.09v0"/><path class="cls-3" d="M51.76,25c0-.5.15-1.3.68-1.24,1,.36,1.09,2.82.38,3.11-.51.19-1-.75-1.06-1.87m-1.36-.22c.08,1.78.83,4.38,2.28,4.6,2.32,0,2-6.07.11-7.73-1.33-1.2-2.52.36-2.39,3.13"/><path class="cls-5" d="M4.57,35.86A1.56,1.56,0,0,1,5,34c1.09-.51,2.13,1.2,1.72,2.32s-1.5.8-2-.33c0,0,0-.11-.06-.15m-1.5.62C3.88,38.53,5.89,40,7.6,39c2.6-2.08.4-7.39-2.4-7.58-2.05-.1-3.16,2.51-2.14,5.11"/><path class="cls-4" d="M1.29,26.82a1.6,1.6,0,0,1,.54-1.39,46.28,46.28,0,0,1,4.84-2.65,4.28,4.28,0,0,0,.56,2.4,43.8,43.8,0,0,0-4.86,2.64c-.79.34-1.08-.71-1.08-1"/><path class="cls-1" d="M14.87,20.47a1.32,1.32,0,0,1,.86-1.3c3.39-1.1,6.86-2.06,10.27-2.83a4.29,4.29,0,0,0,.7,2.36,105.8,105.8,0,0,0-10.33,2.85,1.17,1.17,0,0,1-1.45-.8,1.26,1.26,0,0,1,0-.28"/><path class="cls-2" d="M41.77,16.32A5,5,0,0,0,41,14.07a44.32,44.32,0,0,1,6.31.11c1,.25,1.49,1.93,1,2.29a.58.58,0,0,1-.26.06,43.57,43.57,0,0,0-6.36-.1v-.15"/><path class="cls-3" d="M49.66,15.55c0-.09-.14-.83.33-.75a11.83,11.83,0,0,1,3.19,1.25,3.48,3.48,0,0,1,1.45,1.67c.23.75.56,1.72.74,2.47C55.06,19,53.77,18,51.44,17.3q-.37-.12-.78-.21c-.65-.27-1-1.27-1-1.5"/><path class="cls-4" d="M8.65,23a1.78,1.78,0,0,1,1-1.86c1.31-.45,2.1,1,1.54,2.16a1.3,1.3,0,0,1-2.47,0A1.55,1.55,0,0,1,8.65,23m-2,.89c.34,1.76,2.09,3.78,4.76,2.53,3.24-2,2.66-6.85-.17-7.68C8.62,18,6.05,20.87,6.64,23.9"/><path class="cls-1" d="M28.24,16.91a1.32,1.32,0,0,1,1-1.59h0a1.63,1.63,0,0,1,1.83,1.4,1.68,1.68,0,0,1-.21,1c-.7,1-2.37.48-2.62-.86M26,17.36a4.26,4.26,0,0,0,5.08,3.25c3.43-1.28,2.67-6-.39-7.28a3.38,3.38,0,0,0-4.69,4"/><path class="cls-2" d="M37.22,15.46a1.08,1.08,0,0,1,.67-1.37l.17-.05c1.39,0,2.24,1.77,1.49,2.62s-2.09.05-2.36-1.2m-2.13,0c.4,1.88,2.24,4.29,4.76,3.93,3.17-.79,2.4-5.35-.47-7-2.53-1.49-4.9.22-4.29,3.1"/><path class="cls-4" d="M19.07,11.4a2.91,2.91,0,0,0-.51-1.79c2.58-.71,5.16-1.32,7.67-1.81,1.24-.13,1.78,1,1.25,1.59a1,1,0,0,1-.52.28c-2.59.5-5.23,1.13-7.9,1.86a.28.28,0,0,0,0-.13"/><path class="cls-3" d="M46.65,8.31c-.09-.16-.35-.67,0-.57A7.46,7.46,0,0,1,49,8.87a7.43,7.43,0,0,1,1.43,2h-.06A7.85,7.85,0,0,0,48,9.66a3.79,3.79,0,0,1-1.29-1.32"/><path class="cls-3" d="M43.76,7.83c-.16-.29-.31-.74.14-.74l.89.16c.82.23,1.76,1.63,1.41,1.87a.34.34,0,0,1-.2,0c-.3-.07-.6-.12-.92-.17a2.58,2.58,0,0,1-1.32-1.12"/><path class="cls-2" d="M29.08,8.08a.78.78,0,0,1,.7-.85,61.83,61.83,0,0,1,12-.39c1.07.2,1.81,1.55,1.38,1.82a.58.58,0,0,1-.26.05,63.27,63.27,0,0,0-12.38.4,1.38,1.38,0,0,1-1.45-1"/><path class="cls-4" d="M14.33,11.79a1.49,1.49,0,0,1,1.09-1.5,1.16,1.16,0,0,1,1.36,1.79c-.66,1-2.24.92-2.43-.18v-.13m-2.11.55c.08,1.87,1.92,3.33,4.44,2.45,3.23-1.42,3.2-5.16.67-6.17s-5.23,1.34-5.11,3.73"/><path class="cls-2" d="M38.57,2.22c-.29-.28-.26-.36-.24-.4a.38.38,0,0,1,.15,0,14.38,14.38,0,0,1,1.44.35,9.22,9.22,0,0,1,1.43.56c.55.4,1,.81,1.79,1.37a9.06,9.06,0,0,0-1.49-.59c-.5-.15-1-.28-1.5-.38a4.4,4.4,0,0,1-1.49-.91"/><path class="cls-4" d="M13.46,5.14a1.12,1.12,0,0,1,.8-.84c2.64-.82,5.32-1.49,7.94-2.08a2.21,2.21,0,0,0,.65,1.33,82.39,82.39,0,0,0-8.41,2.24c-.91.21-1-.39-1-.62"/><path class="cls-4" d="M6.36,8.29a1.77,1.77,0,0,1,.84-1l.32-.18c1.33-.64,2.71-1.27,4.12-1.85.86-.27,1,.41.75.88a1.5,1.5,0,0,1-.7.64c-1.49.61-3,1.27-4.36,2L7,8.88c-.74.31-.74-.36-.66-.61"/><path class="cls-2" d="M33.43,1.64c-.15-.21-.25-.46.17-.49a25.83,25.83,0,0,1,2.73.15c.85.09,2,1.1,1.69,1.3a.31.31,0,0,1-.19,0c-.91-.09-1.87-.15-2.9-.16a2.46,2.46,0,0,1-1.49-.81"/><path class="cls-4" d="M31.09,1c1,0,1.77.83,1.49,1.16a.56.56,0,0,1-.35.13c-1.29.07-2.63.17-4,.33a2.51,2.51,0,0,0-.92-1.31c1.31-.15,2.58-.25,3.79-.31"/><path class="cls-4" d="M24.11,2.45c-.12-.26-.11-.74.62-.89,1.13-.16,2,.75,1.6,1.3a1.56,1.56,0,0,1-2.24-.41m-1.76.36A4,4,0,0,0,26.81,4.6C29.05,4,28.78,2.07,27,1c-2.4-1.39-5.29-.47-4.75,1.5a.89.89,0,0,0,.09.26"/></g><path class="cls-2" d="M72.55,9.15H71.29v5.34H69.1V9.15H67.84v6.46h4.25v1.44H73.3V14.49h-.75Zm6.1,5.34h-3V12.92h2.56V11.8H75.65V10.3h3V9.15H74.38v6.46h4.26Zm2.6-1.58h2.19v2.7H84.7V9.15H83.44V11.8H81.25V9.15H80v6.46h1.27Zm6.26,2.7h1.26V10.28h1.69V9.15H85.81v1.13H87.5Zm5.33-2.43h1.24a2.1,2.1,0,0,0,1.56-.58,2.07,2.07,0,0,0,0-2.87,2.1,2.1,0,0,0-1.56-.58h-2.5v6.46h1.26Zm0-2.9H94a.89.89,0,0,1,.68.24.87.87,0,0,1,.26.65.82.82,0,0,1-.26.63.94.94,0,0,1-.68.25H92.83Zm8,2.9h1.25a2.08,2.08,0,0,0,1.55-.58,1.87,1.87,0,0,0,.58-1.43,1.91,1.91,0,0,0-.58-1.44,2.08,2.08,0,0,0-1.55-.58H99.57v6.46h1.26Zm0-2.9H102a.91.91,0,0,1,.68.24.87.87,0,0,1,.25.65.81.81,0,0,1-.25.63,1,1,0,0,1-.68.25h-1.19Zm4.69,5.33.39-1.14h2.29l.39,1.14h1.32l-2.36-6.46h-1l-2.35,6.46Zm1.56-4.55.8,2.35h-1.62Zm5.56,3.5a1.07,1.07,0,0,1-1.11-.91h-1.26a2.26,2.26,0,0,0,2.36,2,2.6,2.6,0,0,0,1.66-.53,1.73,1.73,0,0,0,.65-1.4,1.51,1.51,0,0,0-.94-1.5,1.48,1.48,0,0,0,.88-1.36,1.63,1.63,0,0,0-.62-1.3,2.7,2.7,0,0,0-3.14,0,2.37,2.37,0,0,0-.8,1.5h1.25a1.27,1.27,0,0,1,.39-.67,1.13,1.13,0,0,1,1.4-.05.73.73,0,0,1,.25.58.77.77,0,0,1-.23.63,1,1,0,0,1-.65.22h-.84v1h.84a1,1,0,0,1,.74.22.85.85,0,0,1,.26.65.76.76,0,0,1-.29.63A1.09,1.09,0,0,1,112.64,14.56Zm7.83.55a1.78,1.78,0,0,0,.53-1.36,1.51,1.51,0,0,0-.4-1.11,2,2,0,0,0-.49-.32,1.5,1.5,0,0,0,.8-1.38,1.65,1.65,0,0,0-.55-1.3,2.13,2.13,0,0,0-1.45-.47h-2.54v6.46h2.71a2,2,0,0,0,1.41-.52Zm-2.89-4.84h1.24a.9.9,0,0,1,.61.2.73.73,0,0,1,0,1l0,0a.9.9,0,0,1-.61.2h-1.24Zm0,4.22V12.9h1.32a.86.86,0,0,1,.61.21.84.84,0,0,1,0,1.16.81.81,0,0,1-.61.22Zm8.51-3v4.14h1.26V9.15h-1.13l-2.51,4.14V9.15h-1.26v6.46h1.12Zm4.07,4.14h1.25V10.28h1.7V9.15h-4.65v1.13h1.7Zm7.7-4.14v4.14h1.27V9.15H138l-2.52,4.14V9.15h-1.27v6.46h1.13Zm3.9,4.14,1.07-2.43h1v2.43h1.27V9.15h-2.51a2.13,2.13,0,0,0-1.5.55,1.89,1.89,0,0,0-.59,1.49,1.91,1.91,0,0,0,.29,1.06,1.86,1.86,0,0,0,.82.7l-1.34,2.69ZM142,10.5a.91.91,0,0,1,.68-.24h1.18v1.8h-1.18a.91.91,0,0,1-.68-.26.87.87,0,0,1-.25-.65.86.86,0,0,1,.22-.65ZM72.55,21.29H71.29v5.34H69.1V21.29H67.84v6.47h4.25v1.43H73.3V26.6h-.75ZM78,27.76H79.3V21.29H78.17l-2.52,4.14V21.29H74.39v6.47h1.13L78,23.6Zm6.44,0V27c1.83-.06,2.75-1,2.75-2.71a2.68,2.68,0,0,0-.66-1.94,3,3,0,0,0-2.07-.75V21H83.24v.63a3,3,0,0,0-2.07.75,2.71,2.71,0,0,0-.67,1.94c0,1.73.91,2.63,2.73,2.69v.8Zm0-5.09a1.56,1.56,0,0,1,1.14.42A1.75,1.75,0,0,1,86,24.32a1.79,1.79,0,0,1-.35,1.2,1.56,1.56,0,0,1-1.14.42Zm-2.37,2.81a1.84,1.84,0,0,1-.34-1.2,1.81,1.81,0,0,1,.34-1.19,1.56,1.56,0,0,1,1.14-.42v3.23a1.56,1.56,0,0,1-1.16-.45Zm7.55-.2h1.25a2.1,2.1,0,0,0,1.56-.58,2.09,2.09,0,0,0,0-2.87,2.07,2.07,0,0,0-1.58-.58H88.38v6.47h1.26Zm0-2.91h1.19a1,1,0,0,1,.68.25.85.85,0,0,1,.25.64.87.87,0,0,1-.25.65,1,1,0,0,1-.68.24H89.66Zm9,3.74a8.08,8.08,0,0,0,.11-1.63,8,8,0,0,0-.11-1.62,1.92,1.92,0,0,0-.55-1,2.55,2.55,0,0,0-3.46,0,1.93,1.93,0,0,0-.55,1,8.93,8.93,0,0,0-.1,1.63,8.87,8.87,0,0,0,.1,1.63,1.85,1.85,0,0,0,.55,1,2.53,2.53,0,0,0,3.46,0,1.85,1.85,0,0,0,.54-1Zm-1.22-.38a1.24,1.24,0,0,1-.26.57,1,1,0,0,1-.8.36,1.1,1.1,0,0,1-.82-.36,1.29,1.29,0,0,1-.25-.56,8.72,8.72,0,0,1-.06-1.25,8.86,8.86,0,0,1,.06-1.26,1.35,1.35,0,0,1,.25-.56,1.06,1.06,0,0,1,.82-.34,1,1,0,0,1,.8.34,1.2,1.2,0,0,1,.26.56,8.86,8.86,0,0,1,.06,1.26A7.36,7.36,0,0,1,97.41,25.77Zm7.3-2.69a1.61,1.61,0,0,0-.54-1.3,2.15,2.15,0,0,0-1.46-.49h-2.59v6.47h2.7a2,2,0,0,0,1.45-.5,1.74,1.74,0,0,0,.53-1.35,1.55,1.55,0,0,0-.4-1.12,2,2,0,0,0-.48-.34,1.49,1.49,0,0,0,.79-1.41Zm-3.33-.66h1.23a.91.91,0,0,1,.62.2.75.75,0,0,1,0,1.06l0,0a.87.87,0,0,1-.62.21h-1.23Zm1.94,4a.89.89,0,0,1-.62.22h-1.32V25h1.32a.89.89,0,0,1,.62.22.86.86,0,0,1,0,1.16Zm3.26-4.48a2,2,0,0,0-.56,1,9.91,9.91,0,0,0-.1,1.63,9.85,9.85,0,0,0,.1,1.63,1.86,1.86,0,0,0,.56,1,2.53,2.53,0,0,0,3.46,0,1.92,1.92,0,0,0,.55-1,8.88,8.88,0,0,0,.11-1.63,8.83,8.83,0,0,0-.11-1.62,2,2,0,0,0-.55-1A2.53,2.53,0,0,0,106.58,21.94Zm2.79,1.35a7.43,7.43,0,0,1,.07,1.25,7.31,7.31,0,0,1-.07,1.24,1.28,1.28,0,0,1-.25.57,1,1,0,0,1-.81.36,1,1,0,0,1-.82-.36,1.13,1.13,0,0,1-.24-.56,7.43,7.43,0,0,1-.07-1.25,7.43,7.43,0,0,1,.07-1.25,1.13,1.13,0,0,1,.24-.56,1.07,1.07,0,0,1,.82-.35,1,1,0,0,1,.81.35,1.16,1.16,0,0,1,.25.51ZM117,27.77V21.29h-1.12l-2.52,4.14V21.29h-1.26v6.47h1.12l2.52-4.16v4.16Zm-2.44-7.55a.51.51,0,0,1-.58-.45.4.4,0,0,1,0-.11h-.89a1.19,1.19,0,0,0,.45,1,1.85,1.85,0,0,0,2,0,1.19,1.19,0,0,0,.45-1h-.89a.53.53,0,0,1-.58.52Zm5.82,3.05h1.24a1.33,1.33,0,0,1,.38-.67,1.17,1.17,0,0,1,1.57.11,1,1,0,0,1,.23.44,3.84,3.84,0,0,1,.09.83h-2v1h2a3.45,3.45,0,0,1-.08.85,1.07,1.07,0,0,1-.23.45,1.14,1.14,0,0,1-1.61,0,1.19,1.19,0,0,1-.32-.58h-1.25a2.44,2.44,0,0,0,2.83,2,2.49,2.49,0,0,0,1.26-.64,2,2,0,0,0,.56-1,9.91,9.91,0,0,0,.1-1.63,9.85,9.85,0,0,0-.1-1.63,2,2,0,0,0-.56-1,2.39,2.39,0,0,0-4.09,1.34Zm6.15,4.48h1.27V21.29h-1.27Zm2.7-3.44,2.17-3h-1.5l-2.09,3.08L130,27.75h1.55Zm5.28-3.08a2.35,2.35,0,0,0-1.74.68,1.93,1.93,0,0,0-.55,1,9.91,9.91,0,0,0-.1,1.63,9.85,9.85,0,0,0,.1,1.63,1.85,1.85,0,0,0,.55,1,2.53,2.53,0,0,0,3.46,0,1.79,1.79,0,0,0,.55-1,8.88,8.88,0,0,0,.12-1.63,8.84,8.84,0,0,0-.12-1.62,1.79,1.79,0,0,0-.55-1,2.37,2.37,0,0,0-1.72-.71Zm1.06,4.54a1.24,1.24,0,0,1-.26.57,1,1,0,0,1-.8.36,1.1,1.1,0,0,1-.82-.36,1.29,1.29,0,0,1-.25-.56,8.72,8.72,0,0,1-.06-1.25,8.86,8.86,0,0,1,.06-1.26,1.35,1.35,0,0,1,.25-.56,1.06,1.06,0,0,1,.82-.34,1,1,0,0,1,.8.34,1.2,1.2,0,0,1,.26.56,7.6,7.6,0,0,1,.06,1.26A7.36,7.36,0,0,1,135.55,25.77Zm2.71-4.48v6.47h1.28V25h2.19v2.71H143V21.29h-1.25V23.9h-2.19V21.29Zm6.19,1.6a9.91,9.91,0,0,0-.1,1.63,9.85,9.85,0,0,0,.1,1.63,2,2,0,0,0,.56,1,2.53,2.53,0,0,0,3.46,0,1.89,1.89,0,0,0,.55-1,8.08,8.08,0,0,0,.11-1.63A8,8,0,0,0,149,22.9a2,2,0,0,0-.52-1,2.55,2.55,0,0,0-3.46,0,2,2,0,0,0-.59,1Zm1.23.38a1,1,0,0,1,1.06-.91,1,1,0,0,1,.81.35,1.24,1.24,0,0,1,.25.56,7.43,7.43,0,0,1,.07,1.25,7.31,7.31,0,0,1-.07,1.24,1.33,1.33,0,0,1-.25.57,1,1,0,0,1-.81.36,1,1,0,0,1-1.06-.92,7.43,7.43,0,0,1-.07-1.25,7.79,7.79,0,0,1,.07-1.28Zm8.22,3.17L155.13,24v3.74h1.27V21.29h-1.24l-1.69,3.49-1.72-3.49h-1.24v6.47h1.26V24L153,26.41Zm5.36-1V21.29H158v6.47h1.13l2.52-4.16v4.16h1.26V21.29h-1.12Zm5.23,2.33h1.26V21.29h-1.26Zm4.87-6.47h-1.49l-2.1,3.08L168,27.76h1.54l-2.37-3.49Zm4.81,0-2.5,4.11V21.29h-1.26v6.47h1.13l2.51-4.16v4.16h1.26V21.29ZM69.1,37.51V33.37H67.84v6.47H69l2.52-4.15v4.15h1.26V33.37H71.61Zm8.7,0V33.37H76.54v6.47h1.12l2.52-4.15v4.15h1.26V33.37H80.32ZM86.49,36H84.3V33.37H83v6.47H84.3V37.13h2.18v2.71h1.26V33.37H86.48Zm6.44-2.3v-.63H91.67v.63a3,3,0,0,0-2.07.75A2.7,2.7,0,0,0,89,36.4c0,1.73.9,2.63,2.72,2.69v.8h1.26v-.8c1.82-.06,2.74-1,2.74-2.69A2.7,2.7,0,0,0,95,34.46,3,3,0,0,0,92.93,33.71ZM91.71,38a1.56,1.56,0,0,1-1.14-.42,2.28,2.28,0,0,1,0-2.39,1.56,1.56,0,0,1,1.14-.42Zm2.37-.42a1.6,1.6,0,0,1-1.14.42V34.79a1.56,1.56,0,0,1,1.14.42A2.24,2.24,0,0,1,94.08,37.6ZM100.9,34a2.08,2.08,0,0,0-1.56-.58h-2.5v6.47H98.1V37.4h1.24A2,2,0,0,0,100.9,34Zm-1,2a1,1,0,0,1-.68.24H98.07V34.5h1.18a.89.89,0,0,1,.68.24.93.93,0,0,1,0,1.28Zm3.87-2.66-2.36,6.47h1.32l.39-1.15h2.3l.38,1.15h1.31l-2.36-6.47Zm-.3,4.26.82-2.36.84,2.36Zm5.8-2.85a1.12,1.12,0,0,1,1.89.58h1.3a2.51,2.51,0,0,0-.81-1.5,2.57,2.57,0,0,0-3.3.16,1.85,1.85,0,0,0-.55,1,8.87,8.87,0,0,0-.1,1.63,8.93,8.93,0,0,0,.1,1.63,1.93,1.93,0,0,0,.55,1,2.56,2.56,0,0,0,3.3.14,2.45,2.45,0,0,0,.81-1.49H111.2a1,1,0,0,1-1.08.92,1,1,0,0,1-.82-.34,1.16,1.16,0,0,1-.24-.57,7.43,7.43,0,0,1-.07-1.25,7.61,7.61,0,0,1,.07-1.26,1.17,1.17,0,0,1,.27-.61Zm3.79-.28h1.69v5.34H116V34.5h1.69V33.37h-4.64Zm8.27-1.13h-2.51v6.47h1.27V37.4h1.24a2.11,2.11,0,0,0,1.56-.58,2.09,2.09,0,0,0,0-2.87,2.13,2.13,0,0,0-1.53-.58ZM122,36a1,1,0,0,1-.68.24h-1.18V34.5h1.18a1,1,0,0,1,.68.24A1,1,0,0,1,122,36Zm4.62.46-1.35-3.12h-1.32L126,37.85l-.19.44a.65.65,0,0,1-.67.41h-.51v1.13h.75a1.54,1.54,0,0,0,1.45-1.09l2.28-5.38h-1.3ZM130,39.84h1.29V33.37h-1.27Zm4.87-6.47h-1.49l-2.09,3.08,2.24,3.39h1.55l-2.4-3.44Zm.55,1.13h1.69v5.34h1.26V34.5h1.69V33.37h-4.64Zm7.82,2-1.35-3.12H140.6l2.08,4.48-.2.44a.65.65,0,0,1-.67.41h-.51v1.13h.75a1.54,1.54,0,0,0,1.45-1.09l2.28-5.38h-1.3Zm5.92-3.12h-2.5v6.47H148V37.4h1.24a2,2,0,1,0,0-4Zm.62,2.66a1,1,0,0,1-.68.24H148V34.5h1.18a.89.89,0,0,1,.68,1.53Zm8,3.81H159V33.37h-1.26Zm-2.8-4h-1.24V33.37h-1.27v6.47H155a2.11,2.11,0,0,0,1.5-.57,2.13,2.13,0,0,0,0-2.9,2.08,2.08,0,0,0-1.53-.56Zm.58,2.66a.91.91,0,0,1-.68.24h-1.14V36.93h1.18a1,1,0,0,1,.68.24,1,1,0,0,1,0,1.3Z"/></g></g></svg>