<svg xmlns="http://www.w3.org/2000/svg" width="11.713" height="11.713" viewBox="0 0 11.713 11.713"><defs><style>.a{fill:#909ebb;}</style></defs><path class="a" d="M126.244,323.548a5.856,5.856,0,0,0,0,11.713.437.437,0,1,0,0-.875,4.982,4.982,0,1,1,4.982-4.982v1.355a.918.918,0,0,1-1.835,0V329.4a3.152,3.152,0,1,0-.743,2.028,1.792,1.792,0,0,0,3.453-.672V329.4A5.864,5.864,0,0,0,126.244,323.548Zm0,8.128a2.272,2.272,0,1,1,2.273-2.273A2.275,2.275,0,0,1,126.244,331.676Z" transform="translate(-120.388 -323.548)"/></svg>