<?xml version="1.0" encoding="utf-8"?>
<!-- Generator: Adobe Illustrator 24.3.0, SVG Export Plug-In . SVG Version: 6.00 Build 0)  -->
<svg version="1.1" id="Layer_1" xmlns="http://www.w3.org/2000/svg" xmlns:xlink="http://www.w3.org/1999/xlink" x="0px" y="0px"
	 viewBox="0 0 2100 2100" style="enable-background:new 0 0 2100 2100;" xml:space="preserve" width="50">
<style type="text/css">
	.st0{fill:#00A099;}
	.st1{fill:#E84E1B;}
	.st2{enable-background:new    ;}
	.st3{fill:#FFFFFF;}
</style>
<g>
	<path class="st0" d="M-0.36,2100.2c0,0,1277,0,1509,0l-177.53-370.1c-168.22,69.62-353.68,74.48-526.52,13.03
		c-42.08-14.96-81.96-33.88-119.92-55.6c-117.05-66.97-212.57-164.75-277.99-284.71c-0.29-0.54-0.59-1.07-0.88-1.61L-0.36,1593.2"/>
	<path class="st0" d="M2099.64,597.2l-368.39,175.33c0.06,0.16,0.13,0.31,0.2,0.47c52.78,129.21,65.86,265.86,44.5,395.71
		c-35.6,216.4-166.94,413.8-370.65,525.79l194.35,405.7c382,0,500,0,500,0"/>
</g>
<polygon class="st1" points="2099.64,597.2 -0.36,1593.2 -0.36,2010.2 2100.64,1013.2 "/>
<path class="st0" d="M1050.34,315.07c82.98,0,166.26,14.23,246.76,42.86c172,61.15,312.29,181.19,398.91,340.28l403.63-196.01
	c0-250,0-503,0-503s-1213,1-1502,1L774.3,369.44C863.04,333.27,956.51,315.07,1050.34,315.07z"/>
<path class="st0" d="M358.26,804.29c60.66-170.66,179.3-310.09,336.53-396.87L498.64,0.2c-277,0-499,0-499,0s1,1239,0,1505
	l370.21-177.96C301.62,1159.96,297.25,975.87,358.26,804.29z"/>
<g class="st2">
	<path class="st3" d="M199.41,1536.89l139.38-66.48l19.55,40.99l-47.14,22.49l117.31,245.96l-45.09,21.51L266.1,1555.4l-47.14,22.48
		L199.41,1536.89z"/>
	<path class="st3" d="M525.92,1468.21l17.79,37.3c21.9,45.91,11.69,81.48-33.41,102.99L489,1618.66l51.42,107.81l-45.09,21.51
		l-136.87-286.96l66.41-31.67C469.96,1407.84,504.03,1422.29,525.92,1468.21z M423.1,1480.51l46.34,97.16l21.32-10.17
		c14.35-6.84,19.01-17.12,9.23-37.62l-20.53-43.04c-9.78-20.5-20.69-23.34-35.04-16.5L423.1,1480.51z"/>
	<path class="st3" d="M795.81,1604.67l-45.5,21.7l-32.62-48.35l-55.34,26.4l17.04,55.78l-41.4,19.75l-90.95-308.86l66-31.48
		L795.81,1604.67z M649.51,1562.74l43.45-20.73l-90.94-134.76L649.51,1562.74z"/>
	<path class="st3" d="M861.81,1573.19l-45.09,21.51l-136.87-286.96l45.09-21.51l58.66,122.98l51.24-24.44l-58.66-122.98l45.91-21.9
		l136.87,286.96l-45.91,21.9l-58.66-122.98l-51.24,24.44L861.81,1573.19z"/>
	<path class="st3" d="M1071.5,1341.84l18.18,38.12c21.9,45.91,11.46,83.1-32.82,104.22c-44.27,21.12-79.74,5.83-101.64-40.08
		l-71.17-149.22c-21.9-45.91-11.45-83.1,32.82-104.21c44.27-21.12,79.74-5.83,101.64,40.08l13.3,27.88l-42.63,20.33l-14.66-30.75
		c-9.78-20.5-22.51-23.98-36.86-17.14c-14.35,6.84-19.65,18.93-9.87,39.43l73.91,154.96c9.78,20.5,22.32,23.58,36.66,16.73
		c14.35-6.84,19.85-18.53,10.07-39.02l-19.55-40.99L1071.5,1341.84z"/>
	<path class="st3" d="M1195.08,1414.23l-45.09,21.51l-136.87-286.96l142.25-67.85l136.87,286.96l-45.91,21.9l-117.31-245.96
		l-51.24,24.44L1195.08,1414.23z"/>
	<path class="st3" d="M1217.32,1135.92c-21.9-45.91-10.22-83.69,34.05-104.8s80.97-6.42,102.87,39.5l71.17,149.22
		c21.9,45.91,10.22,83.69-34.05,104.8c-44.27,21.12-80.97,6.42-102.87-39.5L1217.32,1135.92z M1334.96,1266.5
		c9.78,20.5,22.51,23.99,36.86,17.14c14.35-6.84,19.65-18.93,9.88-39.43l-73.91-154.96c-9.78-20.5-22.51-23.98-36.86-17.14
		c-14.35,6.84-19.65,18.93-9.88,39.43L1334.96,1266.5z"/>
	<path class="st3" d="M1517.97,995.05l17.79,37.3c21.9,45.91,11.69,81.48-33.41,102.99l-21.32,10.17l51.42,107.81l-45.09,21.51
		L1350.5,987.87l66.41-31.67C1462,934.68,1496.07,949.13,1517.97,995.05z M1415.15,1007.35l46.34,97.16l21.32-10.17
		c14.35-6.84,19.01-17.12,9.23-37.62l-20.53-43.04c-9.78-20.5-20.69-23.34-35.04-16.5L1415.15,1007.35z"/>
	<path class="st3" d="M1491.93,920.41l139.38-66.48l19.55,40.99l-47.14,22.49l117.31,245.96l-45.09,21.51l-117.31-245.96
		l-47.14,22.49L1491.93,920.41z"/>
	<path class="st3" d="M1834.17,1109.42l-46.32,22.09l-136.87-286.96l40.17-19.16l86.62,181.6l-13.71-70.95l-19.61-136.07l49.6-23.66
		l136.87,286.96l-40.58,19.36l-96.39-202.1l15.18,79.31L1834.17,1109.42z"/>
	<path class="st3" d="M1993.49,768.24l17.79,37.3c21.9,45.91,11.69,81.48-33.41,102.99l-21.32,10.17l51.42,107.81l-45.09,21.51
		l-136.87-286.96l66.41-31.67C1937.53,707.88,1971.59,722.33,1993.49,768.24z M1890.67,780.55l46.34,97.16l21.32-10.17
		c14.35-6.84,19.01-17.12,9.23-37.62l-20.53-43.04c-9.78-20.5-20.69-23.34-35.04-16.5L1890.67,780.55z"/>
</g>
</svg>
