<?xml version="1.0" encoding="utf-8"?>
<!-- Generator: Adobe Illustrator 24.3.0, SVG Export Plug-In . SVG Version: 6.00 Build 0)  -->
<svg version="1.1" id="Layer_1" xmlns="http://www.w3.org/2000/svg" xmlns:xlink="http://www.w3.org/1999/xlink" x="0px" y="0px"
	 viewBox="0 0 212.6 46.38" style="enable-background:new 0 0 212.6 46.38;" xml:space="preserve" width="150">
<style type="text/css">
	.Arched_x0020_Green{fill:url(#SVGID_1_);stroke:#FFFFFF;stroke-width:0.25;stroke-miterlimit:1;}
</style>
<linearGradient id="SVGID_1_" gradientUnits="userSpaceOnUse" x1="-35.4331" y1="164.9214" x2="-34.726" y2="164.2143">
	<stop  offset="0" style="stop-color:#1DA238"/>
	<stop  offset="0.9831" style="stop-color:#24391D"/>
</linearGradient>
<g>
	<path d="M16.74,37.58c0.34,0.34,0.93,0.97,0.93,1.53c0,0.59-0.73,1.37-1.15,1.74l-5.83,5.37H9.09l6.56-5.91
		c0.53-0.5,0.95-0.85,0.95-1.17c0-0.22-0.22-0.5-0.79-1.05l-5.99-5.75h1.55L16.74,37.58z M21.36,39.14c0-0.22,0.22-0.5,0.79-1.05
		l5.99-5.75H26.6l-5.37,5.23c-0.34,0.34-0.93,0.97-0.93,1.53c0,0.16,0.04,0.71,1.15,1.74l5.83,5.37h1.61l-6.56-5.91
		C21.78,39.82,21.36,39.46,21.36,39.14 M18.45,46.22h1.07V32.34h-1.07V46.22z M31.28,45.09c-0.14-0.12-0.2-0.36-0.2-0.55V39.6h8.76
		v-0.95h-8.76v-4.46c0-0.14,0-0.52,0.22-0.69c0.14-0.12,0.5-0.2,0.71-0.2h8.03v-0.95h-8.19c-0.54,0-1.05,0.04-1.45,0.51
		c-0.1,0.12-0.4,0.52-0.4,1.33V44.3c0,0.52,0.02,1.09,0.44,1.51c0.44,0.43,0.97,0.42,1.45,0.42h7.83l0.4-0.95h-7.95
		C31.94,45.27,31.44,45.21,31.28,45.09 M47.91,32.18c-0.58,0-0.97,0.16-1.41,1.21l-5.39,12.82h1.15l5.23-12.63
		c0.08-0.18,0.12-0.46,0.42-0.46c0.3,0,0.34,0.28,0.42,0.46l5.23,12.63h1.15l-5.39-12.82C48.88,32.34,48.48,32.18,47.91,32.18
		 M57.06,45.09c-0.14-0.12-0.2-0.36-0.2-0.55V39.6h8.76v-0.95h-8.76v-4.46c0-0.14,0-0.52,0.22-0.69c0.14-0.12,0.5-0.2,0.71-0.2h8.03
		v-0.95h-8.19c-0.54,0-1.05,0.04-1.45,0.51c-0.1,0.12-0.4,0.52-0.4,1.33V44.3c0,0.52,0.02,1.09,0.44,1.51
		c0.44,0.43,0.97,0.42,1.45,0.42h8.23v-0.95h-7.95C57.71,45.27,57.22,45.21,57.06,45.09 M75.83,39.22v-0.08
		c0.38-0.1,0.79-0.32,1.09-0.62c0.67-0.67,0.75-1.63,0.75-2.5c0-0.97-0.08-2.14-0.81-2.91c-0.71-0.75-1.65-0.77-2.28-0.77h-6.96
		v0.95h7.16c0.48,0,0.93,0.2,1.19,0.46c0.53,0.55,0.56,1.55,0.56,2.24c0,0.71,0,1.45-0.44,2c-0.6,0.75-1.51,0.75-2.16,0.75h-6.1
		v0.95h6.62c0.44,0,1.23,0.04,1.74,0.56c0.55,0.57,0.57,1.53,0.57,2.32c0,0.87-0.04,1.84-0.87,2.34c-0.44,0.26-1.29,0.36-1.86,0.36
		h-6.48v0.95h6.74c0.81,0,1.7-0.16,2.32-0.51c0.99-0.58,1.31-1.61,1.31-3.15c0-0.08,0-1.57-0.4-2.28
		C77.1,39.52,76.32,39.28,75.83,39.22 M90.23,38.69h-9v-6.34h-1.07v13.88h1.07v-6.58h9v6.58h1.07V32.34h-1.07V38.69z M104.53,39.7
		c0.42,0.61,0.52,1.82,0.52,2.72c0,0.73-0.06,1.96-0.63,2.7c-0.26,0.34-1.03,1.11-2.7,1.11h-6.38c-0.32,0-0.73-0.06-1.07-0.46
		c-0.32-0.38-0.34-0.79-0.34-1.21V32.34H95v6.32h7C103.46,38.67,104.19,39.2,104.53,39.7 M103.9,42.45c0-0.83,0-2.02-0.56-2.5
		c-0.36-0.32-0.95-0.34-1.21-0.34H95v4.78c0,0.2,0.04,0.52,0.12,0.63c0.16,0.24,0.47,0.24,0.77,0.24h5.77
		c0.67,0,1.39-0.22,1.74-0.61C103.9,44.12,103.9,43.25,103.9,42.45 M106.75,46.22h1.07V32.34h-1.07V46.22z M120.93,32.34h-1.27
		l-4.52,6.07l-4.52-6.07h-1.27l5.21,6.84l-5.37,7.04h1.27l4.68-6.26l4.68,6.26h1.27l-5.37-7.04L120.93,32.34z M144.69,46.22h-15.15
		v-0.95h0.99l5.43-11.7c0.34-0.75,0.75-1.39,1.43-1.39c0.69,0,1.07,0.62,1.43,1.39L144.69,46.22 M143.06,45.27l-5.25-11.46
		c-0.06-0.14-0.24-0.47-0.42-0.47s-0.36,0.34-0.42,0.47l-5.25,11.46H143.06z M157.27,33.69c1.57,1.57,1.65,3.98,1.65,5.59
		c0,1.6-0.08,4.02-1.65,5.59c-1.43,1.43-3.53,1.51-5.07,1.51c-1.55,0-3.65-0.08-5.08-1.51c-1.57-1.56-1.64-3.98-1.64-5.59
		c0-1.61,0.08-4.02,1.64-5.59c1.43-1.43,3.53-1.51,5.08-1.51C153.74,32.18,155.85,32.26,157.27,33.69 M157.77,39.28
		c0-1.61-0.04-3.53-1.19-4.82c-1.19-1.33-3.05-1.33-4.38-1.33c-1.33,0-3.19,0-4.38,1.33c-1.15,1.29-1.19,3.21-1.19,4.82
		c0,1.6,0.04,3.53,1.19,4.82c1.19,1.33,3.05,1.33,4.38,1.33c1.33,0,3.19,0,4.38-1.33C157.73,42.81,157.77,40.89,157.77,39.28
		 M172.22,36.6c0,1.13-0.14,2.58-1.15,3.35c-0.48,0.38-1.17,0.59-1.86,0.59h-7.04v5.67h-1.07V33.99c0-0.38,0-0.91,0.38-1.27
		c0.38-0.36,1.13-0.38,1.33-0.38h5.73c0.89,0,1.84,0.04,2.64,0.73C171.96,33.75,172.22,34.8,172.22,36.6 M171.07,36.33
		c0-0.5-0.02-1.78-0.58-2.4c-0.28-0.32-0.85-0.63-1.86-0.63h-5.67c-0.79,0-0.79,0.38-0.79,0.85v5.45h6.42c1.15,0,1.7-0.36,1.94-0.63
		C171.05,38.35,171.07,36.84,171.07,36.33 M185.82,33.69c1.57,1.57,1.65,3.98,1.65,5.59c0,1.6-0.08,4.02-1.65,5.59
		c-1.43,1.43-3.53,1.51-5.07,1.51s-3.65-0.08-5.07-1.51c-1.57-1.56-1.64-3.98-1.64-5.59c0-1.61,0.08-4.02,1.64-5.59
		c1.43-1.43,3.53-1.51,5.07-1.51S184.39,32.26,185.82,33.69 M186.31,39.28c0-1.61-0.04-3.53-1.19-4.82
		c-1.19-1.33-3.05-1.33-4.38-1.33c-1.33,0-3.19,0-4.38,1.33c-1.15,1.29-1.19,3.21-1.19,4.82c0,1.6,0.04,3.53,1.19,4.82
		c1.19,1.33,3.05,1.33,4.38,1.33c1.33,0,3.19,0,4.38-1.33C186.27,42.81,186.31,40.89,186.31,39.28 M191.19,32.34
		c-0.34,0-0.77,0.06-1.15,0.44c-0.36,0.36-0.4,0.77-0.4,1.13v12.31h1.07V34.23c0-0.26,0-0.56,0.12-0.71
		c0.2-0.26,0.71-0.22,0.99-0.22h7.75v-0.95H191.19z"/>
	<path d="M206.09,0c-3.59,0-6.51,2.91-6.51,6.51c0,3.6,2.92,6.51,6.51,6.51c3.6,0,6.51-2.91,6.51-6.51C212.6,2.91,209.69,0,206.09,0
		 M207.18,9.21l-1.88-1.09c0,0,0,0,0,0c-0.38-0.22-0.51-0.71-0.29-1.09l0,0l1.88,1.08c0,0,0,0,0,0
		C207.26,8.34,207.4,8.83,207.18,9.21 M207.18,5.98L207.18,5.98L205.3,4.9c0,0,0,0,0,0c-0.38-0.22-0.51-0.71-0.29-1.09c0,0,0,0,0,0
		l1.88,1.09c0,0,0,0,0,0C207.26,5.12,207.4,5.6,207.18,5.98 M200.47,6.51c0-2.29,1.37-4.25,3.33-5.13
		c-0.22,0.79,0.07,1.65,0.75,2.15h0c-0.27,0.19-0.41,0.37-0.55,0.62c-0.51,0.89-0.26,2.02,0.55,2.61h0
		c-0.27,0.19-0.41,0.37-0.55,0.62c-0.55,0.96-0.22,2.18,0.73,2.73l0.71,0.41l0.96,0.55l0.49,0.28c0,0,0,0,0,0
		c0.02,0.01,0.04,0.03,0.07,0.05c0.14,0.12,0.18,0.33,0.08,0.5c-0.07,0.12-0.18,0.19-0.31,0.2c0,0-0.01,0-0.02,0
		c-0.2,0.02-0.41,0.03-0.62,0.03c-0.06,0-0.12,0-0.18,0C202.89,12.03,200.47,9.55,200.47,6.51 M208.38,11.64
		c0.22-0.79-0.07-1.65-0.75-2.15c0.27-0.19,0.41-0.37,0.55-0.62c0.51-0.89,0.26-2.02-0.55-2.61c0.27-0.19,0.41-0.37,0.55-0.62
		c0.55-0.96,0.22-2.18-0.73-2.73l-0.71-0.41l-0.96-0.55l-0.49-0.28c0,0,0,0,0,0c-0.02-0.01-0.04-0.03-0.07-0.05
		c-0.14-0.12-0.18-0.33-0.08-0.5c0.07-0.12,0.18-0.19,0.31-0.2c0,0,0.01,0,0.01,0c0.21-0.02,0.41-0.03,0.62-0.03
		c0.06,0,0.12,0,0.18,0c3.02,0.09,5.44,2.57,5.44,5.62C211.71,8.8,210.34,10.76,208.38,11.64"/>
	<path d="M0,0.29h26.4v6.33h-9.09v19.13H9.09V6.62H0V0.29z M79.68,0.29h-9.82l-4.33,6.8l-4.33-6.8h-9.82l9.35,12.55l-9.64,12.91
		h9.82l4.62-7.17l4.62,7.17h9.82l-9.64-12.91L79.68,0.29z M98.64,9.31h-9.24V0.29h-8.22v25.46h8.22V15.64h9.24v10.11h8.22V0.29
		h-8.22V9.31z M131.63,0c-1.49,0-3.89,0.15-5.49,2.98l-7.02,12.26c-0.33,0.58-0.51,0.91-0.73,0.91c-0.44,0-0.44-0.55-0.44-0.87v-0.4
		V0.29h-8v19.64c0,3.06,0.65,6.11,5.67,6.11c3.53,0,4.8-1.38,5.49-2.58l7.24-12.37c0.51-0.84,0.73-1.24,0.94-1.24
		c0.37,0,0.37,0.47,0.37,0.95v14.95h8V6.29C137.66,4.22,137.45,0,131.63,0 M37.93,19.57c-0.51,0-1.17,0.04-1.57-0.33
		c-0.18-0.15-0.36-0.44-0.36-0.95v-2.76H49.9V10H36.01V8.07c0-0.33,0-0.91,0.4-1.24c0.29-0.25,0.8-0.36,1.27-0.36h12.58V0.29H31.97
		c-0.91,0-2.15,0.15-3.09,1.02c-0.95,0.87-1.09,1.93-1.09,2.91v17.46c0,1.2,0,2.22,1.16,3.2c0.98,0.8,2.04,0.87,3.09,0.87h13.72
		l4.62-6.18H37.93z M159.3,14.98c-0.55-0.58-1.35-1.46-1.35-2.29c0-0.22,0.11-0.76,1.05-1.89l8.84-10.51h-9.75l-6.42,9.02h-2.38
		V0.29h-8.22v25.46h8.22V15.64h2.1c0.07,0.09,0.13,0.18,0.19,0.25l7.71,9.86h9.79l0.03-0.07L159.3,14.98z M199.58,25.75h-8.66
		l-2-5.24h-9.16l-2,5.24h-8.56l-0.07-0.07l9.39-22.58c0.8-1.89,1.89-3.09,5.82-3.09c2.43,0,4.62,0.26,5.82,3.09L199.58,25.75z
		 M186.96,14.69l-2.29-6.44c-0.07-0.18-0.22-0.55-0.33-0.55c-0.11,0-0.26,0.36-0.33,0.55l-2.29,6.44H186.96z"/>
</g>
</svg>
